<svg width="24" height="24" viewBox="0 0 24 24" fill="none" xmlns="http://www.w3.org/2000/svg">
<path fill-rule="evenodd" clip-rule="evenodd" d="M12 24C18.6274 24 24 18.6274 24 12C24 5.37258 18.6274 0 12 0C5.37258 0 0 5.37258 0 12C0 18.6274 5.37258 24 12 24ZM2.6448 14.4616L2.976 13.3736H4.6416L4.9728 14.4616H6.0168L4.3984 9.8744H3.2144L1.6 14.4608H2.644L2.6448 14.4616ZM3.22 12.5616H4.4104C4.104 11.576 3.932 11.0192 3.8936 10.8896C3.8552 10.76 3.8272 10.6584 3.8104 10.584C3.7416 10.8496 3.5448 11.5096 3.22 12.5616ZM8.6136 14.0096C8.3968 14.3536 8.0672 14.5248 7.6232 14.5248C7.2128 14.5248 6.8904 14.3656 6.656 14.0472C6.4216 13.728 6.304 13.2864 6.304 12.7216C6.304 12.1488 6.4232 11.7032 6.6624 11.3832C6.9008 11.0632 7.2296 10.9032 7.648 10.9032C8.088 10.9032 8.4232 11.0744 8.6536 11.4152H8.6856C8.6376 11.1552 8.6136 10.9232 8.6136 10.7192V9.6H9.5696V14.4624H8.8384L8.6536 14.0096H8.6136ZM7.9576 13.7656C7.7368 13.7656 7.5672 13.68 7.448 13.508C7.3296 13.336 7.2696 13.0784 7.2696 12.7344C7.2696 12.3904 7.3288 12.1288 7.4464 11.9488C7.564 11.768 7.7296 11.6784 7.9424 11.6784C8.2024 11.6784 8.3904 11.7592 8.5056 11.9216C8.6216 12.0848 8.6792 12.3536 8.6792 12.728V12.832C8.6688 13.1712 8.6072 13.4112 8.4936 13.5536C8.38 13.6952 8.2008 13.7656 7.9576 13.7656ZM11.52 14.4624V12.8192C11.52 12.4088 11.5752 12.1136 11.6856 11.9344C11.796 11.7552 11.9736 11.6656 12.2168 11.6656C12.3984 11.6656 12.5312 11.7288 12.6152 11.8544C12.7 11.9808 12.7416 12.1696 12.7416 12.4224V14.4624H13.6952V12.7088C13.6952 12.3464 13.7528 12.0816 13.868 11.9152C13.984 11.748 14.1584 11.6648 14.392 11.6648C14.5728 11.6648 14.7056 11.728 14.7904 11.8536C14.8744 11.98 14.9168 12.1688 14.9168 12.4216V14.4616H15.8728V12.184C15.8728 11.736 15.7712 11.4104 15.5688 11.2072C15.3656 11.004 15.0656 10.9024 14.6696 10.9024C14.4408 10.9024 14.2352 10.9472 14.0528 11.0368C13.8704 11.1264 13.7328 11.2528 13.6384 11.4152H13.5544C13.3688 11.0736 13.0144 10.9024 12.492 10.9024C12.2624 10.9024 12.06 10.948 11.8824 11.0384C11.7056 11.1288 11.5704 11.2544 11.476 11.4144H11.4232L11.2952 10.968H10.5672V14.4616H11.5192L11.52 14.4624ZM17.804 10.9688V14.4624H16.8512V10.9688H17.804ZM17.3296 10.5344C17.5024 10.5344 17.632 10.4936 17.7184 10.4112C17.8048 10.3288 17.848 10.2136 17.848 10.0656C17.848 9.7552 17.6752 9.6 17.3296 9.6C16.9832 9.6 16.8104 9.7552 16.8104 10.0656C16.8104 10.3776 16.9832 10.5344 17.3296 10.5344ZM19.7576 12.8192V14.4624H18.8048V10.9688H19.5328L19.6608 11.416H19.7136C19.82 11.2472 19.9664 11.1192 20.1528 11.0328C20.3392 10.9464 20.5512 10.9032 20.7888 10.9032C21.1952 10.9032 21.5032 11.0128 21.7136 11.2328C21.924 11.4528 22.0296 11.7696 22.0296 12.1848V14.4624H21.076V12.4224C21.076 12.1696 21.0312 11.9808 20.9416 11.8544C20.852 11.7288 20.7096 11.6656 20.5136 11.6656C20.2472 11.6656 20.0544 11.7544 19.9352 11.9328C19.8168 12.1112 19.7576 12.4064 19.7576 12.8192Z" fill="black"/>
</svg>
