<svg width="24" height="24" viewBox="0 0 24 24" fill="none" xmlns="http://www.w3.org/2000/svg">
<path fill-rule="evenodd" clip-rule="evenodd" d="M8.20567 12.0818C8.52173 11.7658 9.03182 11.7585 9.35678 12.0653L11.9593 14.5228C12.1216 14.676 12.215 14.8884 12.2182 15.1116C12.2214 15.3348 12.1341 15.5497 11.9762 15.7075L7.1611 20.521C7.07361 20.6085 6.96759 20.6752 6.85087 20.7162L3.14618 22.0176C2.98255 22.0726 2.80734 22.0808 2.6401 22.0423L2.63683 22.0415C2.46891 22.0021 2.31374 21.9165 2.18998 21.7923L2.77506 21.2093L2.19149 21.7938C2.06841 21.671 1.98212 21.516 1.94258 21.3463C1.90319 21.1773 1.91177 21.0006 1.96762 20.8359L1.97046 20.8276L3.26758 17.1342C3.3086 17.0174 3.37535 16.9113 3.4629 16.8238L8.20567 12.0818ZM8.80616 13.8175L4.76394 17.859L4.02709 19.9572L6.12602 19.2198L10.207 15.1402L8.80616 13.8175Z" fill="black"/>
<path fill-rule="evenodd" clip-rule="evenodd" d="M20.0697 1.10779C19.5008 1.10779 18.9552 1.33361 18.5528 1.73568L11.9918 8.29558C11.6699 8.61741 11.669 9.13898 11.9899 9.46187L14.5116 12C14.6664 12.1558 14.8767 12.2435 15.0963 12.2439C15.3158 12.2442 15.5265 12.1571 15.6817 12.0019L22.2492 5.4332C22.2492 5.4332 23 4.57716 23 3.91611C23 3.32969 22.7319 2.9978 22.385 2.56842C22.3409 2.51377 22.2954 2.45755 22.2491 2.39902C22.0219 2.11185 21.5864 1.73568 21.5864 1.73568C21.184 1.33362 20.6384 1.10779 20.0697 1.10779ZM19.7204 2.90433L13.7421 8.88164L15.0994 10.2478L21.0811 4.26498C21.127 4.2191 21.1636 4.16449 21.1883 4.10484C21.2131 4.04497 21.2259 3.98082 21.2259 3.91614C21.2259 3.85145 21.2131 3.78733 21.1883 3.72745C21.1636 3.6678 21.1273 3.61342 21.0814 3.56754L20.4188 2.90433C20.3262 2.81188 20.2005 2.75979 20.0697 2.75979C19.9387 2.75979 19.813 2.8119 19.7204 2.90433Z" fill="black"/>
<path fill-rule="evenodd" clip-rule="evenodd" d="M3.83913 0.215879C4.16171 -0.106646 4.68467 -0.106625 5.00722 0.215927L23.7841 18.9926C24.1066 19.3152 24.1066 19.8382 23.7841 20.1608L20.161 23.7841C20.0061 23.939 19.796 24.026 19.5769 24.026C19.3578 24.026 19.1477 23.939 18.9928 23.7841L2.15646 6.94719C2.1474 6.93889 2.13848 6.93036 2.12971 6.92158C2.1211 6.91296 2.11271 6.90419 2.10456 6.89529L0.21592 5.0066C0.0610101 4.85168 -0.026012 4.64157 -0.026001 4.42249C-0.0259899 4.20342 0.0610532 3.99331 0.215979 3.83842L3.83913 0.215879ZM1.96818 4.42259L2.71482 5.16926L3.33815 4.54644C3.66085 4.224 4.18384 4.22421 4.50629 4.54691C4.82873 4.86961 4.82852 5.3926 4.50582 5.71505L3.88295 6.33742L19.5769 22.0318L22.0319 19.5767L4.4231 1.96809L1.96818 4.42259ZM3.42118 16.9788C3.62968 16.6505 4.03901 16.5121 4.404 16.6465L6.14055 17.2862C6.36635 17.3694 6.54466 17.5469 6.62884 17.7723L7.2633 19.4713C7.39887 19.8343 7.26383 20.2428 6.93859 20.4535C6.61334 20.6642 6.18535 20.6204 5.90945 20.3483L3.53844 18.0097C3.26152 17.7365 3.21268 17.3072 3.42118 16.9788Z" fill="black"/>
<path fill-rule="evenodd" clip-rule="evenodd" d="M3.83913 0.215879C4.16171 -0.106646 4.68467 -0.106625 5.00722 0.215927L23.7841 18.9926C24.1066 19.3152 24.1066 19.8382 23.7841 20.1608L20.161 23.7841C20.0061 23.939 19.796 24.026 19.5769 24.026C19.3578 24.026 19.1477 23.939 18.9928 23.7841L2.15646 6.94719C2.1474 6.93889 2.13848 6.93036 2.12971 6.92158C2.1211 6.91296 2.11271 6.90419 2.10456 6.89529L0.21592 5.0066C0.0610101 4.85168 -0.026012 4.64157 -0.026001 4.42249C-0.0259899 4.20342 0.0610532 3.99331 0.215979 3.83842L3.83913 0.215879ZM1.96818 4.42259L2.71482 5.16926L3.33815 4.54644C3.66085 4.224 4.18384 4.22421 4.50629 4.54691C4.82873 4.86961 4.82852 5.3926 4.50582 5.71505L3.88295 6.33742L19.5769 22.0318L22.0319 19.5767L4.4231 1.96809L1.96818 4.42259Z" fill="black"/>
<path d="M7.13073 5.63796C7.45327 5.96056 7.45323 6.48356 7.13063 6.8061L5.15644 8.77996C4.83384 9.1025 4.31085 9.10246 3.9883 8.77986C3.66576 8.45726 3.6658 7.93427 3.9884 7.61172L5.96259 5.63786C6.28519 5.31532 6.80818 5.31536 7.13073 5.63796Z" fill="black"/>
<path d="M8.22218 8.26295C8.54472 8.58555 8.54466 9.10855 8.22206 9.43109L7.01485 10.638C6.69224 10.9606 6.16925 10.9605 5.84671 10.6379C5.52417 10.3153 5.52422 9.79233 5.84683 9.46979L7.05404 8.26283C7.37664 7.94029 7.89964 7.94034 8.22218 8.26295Z" fill="black"/>
<path d="M10.0808 10.1212C10.4032 10.4439 10.403 10.9669 10.0803 11.2894L8.8723 12.4963C8.54959 12.8188 8.02659 12.8185 7.70416 12.4958C7.38172 12.1731 7.38195 11.6501 7.70466 11.3277L8.91266 10.1207C9.23537 9.79828 9.75837 9.79851 10.0808 10.1212Z" fill="black"/>
<path d="M12.6946 11.2024C13.0171 11.525 13.017 12.048 12.6944 12.3705L10.7203 14.3444C10.5654 14.4992 10.3553 14.5862 10.1362 14.5862C9.80211 14.5862 9.50018 14.3849 9.37235 14.0762C9.24453 13.7675 9.31528 13.4122 9.5516 13.176L11.5264 11.2023C11.849 10.8798 12.3721 10.8798 12.6946 11.2024Z" fill="black"/>
<path d="M13.7967 13.8365C14.1192 14.1591 14.1192 14.6821 13.7966 15.0046L12.5886 16.2124C12.266 16.5349 11.743 16.5349 11.4204 16.2122C11.0979 15.8896 11.0979 15.3667 11.4205 15.0441L12.6285 13.8364C12.9512 13.5138 13.4741 13.5139 13.7967 13.8365Z" fill="black"/>
<path d="M15.6551 15.6945C15.9776 16.0172 15.9776 16.5401 15.655 16.8627L14.447 18.0704C14.1244 18.393 13.6014 18.3929 13.2788 18.0703C12.9563 17.7477 12.9563 17.2247 13.2789 16.9022L14.4869 15.6944C14.8096 15.3719 15.3325 15.3719 15.6551 15.6945Z" fill="black"/>
<path d="M18.2796 16.7857C18.6022 17.1083 18.6023 17.6313 18.2797 17.9539L16.3055 19.9284C15.9829 20.251 15.4599 20.2511 15.1373 19.9285C14.8147 19.606 14.8147 19.083 15.1372 18.7604L17.1115 16.7858C17.434 16.4632 17.957 16.4632 18.2796 16.7857Z" fill="black"/>
<path d="M19.3712 19.4108C19.6937 19.7334 19.6937 20.2564 19.3711 20.5789L18.1631 21.7867C17.8404 22.1092 17.3175 22.1092 16.9949 21.7866C16.6724 21.464 16.6724 20.941 16.995 20.6184L18.203 19.4107C18.5256 19.0881 19.0486 19.0882 19.3712 19.4108Z" fill="black"/>
</svg>
