<svg width="30" height="30" viewBox="0 0 30 30" fill="none" xmlns="http://www.w3.org/2000/svg">
<path fill-rule="evenodd" clip-rule="evenodd" d="M14.2403 18.9042L8.48414 24.6584L8.22137 24.9211L3.60389 26.5432C3.58068 26.551 3.55572 26.5522 3.53185 26.5467C3.50798 26.5411 3.48614 26.529 3.46881 26.5116C3.45148 26.4943 3.43934 26.4725 3.43377 26.4486C3.4282 26.4247 3.42941 26.3998 3.43728 26.3766L5.05864 21.7599L10.9871 15.8324L14.2403 18.9042ZM15.7198 11.0996L23.9208 2.89998C24.2302 2.59085 24.6497 2.41721 25.0871 2.41721C25.5245 2.41721 25.9439 2.59085 26.2533 2.89998L27.0816 3.72908C27.2348 3.88218 27.3564 4.06397 27.4393 4.26405C27.5222 4.46412 27.5649 4.67857 27.5649 4.89515C27.5649 5.11172 27.5222 5.32618 27.4393 5.52625C27.3564 5.72633 27.2348 5.90812 27.0816 6.06122L18.872 14.2723L15.7198 11.0996ZM4.37982 25.9635L3.80192 25.3857L4.37982 25.9635Z" stroke="black" stroke-width="1.652" stroke-linecap="round" stroke-linejoin="round"/>
<path fill-rule="evenodd" clip-rule="evenodd" d="M5.14811 21.777L7.3188 22.5766L8.11187 24.7003L5.14811 21.777ZM29 24.4709L24.4711 29L1 5.52817L5.52894 1L29 24.4709ZM3.39252 7.92218L4.90248 6.41343L3.39252 7.92218Z" stroke="black" stroke-width="1.652" stroke-linecap="round" stroke-linejoin="round"/>
<path fill-rule="evenodd" clip-rule="evenodd" d="M5.71552 10.2448L8.18325 7.77748L5.71552 10.2448V10.2448ZM8.03854 12.5674L9.54755 11.0587L8.03854 12.5674ZM10.3606 14.89L11.8706 13.3813L10.3606 14.89ZM15.0057 19.5353L16.5157 18.0256L15.0057 19.5353ZM17.3287 21.8579L18.8387 20.3482L17.3287 21.8579ZM19.6517 24.1805L22.1195 21.7123L19.6517 24.1805ZM12.6693 17.2003L15.138 14.733L12.6703 17.2003H12.6693ZM21.9738 26.5032L23.4838 24.9935L21.9738 26.5032ZM26.4856 6.48956L23.4761 3.48062L26.4846 6.48861L26.4856 6.48956Z" stroke="black" stroke-width="1.652" stroke-linecap="round" stroke-linejoin="round"/>
</svg>
