<svg width="24" height="24" viewBox="0 0 24 24" fill="none" xmlns="http://www.w3.org/2000/svg">
<path fill-rule="evenodd" clip-rule="evenodd" d="M11.3922 15.1234L6.78731 19.7267L6.57709 19.9369L2.88312 21.2346C2.86454 21.2408 2.84458 21.2418 2.82548 21.2374C2.80638 21.2329 2.78892 21.2232 2.77504 21.2093C2.76118 21.1954 2.75147 21.178 2.74701 21.1589C2.74256 21.1398 2.74353 21.1198 2.74983 21.1013L4.04691 17.4079L8.78968 12.6659L11.3922 15.1234ZM12.5758 8.87969L19.1366 2.31999C19.3842 2.07269 19.7198 1.93378 20.0697 1.93378C20.4195 1.93378 20.7551 2.07269 21.0026 2.31999L21.6653 2.98327C21.7878 3.10575 21.8851 3.25118 21.9514 3.41125C22.0178 3.5713 22.0519 3.74286 22.0519 3.91613C22.0519 4.08938 22.0178 4.26095 21.9514 4.42101C21.8851 4.58107 21.7878 4.7265 21.6653 4.84898L15.0976 11.4178L12.5758 8.87969ZM3.50385 20.7708L3.04153 20.3086L3.50385 20.7708Z" stroke="black" stroke-width="1.652" stroke-linecap="round" stroke-linejoin="round"/>
<path fill-rule="evenodd" clip-rule="evenodd" d="M4.11848 17.4216L5.85503 18.0613L6.48948 19.7602L4.11848 17.4216ZM23.2 19.5767L19.5769 23.2L0.799988 4.42252L4.42314 0.799988L23.2 19.5767ZM2.714 6.33773L3.92197 5.13073L2.714 6.33773Z" stroke="black" stroke-width="1.652" stroke-linecap="round" stroke-linejoin="round"/>
<path fill-rule="evenodd" clip-rule="evenodd" d="M4.57245 8.19583L6.54663 6.22197L4.57245 8.19583ZM6.43087 10.0539L7.63807 8.84695L6.43087 10.0539ZM8.28851 11.912L9.49651 10.705L8.28851 11.912ZM12.0046 15.6282L13.2126 14.4205L12.0046 15.6282ZM13.863 17.4863L15.071 16.2785L13.863 17.4863ZM15.7214 19.3444L17.6956 17.3698L15.7214 19.3444ZM10.1355 13.7602L12.1104 11.7864L10.1363 13.7602H10.1355ZM17.5791 21.2025L18.7871 19.9948L17.5791 21.2025ZM21.1885 5.19164L18.781 2.78448L21.1878 5.19088L21.1885 5.19164Z" stroke="black" stroke-width="1.652" stroke-linecap="round" stroke-linejoin="round"/>
</svg>
