<svg width="24" height="24" viewBox="0 0 24 24" fill="none" xmlns="http://www.w3.org/2000/svg">
<path fill-rule="evenodd" clip-rule="evenodd" d="M0.849976 2.50224C0.849976 1.1342 1.97671 0.0499878 3.33571 0.0499878H19.8642C21.2232 0.0499878 22.35 1.13419 22.35 2.50224V21.4977C22.35 22.8657 21.2232 23.95 19.8642 23.95H3.33571C1.97671 23.95 0.849976 22.8657 0.849976 21.4977V2.50224ZM3.33571 1.54999C2.77746 1.54999 2.34998 1.99003 2.34998 2.50224V21.4977C2.34998 22.0099 2.77747 22.45 3.33571 22.45H19.8642C20.4225 22.45 20.85 22.0099 20.85 21.4977V2.50224C20.85 1.99004 20.4225 1.54999 19.8642 1.54999H3.33571Z" fill="black"/>
<path fill-rule="evenodd" clip-rule="evenodd" d="M2.17198 4.18796H11.4026V5.18796H2.17198V4.18796ZM1.81702 7.32181H11.0476V8.32181H1.81702V7.32181ZM1.81702 10.8038H8.20797V11.8038H1.81702V10.8038ZM1.81702 13.5895H16.7287V14.5895H1.81702V13.5895ZM1.81702 16.3744H13.1783V17.3744H1.81702V16.3744ZM1.81702 19.1602H16.7287V20.1602H1.81702V19.1602Z" fill="black"/>
<path d="M17.2806 7.82265C18.8494 7.82265 20.1212 6.57543 20.1212 5.0369C20.1212 3.49838 18.8494 2.25116 17.2806 2.25116C15.7118 2.25116 14.4401 3.49838 14.4401 5.0369C14.4401 6.57543 15.7118 7.82265 17.2806 7.82265Z" fill="black"/>
<path d="M15.8599 8.9581V12.0009L17.2806 10.6075L18.7004 12.0009V8.9581C17.7857 9.30026 16.7746 9.30026 15.8599 8.9581Z" fill="black"/>
</svg>
