<svg width="24" height="24" viewBox="0 0 24 24" fill="none" xmlns="http://www.w3.org/2000/svg">
<path d="M13.417 6.73998H11.862C11.862 6.48398 11.822 6.40398 11.714 6.18998C11.219 5.26298 11.219 4.07198 11.714 3.14498C11.822 2.93098 11.862 2.84998 11.862 2.59298C11.862 2.33498 11.822 2.25598 11.714 2.04098C11.466 1.59098 11.337 1.05998 11.343 0.518982H12.899C12.899 0.775982 12.939 0.855982 13.045 1.06998C13.193 1.36598 13.417 1.81298 13.417 2.59298C13.423 3.13398 13.293 3.66498 13.045 4.11598C12.938 4.33098 12.899 4.41098 12.899 4.66798C12.899 4.92398 12.939 5.00398 13.045 5.21798C13.293 5.66798 13.423 6.19998 13.417 6.74098V6.73998Z" fill="black"/>
<path d="M9.26904 6.73998H7.71404C7.71404 6.48398 7.67404 6.40398 7.56604 6.18998C7.31804 5.73998 7.18904 5.20898 7.19604 4.66798C7.19604 3.88798 7.41904 3.44098 7.56604 3.14498C7.67404 2.93098 7.71404 2.84998 7.71404 2.59298C7.71404 2.33498 7.67404 2.25598 7.56604 2.04098C7.31804 1.59098 7.18904 1.05998 7.19604 0.518982H8.75004C8.75004 0.775982 8.79004 0.855982 8.89704 1.06998C9.04404 1.36598 9.26704 1.81298 9.26704 2.59298C9.27404 3.13398 9.14504 3.66498 8.89704 4.11598C8.79004 4.33098 8.75004 4.41098 8.75004 4.66798C8.75004 4.92398 8.79004 5.00398 8.89704 5.21798C9.04404 5.51398 9.26704 5.96098 9.26704 6.74098L9.26904 6.73998Z" fill="black"/>
<path fill-rule="evenodd" clip-rule="evenodd" d="M18.556 7.26001C22.706 7.26001 22.701 15.556 18.556 15.556V16.027C18.556 20.357 15.083 23.852 10.814 23.852C6.413 23.852 3 20.298 3 16.027V8.26001C3 7.70801 3.448 7.26001 4 7.26001H18.556ZM7.938 12.401C6.751 13.713 6.956 15.911 8.429 17.385C9.739 18.695 11.622 19.001 12.946 18.219C12.629 17.869 12.577 17.537 12.541 17.291C12.51 17.074 12.492 16.955 12.319 16.782C12.147 16.609 12.028 16.592 11.811 16.56C11.549 16.522 11.191 16.47 10.815 16.094C10.439 15.718 10.387 15.36 10.349 15.098C10.317 14.882 10.299 14.762 10.127 14.59C9.955 14.417 9.836 14.4 9.619 14.368C9.357 14.33 8.999 14.278 8.623 13.902C8.247 13.526 8.195 13.168 8.157 12.906C8.125 12.691 8.107 12.572 7.938 12.401ZM13.127 12.687C11.817 11.377 9.934 11.071 8.609 11.853C8.927 12.203 8.979 12.535 9.014 12.781C9.046 12.998 9.064 13.117 9.235 13.289C9.408 13.462 9.527 13.479 9.744 13.511C10.006 13.549 10.364 13.601 10.74 13.977C11.116 14.353 11.168 14.711 11.206 14.973C11.238 15.19 11.256 15.309 11.427 15.482C11.6 15.654 11.719 15.672 11.937 15.703C12.197 15.741 12.557 15.793 12.932 16.169C13.308 16.545 13.36 16.904 13.398 17.165C13.43 17.381 13.448 17.5 13.618 17.671C14.804 16.359 14.6 14.161 13.127 12.687ZM18.556 8.56101V14.251C19.663 14.251 20.548 13.118 20.548 11.724V11.088C20.548 9.69501 19.663 8.56101 18.556 8.56101Z" fill="black"/>
</svg>
