<svg width="24" height="24" viewBox="0 0 24 24" fill="none" xmlns="http://www.w3.org/2000/svg">
<path d="M23.679 7.069L12.279 1.069C12.104 0.977 11.896 0.977 11.721 1.069L0.321 7.069C0.123 7.172 0 7.377 0 7.599V10C0 10.21 0.11 10.405 0.29 10.514C0.47 10.622 0.693 10.629 0.879 10.531L12 4.678L23.121 10.53C23.307 10.628 23.531 10.621 23.711 10.513C23.89 10.404 24 10.209 24 9.999V7.6C24 7.377 23.877 7.173 23.679 7.07V7.069Z" fill="black"/>
<path d="M11.886 5.57098L21.486 10.623V22.737C21.485 23.035 21.268 23.282 20.983 23.329L20.886 23.337H2.88601C2.58801 23.337 2.34101 23.119 2.29401 22.835L2.28601 22.737V10.623L11.886 5.57098ZM15.633 15.071L13.65 15.642C13.564 15.662 13.49 15.721 13.446 15.802C13.402 15.883 13.391 15.981 13.416 16.071C13.44 16.164 13.497 16.243 13.576 16.29C13.654 16.337 13.746 16.348 13.833 16.32L15.8 15.75C15.946 15.688 16.109 15.695 16.25 15.767C16.303 15.824 16.333 15.901 16.333 15.981C16.333 15.999 16.316 16.178 15.816 16.499L12.333 19.018C11.891 19.332 11.327 19.373 10.85 19.125L7.78301 17.875H7.00001V18.571H7.60001L10.6 19.786C10.9 19.925 11.223 19.998 11.55 20C11.97 20.001 12.38 19.857 12.717 19.59L16.167 17.107C16.367 16.982 17 16.589 17 15.981C17.006 15.68 16.876 15.393 16.65 15.213C16.483 15.053 16.15 14.91 15.633 15.07V15.071ZM9.81701 15.017H7.00001V15.713H9.68301L12 16.446C12.175 16.506 12.277 16.701 12.233 16.892C12.184 17.077 12.008 17.188 11.833 17.142L10.133 16.606C10.049 16.573 9.95601 16.579 9.87701 16.623C9.79701 16.668 9.73901 16.746 9.71701 16.839C9.66201 17.026 9.75901 17.225 9.93301 17.285L11.65 17.821C11.73 17.856 11.814 17.874 11.9 17.875C12.355 17.874 12.753 17.543 12.867 17.071C12.937 16.798 12.904 16.507 12.772 16.261C12.64 16.016 12.422 15.838 12.167 15.767L9.81701 15.017ZM12.5 9.44898C11.99 9.02898 11.406 8.90298 10.896 9.09798C10.386 9.29298 10 9.84798 10 10.51C10 11.776 11.25 12.838 12.417 13.286H12.583C13.75 12.838 15 11.776 15 10.51C15 9.84798 14.656 9.31198 14.104 9.09798C13.552 8.88398 13.01 9.02998 12.5 9.44798V9.44898Z" fill="black"/>
</svg>
