<svg width="24" height="24" viewBox="0 0 24 24" fill="none" xmlns="http://www.w3.org/2000/svg">
<path d="M12.2525 5.05289C15.0429 5.05289 17.3051 7.33193 17.3051 10.1432V23.6147C17.3051 23.8276 17.1339 24 16.9224 24H7.5826C7.37106 24 7.19995 23.8276 7.19995 23.6147V10.1432C7.19995 7.33193 9.46219 5.05289 12.2525 5.05289Z" fill="black"/>
<path opacity="0.5" d="M16.674 0.27311C16.62 0.498791 16.4907 0.697526 16.3081 0.835632C16.1242 0.9286 15.9868 0.787798 15.8043 0.694831C15.4384 0.694831 15.2545 0.787798 14.9796 0.787798C14.7048 0.787798 13.3096 0.933984 13.1944 0.946112V1.68042H13.788C13.8148 1.68042 13.8357 1.70265 13.8364 1.7296V2.33726H14.3848C14.4091 2.33658 14.432 2.34602 14.4495 2.36353C14.467 2.38104 14.4764 2.40462 14.4764 2.42955V4.95853C14.4764 5.0104 14.436 5.05285 14.3848 5.05285H10.4485C10.4243 5.05285 10.4013 5.04274 10.3839 5.02522C10.367 5.00703 10.3569 4.98346 10.3583 4.95786V2.42887C10.3583 2.37767 10.3987 2.3359 10.4485 2.3359H11.0905V1.72893C11.0905 1.7013 11.1121 1.67907 11.139 1.67907H11.6416V0.504854C11.6416 0.488686 11.6504 0.474539 11.6645 0.467129H11.6416C11.6416 0.467129 10.9093 0.467129 10.9093 0.374835V0.178795C10.9093 0.129617 10.9295 0.0824592 10.9639 0.0487754C10.9989 0.0150916 11.046 -0.00242402 11.0939 0.00027068C11.0939 0.00027068 12.0088 0.0945856 12.4662 0.0945856C12.9236 0.0945856 14.8469 0.00027068 15.1204 0.00027068H16.0367C16.0367 0.00027068 16.6733 0.178795 16.6733 0.27311H16.674Z" fill="black"/>
<path opacity="0.5" d="M14.2703 9.47415H10.2349C9.25641 9.47415 8.46313 10.2674 8.46313 11.2459V20.3338C8.46313 21.3123 9.25641 22.1056 10.2349 22.1056H14.2703C15.2487 22.1056 16.042 21.3123 16.042 20.3338V11.2459C16.042 10.2674 15.2487 9.47415 14.2703 9.47415Z" fill="white"/>
</svg>
