<svg viewBox="0 0 30 30" fill="currentColor" 
  xmlns="http://www.w3.org/2000/svg">
  <path d="M0.820715 4.96089L25.038 29.1798C26.1523 30.2941 27.9848 30.2695 29.1268 29.1274C30.2704 27.9838 30.2935 26.1528 29.1792 25.0385L4.96198 0.819595C3.84768 -0.293175 2.01516 -0.270056 0.873116 0.871997C-0.270472 2.01559 -0.293589 3.84658 0.820715 4.96089Z" />
  <path d="M4.96141 29.1793L29.1799 4.96201C30.2942 3.84771 30.2695 2.01519 29.1275 0.873147C27.9839 -0.270441 26.1529 -0.293559 25.0387 0.820746L0.820197 25.038C-0.294092 26.1523 -0.269433 27.9848 0.872598 29.1269C2.01617 30.2704 3.84712 30.2936 4.96141 29.1793Z" />
</svg>
