<svg width="24" height="24" viewBox="0 0 24 24" fill="none" xmlns="http://www.w3.org/2000/svg">
<path d="M0.656597 3.96871L20.0304 23.3438C20.9218 24.2353 22.3878 24.2156 23.3015 23.3019C24.2163 22.387 24.2349 20.9222 23.3434 20.0308L3.96961 0.655676C3.07817 -0.23454 1.61215 -0.216045 0.698518 0.697597C-0.216353 1.61247 -0.234847 3.07726 0.656597 3.96871Z" fill="black"/>
<path d="M3.9691 23.3434L23.3438 3.96961C24.2353 3.07817 24.2156 1.61215 23.3019 0.698518C22.3871 -0.216353 20.9223 -0.234847 20.0309 0.656597L0.656134 20.0304C-0.235298 20.9218 -0.215571 22.3878 0.698054 23.3015C1.61291 24.2163 3.07767 24.2349 3.9691 23.3434Z" fill="black"/>
</svg>
