<svg width="30" height="30" viewBox="0 0 30 30" fill="none" xmlns="http://www.w3.org/2000/svg">
<g clip-path="url(#clip0)">
<path d="M0.820746 4.96089L25.038 29.1798C26.1523 30.2941 27.9848 30.2695 29.1269 29.1274C30.2704 27.9838 30.2936 26.1528 29.1793 25.0385L4.96201 0.819595C3.84771 -0.293175 2.01519 -0.270056 0.873147 0.871997C-0.270441 2.01559 -0.293559 3.84658 0.820746 4.96089Z" fill="black"/>
<path d="M4.96138 29.1793L29.1798 4.96201C30.2941 3.84771 30.2695 2.01519 29.1274 0.873147C27.9839 -0.270441 26.1529 -0.293559 25.0386 0.820746L0.820167 25.038C-0.294123 26.1523 -0.269464 27.9848 0.872567 29.1269C2.01614 30.2704 3.84709 30.2936 4.96138 29.1793Z" fill="black"/>
</g>
<defs>
<clipPath id="clip0">
<rect width="30" height="30" fill="white"/>
</clipPath>
</defs>
</svg>
