<svg width="24" height="24" viewBox="0 0 24 24" fill="none" xmlns="http://www.w3.org/2000/svg">
<path d="M21.168 1.905C20.298 1.143 15.3165 0 15.3165 0C15.3165 0.762 14.5365 2.286 12 2.286C9.46496 2.286 8.68424 0.762 8.68424 0C8.68424 0 3.702 1.143 2.832 1.905C2.15325 2.49975 0.636 6.1065 0 7.665L0.01125 7.66875L3.924 9.93896L4.78275 8.00024V23.619C4.78275 23.829 4.95825 24 5.17275 24H18.8273C19.0418 24 19.2173 23.8282 19.2173 23.619V8.00024L20.0753 9.93896L24 7.665C23.3647 6.1065 21.8475 2.49975 21.168 1.905Z" fill="black"/>
</svg>
