<svg width="24" height="24" viewBox="0 0 24 24" fill="none" xmlns="http://www.w3.org/2000/svg">
<path d="M21.5425 13.6984L23.6965 14.8886C23.9425 15.0246 24.0567 15.3057 23.9725 15.5654C23.4129 17.2899 22.4576 18.848 21.2082 20.1421C21.1146 20.239 20.9895 20.3026 20.8533 20.3224C20.717 20.3422 20.5778 20.317 20.4585 20.2511L18.306 19.061C17.4004 19.8038 16.3592 20.3802 15.2349 20.7609V23.1406C15.2349 23.2726 15.1879 23.4007 15.1018 23.5038C15.0157 23.6068 14.8954 23.6787 14.7609 23.7077C12.994 24.0875 11.0964 24.1071 9.24032 23.708C8.96288 23.6483 8.76504 23.413 8.76504 23.1408V20.7609C7.64074 20.3802 6.59956 19.8039 5.69395 19.061L3.5415 20.2511C3.42215 20.317 3.28293 20.3422 3.1467 20.3224C3.01046 20.3026 2.88531 20.239 2.79181 20.1421C1.54242 18.848 0.58705 17.2899 0.0275071 15.5654C-0.0567528 15.3057 0.0574302 15.0246 0.303437 14.8886L2.45755 13.6984C2.24119 12.5756 2.24119 11.4244 2.45755 10.3017L0.303487 9.11136C0.0574809 8.97544 -0.0567023 8.6944 0.0275576 8.43472C0.5871 6.7101 1.54242 5.15203 2.79186 3.85797C2.88536 3.76107 3.01051 3.6975 3.14674 3.67768C3.28298 3.65786 3.4222 3.68298 3.54155 3.7489L5.694 4.93898C6.59962 4.19617 7.6408 3.61989 8.76512 3.23915V0.859336C8.76512 0.727347 8.81208 0.59929 8.89816 0.496237C8.98432 0.393183 9.10456 0.321272 9.23912 0.292336C11.006 -0.0875023 12.9036 -0.107147 14.7597 0.291997C15.0371 0.351658 15.235 0.586964 15.235 0.85924V3.2391C16.3593 3.61982 17.4004 4.1961 18.3061 4.93894L20.4585 3.74886C20.5778 3.68293 20.717 3.65781 20.8533 3.67763C20.9895 3.69745 21.1147 3.76102 21.2082 3.85792C22.4576 5.15198 23.413 6.71005 23.9725 8.43464C24.0567 8.69432 23.9426 8.97536 23.6966 9.11136L21.5425 10.3016C21.7588 11.4244 21.7588 12.5756 21.5425 13.6984ZM16.0437 12C16.0437 9.86552 14.2297 8.12904 12 8.12904C9.77032 8.12904 7.95633 9.86552 7.95633 12C7.95633 14.1345 9.77032 15.871 12 15.871C14.2297 15.871 16.0437 14.1345 16.0437 12Z" fill="black"/>
</svg>
