<svg width="30" height="30" viewBox="0 0 30 30" fill="none" xmlns="http://www.w3.org/2000/svg">
<path d="M26.9281 17.123L29.6206 18.6108C29.9281 18.7807 30.0709 19.1321 29.9656 19.4567C29.2661 21.6124 28.072 23.56 26.5102 25.1776C26.3933 25.2987 26.2369 25.3782 26.0666 25.403C25.8963 25.4277 25.7222 25.3963 25.5731 25.3139L22.8825 23.8263C21.7505 24.7548 20.449 25.4752 19.0436 25.9511V28.9258C19.0436 29.0908 18.9849 29.2509 18.8773 29.3797C18.7696 29.5085 18.6193 29.5984 18.4511 29.6346C16.2425 30.1094 13.8705 30.1339 11.5504 29.635C11.2036 29.5604 10.9563 29.2663 10.9563 28.926V25.9511C9.55092 25.4752 8.24945 24.7549 7.11744 23.8263L4.42688 25.3139C4.27769 25.3963 4.10366 25.4277 3.93337 25.403C3.76307 25.3782 3.60664 25.2987 3.48976 25.1776C1.92802 23.56 0.733812 21.6124 0.0343839 19.4567C-0.070941 19.1321 0.0717878 18.7808 0.379296 18.6108L3.07194 17.123C2.80149 15.7195 2.80149 14.2805 3.07194 12.8771L0.379359 11.3892C0.0718511 11.2193 -0.0708779 10.868 0.034447 10.5434C0.733875 8.38762 1.92802 6.44004 3.48982 4.82246C3.6067 4.70134 3.76314 4.62187 3.93343 4.5971C4.10372 4.57232 4.27775 4.60372 4.42694 4.68613L7.1175 6.17373C8.24953 5.24521 9.551 4.52486 10.9564 4.04894V1.07417C10.9564 0.909184 11.0151 0.749113 11.1227 0.620296C11.2304 0.491479 11.3807 0.40159 11.5489 0.36542C13.7575 -0.109378 16.1295 -0.133934 18.4496 0.364996C18.7964 0.439573 19.0437 0.733705 19.0437 1.07405V4.04888C20.4491 4.52477 21.7505 5.24513 22.8826 6.17367L25.5731 4.68607C25.7223 4.60366 25.8963 4.57226 26.0666 4.59704C26.2369 4.62181 26.3934 4.70128 26.5102 4.8224C28.072 6.43998 29.2662 8.38756 29.9656 10.5433C30.0709 10.8679 29.9282 11.2192 29.6207 11.3892L26.9281 12.877C27.1985 14.2805 27.1985 15.7195 26.9281 17.123ZM20.0546 15C20.0546 12.3319 17.7871 10.1613 15 10.1613C12.2129 10.1613 9.94541 12.3319 9.94541 15C9.94541 17.6681 12.2129 19.8387 15 19.8387C17.7871 19.8387 20.0546 17.6681 20.0546 15Z" fill="black"/>
</svg>
