<svg width="24" height="24" viewBox="0 0 24 24" fill="none" xmlns="http://www.w3.org/2000/svg">
<path d="M12.5 7.25C13.9497 7.25 15.125 6.07475 15.125 4.625C15.125 3.17525 13.9497 2 12.5 2C11.0503 2 9.875 3.17525 9.875 4.625C9.875 6.07475 11.0503 7.25 12.5 7.25Z" fill="black"/>
<path d="M15.125 8.125C16.092 8.125 16.875 8.908 16.875 9.875V10.75H8.125V9.875C8.125 8.908 8.908 8.125 9.875 8.125H15.125Z" fill="black"/>
<path d="M6.375 19.5C7.82475 19.5 9 18.3247 9 16.875C9 15.4253 7.82475 14.25 6.375 14.25C4.92525 14.25 3.75 15.4253 3.75 16.875C3.75 18.3247 4.92525 19.5 6.375 19.5Z" fill="black"/>
<path d="M9 20.375C9.967 20.375 10.75 21.158 10.75 22.125V23H2V22.125C2 21.159 2.784 20.375 3.75 20.375H9ZM15.918 6.542C17.551 7.642 18.625 9.508 18.625 11.625C18.625 12.081 18.571 12.525 18.477 12.953C18.527 12.95 18.574 12.938 18.625 12.938C19.185 12.938 19.717 13.058 20.2 13.271C20.313 12.741 20.375 12.19 20.375 11.625C20.375 8.705 18.782 6.161 16.42 4.802C16.391 5.433 16.211 6.022 15.918 6.542ZM6.375 12.938C6.426 12.938 6.473 12.95 6.524 12.953C6.429 12.525 6.375 12.082 6.375 11.625C6.375 9.508 7.449 7.641 9.082 6.542C8.788 6.022 8.609 5.433 8.581 4.802C6.219 6.16 4.625 8.703 4.625 11.624C4.625 12.189 4.686 12.739 4.8 13.27C5.283 13.058 5.814 12.937 6.375 12.937V12.938ZM14.733 17.324C14.041 17.595 13.289 17.75 12.5 17.75C11.711 17.75 10.96 17.595 10.267 17.324C10.197 17.926 10.003 18.488 9.693 18.975C10.565 19.309 11.51 19.5 12.5 19.5C13.49 19.5 14.434 19.31 15.307 18.975C14.997 18.488 14.802 17.926 14.733 17.324Z" fill="black"/>
<path d="M18.625 19.5C20.0747 19.5 21.25 18.3247 21.25 16.875C21.25 15.4253 20.0747 14.25 18.625 14.25C17.1753 14.25 16 15.4253 16 16.875C16 18.3247 17.1753 19.5 18.625 19.5Z" fill="black"/>
<path d="M21.25 20.375C22.216 20.375 23 21.158 23 22.125V23H14.25V22.125C14.25 21.159 15.033 20.375 16 20.375H21.25Z" fill="black"/>
</svg>
