<svg width="30" height="30" viewBox="0 0 30 30" fill="none" xmlns="http://www.w3.org/2000/svg">
<path d="M26.4 5C27.3548 5 28.2705 5.37928 28.9456 6.05442C29.6207 6.72955 30 7.64522 30 8.6V20.6C30 21.5548 29.6207 22.4705 28.9456 23.1456C28.2705 23.8207 27.3548 24.2 26.4 24.2H3.6C2.64522 24.2 1.72955 23.8207 1.05442 23.1456C0.379285 22.4705 0 21.5548 0 20.6L0 8.6C0 7.64522 0.379285 6.72955 1.05442 6.05442C1.72955 5.37928 2.64522 5 3.6 5H26.4ZM9.972 15.3416L4.1184 21.7952C4.01475 21.9106 3.95985 22.0618 3.96522 22.2168C3.97059 22.3719 4.03581 22.5188 4.1472 22.6268C4.2014 22.6793 4.26565 22.7203 4.33609 22.7474C4.40653 22.7745 4.48171 22.7871 4.55713 22.7844C4.63255 22.7817 4.70665 22.7638 4.77498 22.7318C4.84332 22.6997 4.90448 22.6542 4.9548 22.598L10.8084 16.1408C10.9018 16.0241 10.9482 15.8768 10.9387 15.7276C10.9292 15.5785 10.8643 15.4382 10.7568 15.3344C10.6512 15.2323 10.5098 15.1758 10.3629 15.1772C10.2161 15.1785 10.0757 15.2376 9.972 15.3416ZM18.9552 15.3116C18.844 15.4198 18.779 15.5668 18.7738 15.7218C18.7687 15.8769 18.8238 16.0279 18.9276 16.1432L24.7788 22.598C24.9948 22.8356 25.3548 22.8488 25.5864 22.6268C25.6978 22.5188 25.763 22.3719 25.7684 22.2168C25.7737 22.0618 25.7188 21.9106 25.6152 21.7952L19.7628 15.3416C19.7126 15.2853 19.6515 15.2397 19.5832 15.2076C19.5149 15.1754 19.4408 15.1574 19.3654 15.1546C19.29 15.1518 19.2148 15.1643 19.1443 15.1912C19.0738 15.2182 19.0095 15.2592 18.9552 15.3116ZM25.2072 6.8852L15.6552 14.342C15.5246 14.4402 15.3656 14.4934 15.2022 14.4934C15.0388 14.4934 14.8798 14.4402 14.7492 14.342L5.2032 6.884C5.14379 6.8372 5.07551 6.8029 5.00249 6.78318C4.92947 6.76347 4.85322 6.75874 4.77832 6.76928C4.70342 6.77982 4.63143 6.80541 4.56669 6.84451C4.50195 6.88361 4.44579 6.93542 4.4016 6.9968C4.30991 7.12185 4.27019 7.27754 4.29077 7.43123C4.31135 7.58493 4.39064 7.72468 4.512 7.8212L14.0604 15.278C14.7396 15.794 15.666 15.794 16.3452 15.278L25.8972 7.8212C26.0184 7.72451 26.0974 7.58467 26.1178 7.43099C26.1381 7.2773 26.0982 7.1217 26.0064 6.9968C25.9622 6.93559 25.9061 6.88394 25.8415 6.84495C25.7768 6.80596 25.705 6.78043 25.6302 6.7699C25.5555 6.75936 25.4794 6.76404 25.4065 6.78365C25.3336 6.80325 25.2654 6.83739 25.206 6.884L25.2072 6.8852Z" fill="black"/>
</svg>
