<svg width="24" height="24" viewBox="0 0 24 24" fill="none" xmlns="http://www.w3.org/2000/svg">
<path d="M21.12 4C21.8838 4 22.6164 4.30342 23.1565 4.84354C23.6966 5.38364 24 6.11618 24 6.88V16.48C24 17.2438 23.6966 17.9764 23.1565 18.5165C22.6164 19.0566 21.8838 19.36 21.12 19.36H2.88C2.11618 19.36 1.38364 19.0566 0.843536 18.5165C0.303428 17.9764 0 17.2438 0 16.48V6.88C0 6.11618 0.303428 5.38364 0.843536 4.84354C1.38364 4.30342 2.11618 4 2.88 4H21.12ZM7.9776 12.2733L3.29472 17.4362C3.2118 17.5285 3.16788 17.6494 3.17218 17.7734C3.17647 17.8975 3.22865 18.015 3.31776 18.1014C3.36112 18.1434 3.41252 18.1762 3.46887 18.1979C3.52522 18.2196 3.58537 18.2297 3.6457 18.2275C3.70604 18.2254 3.76532 18.211 3.81998 18.1854C3.87466 18.1598 3.92358 18.1234 3.96384 18.0784L8.64672 12.9126C8.72144 12.8193 8.75856 12.7014 8.75096 12.5821C8.74336 12.4628 8.69144 12.3506 8.60544 12.2675C8.52096 12.1858 8.40784 12.1406 8.29032 12.1418C8.17288 12.1428 8.06056 12.1901 7.9776 12.2733ZM15.1642 12.2493C15.0752 12.3358 15.0232 12.4534 15.019 12.5774C15.015 12.7015 15.059 12.8223 15.1421 12.9146L19.823 18.0784C19.9958 18.2685 20.2838 18.279 20.4691 18.1014C20.5582 18.015 20.6104 17.8975 20.6147 17.7734C20.619 17.6494 20.575 17.5285 20.4922 17.4362L15.8102 12.2733C15.7701 12.2282 15.7212 12.1918 15.6666 12.1661C15.6119 12.1403 15.5526 12.1259 15.4923 12.1237C15.432 12.1214 15.3718 12.1314 15.3154 12.153C15.259 12.1746 15.2076 12.2074 15.1642 12.2493ZM20.1658 5.50816L12.5242 11.4736C12.4197 11.5522 12.2925 11.5947 12.1618 11.5947C12.031 11.5947 11.9038 11.5522 11.7994 11.4736L4.16256 5.5072C4.11503 5.46976 4.06041 5.44232 4.00199 5.42654C3.94358 5.41078 3.88258 5.40699 3.82266 5.41542C3.76274 5.42386 3.70514 5.44433 3.65335 5.47561C3.60156 5.50689 3.55663 5.54834 3.52128 5.59744C3.44793 5.69748 3.41615 5.82203 3.43262 5.94498C3.44908 6.06794 3.51251 6.17974 3.6096 6.25696L11.2483 12.2224C11.7917 12.6352 12.5328 12.6352 13.0762 12.2224L20.7178 6.25696C20.8147 6.17961 20.8779 6.06774 20.8942 5.94479C20.9105 5.82184 20.8786 5.69736 20.8051 5.59744C20.7698 5.54847 20.7249 5.50715 20.6732 5.47596C20.6214 5.44477 20.564 5.42434 20.5042 5.41592C20.4444 5.40749 20.3835 5.41123 20.3252 5.42692C20.2669 5.4426 20.2123 5.46991 20.1648 5.5072L20.1658 5.50816Z" fill="black"/>
</svg>
