<svg width="24" height="24" viewBox="0 0 24 24" fill="none" xmlns="http://www.w3.org/2000/svg">
<path fill-rule="evenodd" clip-rule="evenodd" d="M12 24C18.6274 24 24 18.6274 24 12C24 5.37258 18.6274 0 12 0C5.37258 0 0 5.37258 0 12C0 18.6274 5.37258 24 12 24ZM19.1215 5.66254C19.2165 5.7038 19.3019 5.76414 19.3726 5.83982L19.3718 5.83902C19.5189 5.99553 19.6008 6.20223 19.6008 6.41702C19.6008 6.6318 19.5189 6.8385 19.3718 6.99502L9.47584 17.3606C9.40512 17.4362 9.31976 17.4964 9.22488 17.5376C9.13 17.5787 9.0276 17.6 8.92424 17.6C8.8208 17.6 8.7184 17.5787 8.62352 17.5376C8.52864 17.4964 8.44328 17.4362 8.37264 17.3606L4.2286 13.0206C4.08174 12.8642 4 12.6576 4 12.443C4 12.2284 4.08174 12.0219 4.2286 11.8654C4.29914 11.7895 4.38455 11.729 4.47953 11.6876C4.57451 11.6462 4.677 11.6249 4.7806 11.6249C4.88421 11.6249 4.9867 11.6462 5.08167 11.6876C5.17665 11.729 5.26207 11.7895 5.3326 11.8654L8.92464 15.6278L18.2686 5.83982C18.3393 5.76414 18.4247 5.7038 18.5197 5.66254C18.6146 5.62129 18.717 5.6 18.8206 5.6C18.9242 5.6 19.0266 5.62129 19.1215 5.66254Z" fill="black"/>
</svg>
