<svg width="30" height="30" viewBox="0 0 30 30" fill="none" xmlns="http://www.w3.org/2000/svg">
<path fill-rule="evenodd" clip-rule="evenodd" d="M15 30C23.2843 30 30 23.2843 30 15C30 6.71573 23.2843 0 15 0C6.71573 0 0 6.71573 0 15C0 23.2843 6.71573 30 15 30ZM23.9019 7.07818C24.0206 7.12975 24.1274 7.20517 24.2158 7.29977L24.2148 7.29877C24.3986 7.49441 24.501 7.75279 24.501 8.02127C24.501 8.28975 24.3986 8.54813 24.2148 8.74377L11.8448 21.7008C11.7564 21.7952 11.6497 21.8705 11.5311 21.922C11.4125 21.9734 11.2845 22 11.1553 22C11.026 22 10.898 21.9734 10.7794 21.922C10.6608 21.8705 10.5541 21.7952 10.4658 21.7008L5.28575 16.2758C5.10218 16.0802 5 15.822 5 15.5538C5 15.2855 5.10218 15.0274 5.28575 14.8318C5.37392 14.7369 5.48069 14.6612 5.59941 14.6095C5.71814 14.5578 5.84625 14.5311 5.97575 14.5311C6.10526 14.5311 6.23337 14.5578 6.35209 14.6095C6.47081 14.6612 6.57759 14.7369 6.66575 14.8318L11.1558 19.5348L22.8358 7.29977C22.9241 7.20517 23.0309 7.12975 23.1496 7.07818C23.2683 7.02661 23.3963 7 23.5258 7C23.6552 7 23.7832 7.02661 23.9019 7.07818Z" fill="black"/>
</svg>
