<svg width="30" height="30" viewBox="0 0 30 30" fill="none" xmlns="http://www.w3.org/2000/svg">
<g clip-path="url(#clip0)">
<path d="M15 30C23.2843 30 30 23.2843 30 15C30 6.71573 23.2843 0 15 0C6.71576 0 3.05176e-05 6.71573 3.05176e-05 15C3.05176e-05 23.2843 6.71576 30 15 30Z" fill="black"/>
<path d="M25.2147 7.8002C25.1264 7.70564 25.0196 7.63024 24.901 7.57869C24.7823 7.52714 24.6543 7.50054 24.5249 7.50054C24.3956 7.50054 24.2676 7.52714 24.1489 7.57869C24.0303 7.63024 23.9235 7.70564 23.8352 7.8002L12.1548 20.0347L7.66521 15.3317C7.57692 15.2371 7.47013 15.1617 7.35147 15.1102C7.23281 15.0586 7.10482 15.032 6.97545 15.032C6.84607 15.032 6.71808 15.0586 6.59942 15.1102C6.48076 15.1617 6.37397 15.2371 6.28568 15.3317C6.10228 15.5273 6.00021 15.7854 6.00021 16.0536C6.00021 16.3218 6.10228 16.5799 6.28568 16.7755L11.4657 22.2011C11.8462 22.5996 12.4634 22.5996 12.8439 22.2011L25.2147 9.24402C25.3985 9.04831 25.5008 8.78993 25.5008 8.52147C25.5008 8.253 25.3985 7.99463 25.2147 7.79892V7.8002Z" fill="white"/>
</g>
<defs>
<clipPath id="clip0">
<rect width="30" height="30" fill="white"/>
</clipPath>
</defs>
</svg>
