<svg width="30" height="30" viewBox="0 0 30 30" fill="none" xmlns="http://www.w3.org/2000/svg">
<path d="M7.99613 15.517H6.02252C5.47752 15.517 5.03571 15.9647 5.03571 16.517V25.896C5.03571 26.4483 5.47752 26.896 6.02252 26.896H7.99613C8.54113 26.896 8.98294 26.4483 8.98294 25.896V16.517C8.98294 15.9647 8.54113 15.517 7.99613 15.517Z" fill="black"/>
<path d="M15.8906 8.276H13.917C13.372 8.276 12.9302 8.72372 12.9302 9.276V25.897C12.9302 26.4493 13.372 26.897 13.917 26.897H15.8906C16.4356 26.897 16.8774 26.4493 16.8774 25.897V9.276C16.8774 8.72372 16.4356 8.276 15.8906 8.276Z" fill="black"/>
<path d="M23.7851 0H21.8115C21.2665 0 20.8246 0.447715 20.8246 1V25.897C20.8246 26.4493 21.2665 26.897 21.8115 26.897H23.7851C24.3301 26.897 24.7719 26.4493 24.7719 25.897V1C24.7719 0.447715 24.3301 0 23.7851 0Z" fill="black"/>
<path fill-rule="evenodd" clip-rule="evenodd" d="M28.7497 30H1.25029C0.559521 30 0 29.77 0 29.483C0 29.198 0.559521 28.966 1.25029 28.966H28.7497C29.4405 28.966 30 29.198 30 29.483C30 29.77 29.4405 30 28.7497 30Z" fill="black"/>
</svg>
