<svg width="24" height="24" viewBox="0 0 24 24" fill="none" xmlns="http://www.w3.org/2000/svg">
<path d="M6.3969 12.4136H4.81801C4.38201 12.4136 4.02856 12.7718 4.02856 13.2136V20.7168C4.02856 21.1586 4.38201 21.5168 4.81801 21.5168H6.3969C6.8329 21.5168 7.18635 21.1586 7.18635 20.7168V13.2136C7.18635 12.7718 6.8329 12.4136 6.3969 12.4136Z" fill="black"/>
<path d="M12.7125 6.62079H11.1336C10.6976 6.62079 10.3442 6.97896 10.3442 7.42079V20.7176C10.3442 21.1594 10.6976 21.5176 11.1336 21.5176H12.7125C13.1485 21.5176 13.5019 21.1594 13.5019 20.7176V7.42079C13.5019 6.97896 13.1485 6.62079 12.7125 6.62079Z" fill="black"/>
<path d="M19.0281 0H17.4492C17.0132 0 16.6597 0.358172 16.6597 0.8V20.7176C16.6597 21.1594 17.0132 21.5176 17.4492 21.5176H19.0281C19.4641 21.5176 19.8175 21.1594 19.8175 20.7176V0.8C19.8175 0.358172 19.4641 0 19.0281 0Z" fill="black"/>
<path fill-rule="evenodd" clip-rule="evenodd" d="M22.9998 24H1.00023C0.447617 24 0 23.816 0 23.5864C0 23.3584 0.447617 23.1728 1.00023 23.1728H22.9998C23.5524 23.1728 24 23.3584 24 23.5864C24 23.816 23.5524 24 22.9998 24Z" fill="black"/>
</svg>
