<svg width="24" height="24" viewBox="0 0 24 24" fill="none" xmlns="http://www.w3.org/2000/svg">
<path d="M15.4838 8.67126C15.1847 8.67126 14.9424 8.92318 14.9424 9.23374V19.8753C14.9424 20.1867 15.1847 20.4387 15.4838 20.4387C15.7829 20.4387 16.0259 20.1867 16.0259 19.8753V9.23454C16.0259 8.92318 15.7829 8.67126 15.4838 8.67126ZM8.82617 8.67126C8.52697 8.67126 8.28394 8.92318 8.28394 9.23374V19.8753C8.28394 20.1867 8.52697 20.4387 8.82617 20.4387C9.12529 20.4387 9.36754 20.1867 9.36754 19.8753V9.23454C9.36754 8.92318 9.12529 8.67126 8.82617 8.67126Z" fill="black"/>
<path d="M3.99756 7.14542V20.9931C3.99756 21.8117 4.29833 22.5798 4.82347 23.131C5.34535 23.6846 6.07207 23.9984 6.83294 24H17.477C18.2379 23.9984 18.9646 23.6846 19.4865 23.1318C20.0116 22.5798 20.3123 21.8117 20.3123 20.9931V7.14542C21.3553 6.86904 22.0308 5.86105 21.8919 4.7921C21.752 3.72314 20.8399 2.92243 19.7604 2.92243H16.8803V2.2201C16.8835 1.62912 16.6503 1.06253 16.2316 0.644702C15.813 0.227686 15.2439 -0.00480215 14.653 7.52226e-05H9.65691C9.06595 -0.00480215 8.49691 0.227686 8.07827 0.644702C7.65966 1.06253 7.42635 1.62912 7.4296 2.2201V2.92325H4.54951C3.46999 2.92325 2.55792 3.72314 2.4181 4.7929C2.2791 5.86186 2.95462 6.86823 3.99756 7.14542ZM17.477 22.875H6.83294C5.87128 22.875 5.12342 22.049 5.12342 20.9923V7.1942H19.1865V20.9931C19.1865 22.0498 18.4387 22.8758 17.477 22.8758V22.875ZM8.55387 2.2201C8.54979 1.92745 8.66523 1.64619 8.87331 1.43971C9.08059 1.23242 9.36347 1.11943 9.65611 1.12431H14.6522C14.9448 1.11943 15.2277 1.23242 15.435 1.43971C15.6431 1.64538 15.7585 1.92745 15.7545 2.2201V2.92325H8.55467V2.21928L8.55387 2.2201ZM4.54951 4.04667H19.7604C20.3197 4.04667 20.7733 4.50026 20.7733 5.05872C20.7733 5.61718 20.3197 6.07078 19.7604 6.07078H4.54951C3.99024 6.07078 3.53665 5.61718 3.53665 5.05872C3.53665 4.50026 3.99024 4.04667 4.54951 4.04667Z" fill="black"/>
<path d="M12.0778 8.67126C11.7786 8.67126 11.5355 8.92318 11.5355 9.23374V19.8753C11.5355 20.1867 11.7786 20.4387 12.0778 20.4387C12.3769 20.4387 12.6191 20.1867 12.6191 19.8753V9.23454C12.6191 8.92318 12.3769 8.67126 12.0778 8.67126Z" fill="black"/>
</svg>
