<svg width="30" height="30" viewBox="0 0 30 30" fill="none" xmlns="http://www.w3.org/2000/svg">
<g clip-path="url(#clip0)">
<path d="M19.3547 10.8391C18.9808 10.8391 18.678 11.154 18.678 11.5422V24.8442C18.678 25.2334 18.9808 25.5484 19.3547 25.5484C19.7286 25.5484 20.0324 25.2334 20.0324 24.8442V11.5432C20.0324 11.154 19.7286 10.8391 19.3547 10.8391ZM11.0327 10.8391C10.6587 10.8391 10.3549 11.154 10.3549 11.5422V24.8442C10.3549 25.2334 10.6587 25.5484 11.0327 25.5484C11.4066 25.5484 11.7094 25.2334 11.7094 24.8442V11.5432C11.7094 11.154 11.4066 10.8391 11.0327 10.8391Z" fill="black"/>
<path d="M4.99692 8.93178V26.2414C4.99692 27.2646 5.37288 28.2248 6.0293 28.9138C6.68165 29.6057 7.59006 29.998 8.54114 30H21.8462C22.7973 29.998 23.7057 29.6057 24.3581 28.9148C25.0145 28.2248 25.3904 27.2646 25.3904 26.2414V8.93178C26.6941 8.5863 27.5385 7.32631 27.3648 5.99012C27.19 4.65392 26.0499 3.65304 24.7005 3.65304H21.1004V2.77512C21.1044 2.0364 20.8128 1.32816 20.2895 0.805877C19.7662 0.284607 19.0549 -0.00600269 18.3162 9.4028e-05H12.0711C11.3324 -0.00600269 10.6211 0.284607 10.0978 0.805877C9.57454 1.32816 9.28291 2.0364 9.28697 2.77512V3.65406H5.68686C4.33746 3.65406 3.19737 4.65392 3.0226 5.99113C2.84884 7.32733 3.69324 8.58529 4.99692 8.93178ZM21.8462 28.5937H8.54114C7.33907 28.5937 6.40424 27.5613 6.40424 26.2404V8.99275H23.9831V26.2414C23.9831 27.5623 23.0483 28.5947 21.8462 28.5947V28.5937ZM10.6923 2.77512C10.6872 2.40931 10.8315 2.05774 11.0916 1.79964C11.3507 1.54053 11.7043 1.39929 12.0701 1.40539H18.3152C18.681 1.39929 19.0346 1.54053 19.2937 1.79964C19.5538 2.05672 19.6981 2.40931 19.6931 2.77512V3.65406H10.6933V2.7741L10.6923 2.77512ZM5.68686 5.05834H24.7005C25.3996 5.05834 25.9666 5.62533 25.9666 6.3234C25.9666 7.02148 25.3996 7.58847 24.7005 7.58847H5.68686C4.98777 7.58847 4.42078 7.02148 4.42078 6.3234C4.42078 5.62533 4.98777 5.05834 5.68686 5.05834Z" fill="black"/>
<path d="M15.0972 10.8391C14.7232 10.8391 14.4194 11.154 14.4194 11.5422V24.8442C14.4194 25.2334 14.7232 25.5484 15.0972 25.5484C15.4711 25.5484 15.7739 25.2334 15.7739 24.8442V11.5432C15.7739 11.154 15.4711 10.8391 15.0972 10.8391Z" fill="black"/>
</g>
<defs>
<clipPath id="clip0">
<rect width="30" height="30" fill="white"/>
</clipPath>
</defs>
</svg>
