<svg width="24" height="24" viewBox="0 0 24 24" fill="none" xmlns="http://www.w3.org/2000/svg">
<path fill-rule="evenodd" clip-rule="evenodd" d="M14.2119 2.75061L22.3786 11.0229L22.9694 21.7581L7.98264 21.7837L0.640015 13.3576L14.2119 2.75061ZM3.53391 13.6343L8.89128 19.7822L20.8565 19.7617L20.4233 11.889L14.04 5.42328L3.53391 13.6343Z" fill="black"/>
<path d="M14.609 5.174C15.2093 5.174 15.696 4.68733 15.696 4.087C15.696 3.48667 15.2093 3 14.609 3C14.0086 3 13.522 3.48667 13.522 4.087C13.522 4.68733 14.0086 5.174 14.609 5.174Z" fill="black" stroke="black" stroke-width="2"/>
<path d="M2.087 14.565C2.68733 14.565 3.174 14.0783 3.174 13.478C3.174 12.8777 2.68733 12.391 2.087 12.391C1.48667 12.391 1 12.8777 1 13.478C1 14.0783 1.48667 14.565 2.087 14.565Z" fill="black" stroke="black" stroke-width="2"/>
<path d="M8.34799 21.87C8.94832 21.87 9.43499 21.3833 9.43499 20.783C9.43499 20.1827 8.94832 19.696 8.34799 19.696C7.74765 19.696 7.26099 20.1827 7.26099 20.783C7.26099 21.3833 7.74765 21.87 8.34799 21.87Z" fill="black" stroke="black" stroke-width="2"/>
<path d="M21.913 21.87C22.5133 21.87 23 21.3833 23 20.783C23 20.1827 22.5133 19.696 21.913 19.696C21.3127 19.696 20.826 20.1827 20.826 20.783C20.826 21.3833 21.3127 21.87 21.913 21.87Z" fill="black" stroke="black" stroke-width="2"/>
<path d="M21.913 12.478C22.5133 12.478 23 11.9913 23 11.391C23 10.7907 22.5133 10.304 21.913 10.304C21.3127 10.304 20.826 10.7907 20.826 11.391C20.826 11.9913 21.3127 12.478 21.913 12.478Z" fill="black" stroke="black" stroke-width="2"/>
</svg>
