<svg width="30" height="30" viewBox="0 0 30 30" fill="none" xmlns="http://www.w3.org/2000/svg">
<g clip-path="url(#clip0)">
<path d="M29.0611 11.25H27.1389C26.9198 9.09962 25.9654 7.0907 24.4369 5.56237C22.9084 4.03405 20.8993 3.07994 18.7489 2.86111V0.937778C18.7489 0.689064 18.6501 0.450536 18.4743 0.274669C18.2984 0.0988014 18.0599 0 17.8111 0H12.1878C11.9391 0 11.7006 0.0988014 11.5247 0.274669C11.3488 0.450536 11.25 0.689064 11.25 0.937778V2.86C9.09965 3.07912 7.09073 4.03349 5.56241 5.56202C4.03408 7.09054 3.07997 9.09959 2.86114 11.25H0.937808C0.814657 11.25 0.692713 11.2743 0.578936 11.3214C0.46516 11.3685 0.36178 11.4376 0.274699 11.5247C0.187619 11.6117 0.118542 11.7151 0.0714141 11.8289C0.0242864 11.9427 3.05176e-05 12.0646 3.05176e-05 12.1878V17.8122C3.05176e-05 18.33 0.42003 18.75 0.937808 18.75H2.86003C3.07935 20.9003 4.03379 22.9091 5.56227 24.4374C7.09076 25.9657 9.09969 26.9199 11.25 27.1389V29.0622C11.25 29.58 11.67 30 12.1878 30H17.8123C18.061 30 18.2995 29.9012 18.4754 29.7253C18.6512 29.5495 18.75 29.3109 18.75 29.0622V27.14C20.9003 26.9207 22.9091 25.9662 24.4374 24.4378C25.9657 22.9093 26.9199 20.9003 27.1389 18.75H29.0623C29.311 18.75 29.5495 18.6512 29.7254 18.4753C29.9012 18.2995 30 18.0609 30 17.8122V12.1889C30 11.9402 29.9012 11.7016 29.7254 11.5258C29.5495 11.3499 29.311 11.2511 29.0623 11.2511L29.0611 11.25ZM13.1245 1.87444H16.8745V5.62556H13.1245V1.87556V1.87444ZM1.87447 13.1256H5.62336V16.8756H1.87336V13.1256H1.87447ZM16.8745 28.1256H13.1245V24.3744H16.8745V28.1256ZM18.7489 25.2478V23.4367C18.7486 23.1881 18.6497 22.9499 18.4739 22.7743C18.298 22.5986 18.0597 22.5 17.8111 22.5H12.1878C11.9391 22.5 11.7006 22.5988 11.5247 22.7747C11.3488 22.9505 11.25 23.1891 11.25 23.4378V25.2478C9.60022 25.0374 8.06696 24.2852 6.89092 23.1091C5.71488 21.9331 4.96263 20.3998 4.75225 18.75H6.56336C6.81189 18.7497 7.05013 18.6508 7.22576 18.4749C7.40138 18.2991 7.50003 18.0607 7.50003 17.8122V12.1889C7.50003 11.9402 7.40123 11.7016 7.22536 11.5258C7.04949 11.3499 6.81097 11.2511 6.56225 11.2511H4.75225C4.96263 9.6013 5.71488 8.06804 6.89092 6.892C8.06696 5.71596 9.60022 4.96372 11.25 4.75333V6.56445C11.25 7.08111 11.67 7.50111 12.1878 7.50111H17.8123C17.9354 7.50111 18.0573 7.47685 18.1711 7.42973C18.2849 7.3826 18.3883 7.31352 18.4754 7.22644C18.5624 7.13936 18.6315 7.03598 18.6786 6.9222C18.7258 6.80843 18.75 6.68648 18.75 6.56333V4.75333C20.3999 4.96353 21.9333 5.71572 23.1093 6.8918C24.2854 8.06787 25.0376 9.60123 25.2478 11.2511H23.4367C23.1882 11.2514 22.9499 11.3503 22.7743 11.5262C22.5987 11.702 22.5 11.9404 22.5 12.1889V17.8133C22.5 18.3311 22.92 18.7511 23.4378 18.7511H25.2478C25.0374 20.4009 24.2852 21.9342 23.1091 23.1102C21.9331 24.2863 20.3998 25.0385 18.75 25.2489L18.7489 25.2478ZM28.1245 16.8756H24.3734V13.1256H28.1245V16.8756Z" fill="black"/>
</g>
<defs>
<clipPath id="clip0">
<rect width="30" height="30" fill="white"/>
</clipPath>
</defs>
</svg>
