<svg width="24" height="24" viewBox="0 0 24 24" fill="none" xmlns="http://www.w3.org/2000/svg">
<path d="M23.2489 9H21.7112C21.5359 7.2797 20.7724 5.67256 19.5496 4.4499C18.3268 3.22724 16.7195 2.46395 14.9992 2.28889V0.750222C14.9992 0.551251 14.9201 0.360429 14.7795 0.219735C14.6388 0.0790411 14.448 0 14.2489 0H9.75028C9.55132 0 9.36052 0.0790411 9.2198 0.219735C9.07908 0.360429 9.00004 0.551251 9.00004 0.750222V2.288C7.27976 2.4633 5.67262 3.22679 4.44996 4.44962C3.2273 5.67243 2.46401 7.27967 2.28895 9H0.750283C0.651762 9 0.554207 9.01944 0.463185 9.05712C0.372165 9.0948 0.289461 9.15008 0.219796 9.21976C0.150132 9.28936 0.0948702 9.37208 0.0571679 9.46312C0.0194657 9.55416 6.10352e-05 9.65168 6.10352e-05 9.75024V14.2498C6.10352e-05 14.664 0.336061 15 0.750283 15H2.28806C2.46352 16.7202 3.22707 18.3273 4.44985 19.5499C5.67264 20.7726 7.27979 21.5359 9.00004 21.7111V23.2498C9.00004 23.664 9.33604 24 9.75028 24H14.2499C14.4488 24 14.6396 23.921 14.7804 23.7802C14.921 23.6396 15 23.4487 15 23.2498V21.712C16.7203 21.5366 18.3273 20.773 19.55 19.5502C20.7726 18.3274 21.536 16.7202 21.7112 15H23.2499C23.4488 15 23.6396 14.921 23.7804 14.7802C23.921 14.6396 24 14.4487 24 14.2498V9.75112C24 9.55216 23.921 9.36128 23.7804 9.22064C23.6396 9.07992 23.4488 9.00088 23.2499 9.00088L23.2489 9ZM10.4996 1.49955H13.4996V4.50045H10.4996V1.50045V1.49955ZM1.49961 10.5005H4.49872V13.5005H1.49872V10.5005H1.49961ZM13.4996 22.5005H10.4996V19.4995H13.4996V22.5005ZM14.9992 20.1982V18.7494C14.9989 18.5505 14.9198 18.3599 14.7792 18.2194C14.6384 18.0789 14.4478 18 14.2489 18H9.75028C9.55132 18 9.36052 18.079 9.2198 18.2198C9.07908 18.3604 9.00004 18.5513 9.00004 18.7502V20.1982C7.68021 20.0299 6.4536 19.4282 5.51277 18.4873C4.57194 17.5465 3.97014 16.3198 3.80184 15H5.25072C5.44955 14.9998 5.64014 14.9206 5.78064 14.7799C5.92114 14.6393 6.00006 14.4486 6.00006 14.2498V9.75112C6.00006 9.55216 5.92102 9.36128 5.78032 9.22064C5.63963 9.07992 5.44881 9.00088 5.24984 9.00088H3.80184C3.97014 7.68104 4.57194 6.45443 5.51277 5.5136C6.4536 4.57277 7.68021 3.97098 9.00004 3.80266V5.25156C9.00004 5.66489 9.33604 6.00089 9.75028 6.00089H14.2499C14.3484 6.00089 14.4459 5.98148 14.5369 5.94378C14.628 5.90608 14.7107 5.85082 14.7804 5.78115C14.85 5.71149 14.9052 5.62878 14.9429 5.53776C14.9807 5.44674 15 5.34918 15 5.25066V3.80266C16.32 3.97082 17.5467 4.57258 18.4875 5.51344C19.4284 6.4543 20.0301 7.68098 20.1983 9.00088H18.7494C18.5506 9.00112 18.36 9.08024 18.2195 9.22096C18.079 9.3616 18 9.55232 18 9.75112V14.2506C18 14.6649 18.336 15.0009 18.7503 15.0009H20.1983C20.03 16.3207 19.4282 17.5474 18.4873 18.4882C17.5465 19.429 16.3199 20.0308 15 20.1991L14.9992 20.1982ZM22.4996 13.5005H19.4988V10.5005H22.4996V13.5005Z" fill="black"/>
</svg>
