<svg width="24" height="24" viewBox="0 0 24 24" fill="none" xmlns="http://www.w3.org/2000/svg">
<path d="M23.2494 6.0009C23.6634 6.0009 24 5.66432 24 5.25034V0.750562C24 0.551501 23.921 0.360592 23.7802 0.219834C23.6394 0.0790762 23.4485 0 23.2494 0H18.7497C18.5506 0 18.3597 0.0790762 18.219 0.219834C18.0782 0.360592 17.9991 0.551501 17.9991 0.750562V2.24989H6.0009V0.750562C6.0009 0.551501 5.92182 0.360592 5.78106 0.219834C5.6403 0.0790762 5.4494 0 5.25034 0H0.750562C0.551501 0 0.360592 0.0790762 0.219834 0.219834C0.0790762 0.360592 0 0.551501 0 0.750562V5.25034C0 5.66432 0.336583 6.0009 0.750562 6.0009H2.24989V17.9991H0.750562C0.551501 17.9991 0.360592 18.0782 0.219834 18.219C0.0790762 18.3597 0 18.5506 0 18.7497V23.2494C0 23.6634 0.336583 24 0.750562 24H5.25034C5.66432 24 6.0009 23.6634 6.0009 23.2494V21.7501H17.9991V23.2494C17.9991 23.6634 18.3357 24 18.7497 24H23.2494C23.6634 24 24 23.6634 24 23.2494V18.7497C24 18.5506 23.921 18.3597 23.7802 18.219C23.6394 18.0782 23.4485 17.9991 23.2494 17.9991H21.7501V6.0009H23.2494ZM19.5002 1.50113H22.4989V4.49978H19.5002V1.50113ZM1.50113 1.50113H4.49978V4.49978H1.50113V1.50113ZM4.49978 22.4989H1.50113V19.5002H4.49978V22.4989ZM22.4989 22.4989H19.5002V19.5002H22.4989V22.4989ZM20.249 17.9991H18.7497C18.5506 17.9991 18.3597 18.0782 18.219 18.219C18.0782 18.3597 17.9991 18.5506 17.9991 18.7497V20.249H6.0009V18.7497C6.0009 18.5506 5.92182 18.3597 5.78106 18.219C5.6403 18.0782 5.4494 17.9991 5.25034 17.9991H3.75101V6.0009H5.25034C5.66432 6.0009 6.0009 5.66432 6.0009 5.25034V3.75101H17.9991V5.25034C17.9991 5.66432 18.3357 6.0009 18.7497 6.0009H20.249V17.9991Z" fill="black"/>
</svg>
