<svg width="24" height="24" viewBox="0 0 24 24" fill="none" xmlns="http://www.w3.org/2000/svg">
<path fill-rule="evenodd" clip-rule="evenodd" d="M10.1714 1.08936L23.151 7.30352L21.258 20.3829L7.15523 23.4056L0.0447998 11.216L10.1714 1.08936ZM10.5846 3.50458L2.5492 11.54L8.15277 21.1464L19.478 18.719L20.961 8.47242L10.5846 3.50458Z" fill="black"/>
<path d="M10.081 3.5C10.9094 3.5 11.581 2.82843 11.581 2C11.581 1.17157 10.9094 0.5 10.081 0.5C9.25257 0.5 8.58099 1.17157 8.58099 2C8.58099 2.82843 9.25257 3.5 10.081 3.5Z" fill="black" stroke="black"/>
<path d="M2 12.581C2.82843 12.581 3.5 11.9094 3.5 11.081C3.5 10.2526 2.82843 9.58099 2 9.58099C1.17157 9.58099 0.5 10.2526 0.5 11.081C0.5 11.9094 1.17157 12.581 2 12.581Z" fill="black" stroke="black"/>
<path d="M8.357 23.478C9.18542 23.478 9.857 22.8065 9.857 21.978C9.857 21.1496 9.18542 20.478 8.357 20.478C7.52857 20.478 6.85699 21.1496 6.85699 21.978C6.85699 22.8065 7.52857 23.478 8.357 23.478Z" fill="black" stroke="black"/>
<path d="M21.481 8.94898C22.3094 8.94898 22.981 8.2774 22.981 7.44897C22.981 6.62055 22.3094 5.94897 21.481 5.94897C20.6525 5.94897 19.981 6.62055 19.981 7.44897C19.981 8.2774 20.6525 8.94898 21.481 8.94898Z" fill="black" stroke="black"/>
<path d="M20.0699 20.754C20.8984 20.754 21.5699 20.0825 21.5699 19.254C21.5699 18.4256 20.8984 17.754 20.0699 17.754C19.2415 17.754 18.5699 18.4256 18.5699 19.254C18.5699 20.0825 19.2415 20.754 20.0699 20.754Z" fill="black" stroke="black"/>
</svg>
