<svg width="24" height="24" viewBox="0 0 24 24" fill="none" xmlns="http://www.w3.org/2000/svg">
<path fill-rule="evenodd" clip-rule="evenodd" d="M1 4.9928L23 5.1512V19H1V4.9928ZM3 7.00725V17H21V7.13685L3 7.00725Z" fill="black"/>
<path d="M2 8C3.10457 8 4 7.10457 4 6C4 4.89543 3.10457 4 2 4C0.89543 4 0 4.89543 0 6C0 7.10457 0.89543 8 2 8Z" fill="black"/>
<path d="M2 20C3.10457 20 4 19.1046 4 18C4 16.8954 3.10457 16 2 16C0.89543 16 0 16.8954 0 18C0 19.1046 0.89543 20 2 20Z" fill="black"/>
<path d="M22 8C23.1046 8 24 7.10457 24 6C24 4.89543 23.1046 4 22 4C20.8954 4 20 4.89543 20 6C20 7.10457 20.8954 8 22 8Z" fill="black"/>
<path d="M22 20C23.1046 20 24 19.1046 24 18C24 16.8954 23.1046 16 22 16C20.8954 16 20 16.8954 20 18C20 19.1046 20.8954 20 22 20Z" fill="black"/>
</svg>
