<svg width="30" height="30" viewBox="0 0 30 30" fill="none" xmlns="http://www.w3.org/2000/svg">
<path d="M29.0618 7.50112C29.5793 7.50112 30 7.0804 30 6.56292V0.938203C30 0.689376 29.9012 0.45074 29.7252 0.274793C29.5493 0.0988453 29.3106 0 29.0618 0H23.4371C23.1882 0 22.9496 0.0988453 22.7737 0.274793C22.5977 0.45074 22.4989 0.689376 22.4989 0.938203V2.81236H7.50112V0.938203C7.50112 0.689376 7.40228 0.45074 7.22633 0.274793C7.05038 0.0988453 6.81175 0 6.56292 0H0.938203C0.689376 0 0.45074 0.0988453 0.274793 0.274793C0.0988453 0.45074 0 0.689376 0 0.938203V6.56292C0 7.0804 0.420729 7.50112 0.938203 7.50112H2.81236V22.4989H0.938203C0.689376 22.4989 0.45074 22.5977 0.274793 22.7737C0.0988453 22.9496 0 23.1882 0 23.4371V29.0618C0 29.5793 0.420729 30 0.938203 30H6.56292C7.0804 30 7.50112 29.5793 7.50112 29.0618V27.1876H22.4989V29.0618C22.4989 29.5793 22.9196 30 23.4371 30H29.0618C29.5793 30 30 29.5793 30 29.0618V23.4371C30 23.1882 29.9012 22.9496 29.7252 22.7737C29.5493 22.5977 29.3106 22.4989 29.0618 22.4989H27.1876V7.50112H29.0618ZM24.3753 1.87641H28.1236V5.62472H24.3753V1.87641ZM1.87641 1.87641H5.62472V5.62472H1.87641V1.87641ZM5.62472 28.1236H1.87641V24.3753H5.62472V28.1236ZM28.1236 28.1236H24.3753V24.3753H28.1236V28.1236ZM25.3112 22.4989H23.4371C23.1882 22.4989 22.9496 22.5977 22.7737 22.7737C22.5977 22.9496 22.4989 23.1882 22.4989 23.4371V25.3112H7.50112V23.4371C7.50112 23.1882 7.40228 22.9496 7.22633 22.7737C7.05038 22.5977 6.81175 22.4989 6.56292 22.4989H4.68876V7.50112H6.56292C7.0804 7.50112 7.50112 7.0804 7.50112 6.56292V4.68876H22.4989V6.56292C22.4989 7.0804 22.9196 7.50112 23.4371 7.50112H25.3112V22.4989Z" fill="black"/>
</svg>
