<svg width="24" height="24" viewBox="0 0 24 24" fill="none" xmlns="http://www.w3.org/2000/svg">
<path fill-rule="evenodd" clip-rule="evenodd" d="M9.64935 4.93289C9.64935 3.86538 10.5147 3 11.5822 3C12.6497 3 13.5151 3.86538 13.5151 4.93289C13.5151 6.00039 12.6497 6.86577 11.5822 6.86577C10.5147 6.86577 9.64935 6.00039 9.64935 4.93289Z" fill="black"/>
<path fill-rule="evenodd" clip-rule="evenodd" d="M20.1342 11.9799C20.1342 10.9124 20.9996 10.047 22.0671 10.047C23.1346 10.047 24 10.9124 24 11.9799C24 13.0474 23.1346 13.9128 22.0671 13.9128C20.9996 13.9128 20.1342 13.0474 20.1342 11.9799Z" fill="black"/>
<path fill-rule="evenodd" clip-rule="evenodd" d="M4.67189 7.9659C2.94245 9.15131 2.01342 10.6863 2.01342 12.2587C2.01342 13.8311 2.94245 15.3661 4.67189 16.5516C6.39665 17.7338 8.83497 18.4973 11.5772 18.4973C14.3194 18.4973 16.7577 17.7338 18.4825 16.5516C20.2119 15.3661 21.1409 13.8311 21.1409 12.2587C21.1409 10.6863 20.2119 9.15131 18.4825 7.9659C16.7577 6.7837 14.3194 6.02014 11.5772 6.02014C8.83497 6.02014 6.39665 6.7837 4.67189 7.9659ZM3.53357 6.30515C5.63457 4.86506 8.48148 4.00671 11.5772 4.00671C14.6729 4.00671 17.5198 4.86506 19.6208 6.30515C21.7171 7.74202 23.1544 9.82965 23.1544 12.2587C23.1544 14.6878 21.7171 16.7754 19.6208 18.2123C17.5198 19.6524 14.6729 20.5107 11.5772 20.5107C8.48148 20.5107 5.63457 19.6524 3.53357 18.2123C1.43725 16.7754 0 14.6878 0 12.2587C0 9.82965 1.43725 7.74202 3.53357 6.30515Z" fill="black"/>
</svg>
