<svg width="30" height="30" viewBox="0 0 30 30" fill="none" xmlns="http://www.w3.org/2000/svg">
<g clip-path="url(#clip0)">
<path fill-rule="evenodd" clip-rule="evenodd" d="M30 15C30 23.2843 23.2843 30 15 30C6.71573 30 0 23.2843 0 15C0 6.71573 6.71573 0 15 0C23.2843 0 30 6.71573 30 15ZM12.6962 15.0006L7.41954 9.72391H7.42094C6.83031 9.13334 6.86521 8.13648 7.50052 7.50123C8.13723 6.86597 9.13279 6.82967 9.72482 7.42025L15.0002 12.6963L20.275 7.42073C20.867 6.83018 21.8624 6.86508 22.499 7.50171C23.1342 8.13694 23.1705 9.13377 22.5786 9.72433L17.3036 15L22.5791 20.2761C23.1697 20.8667 23.1348 21.8635 22.4995 22.4988C21.8628 23.134 20.8672 23.1703 20.2752 22.5798L14.9997 17.3042L9.72481 22.5798C9.13287 23.1703 8.13746 23.134 7.50224 22.4988C6.86563 21.8636 6.82933 20.8667 7.42127 20.2762L12.6962 15.0006Z" fill="black"/>
</g>
<defs>
<clipPath id="clip0">
<rect width="30" height="30" fill="white"/>
</clipPath>
</defs>
</svg>
