<svg width="24" height="24" viewBox="0 0 24 24" fill="none" xmlns="http://www.w3.org/2000/svg">
<path fill-rule="evenodd" clip-rule="evenodd" d="M24 12C24 18.6274 18.6274 24 12 24C5.37258 24 0 18.6274 0 12C0 5.37258 5.37258 0 12 0C18.6274 0 24 5.37258 24 12ZM10.157 12.0005L5.93563 7.77913H5.93675C5.46425 7.30667 5.49217 6.50918 6.00042 6.00098C6.50978 5.49278 7.30623 5.46374 7.77986 5.9362L12.0002 10.157L16.22 5.93658C16.6936 5.46414 17.4899 5.49206 17.9992 6.00137C18.5074 6.50955 18.5364 7.30702 18.0629 7.77946L13.8429 12L18.0633 16.2209C18.5358 16.6934 18.5078 17.4908 17.9996 17.999C17.4902 18.5072 16.6938 18.5362 16.2202 18.0638L11.9998 13.8434L7.77985 18.0638C7.3063 18.5362 6.50997 18.5072 6.00179 17.999C5.4925 17.4909 5.46346 16.6934 5.93702 16.221L10.157 12.0005Z" fill="black"/>
</svg>
