<svg width="30" height="30" viewBox="0 0 30 30" fill="none" xmlns="http://www.w3.org/2000/svg">
<g clip-path="url(#clip0)">
<path d="M15 30C23.2843 30 30 23.2843 30 15C30 6.71573 23.2843 0 15 0C6.71573 0 0 6.71573 0 15C0 23.2843 6.71573 30 15 30Z" fill="black"/>
<path d="M7.41954 9.72391L20.2752 22.5798C20.8672 23.1703 21.8628 23.134 22.4995 22.4988C23.1348 21.8635 23.1697 20.8667 22.5791 20.2761L9.72482 7.42025C9.13279 6.82967 8.13723 6.86597 7.50052 7.50123C6.86521 8.13648 6.83031 9.13334 7.42094 9.72391H7.41954Z" fill="white"/>
<path d="M9.72481 22.5798L22.5786 9.72433C23.1705 9.13377 23.1342 8.13694 22.499 7.50171C21.8624 6.86508 20.867 6.83018 20.275 7.42073L7.42127 20.2762C6.82933 20.8667 6.86563 21.8636 7.50224 22.4988C8.13746 23.134 9.13287 23.1703 9.72481 22.5798Z" fill="white"/>
</g>
<defs>
<clipPath id="clip0">
<rect width="30" height="30" fill="white"/>
</clipPath>
</defs>
</svg>
