<svg width="24" height="24" viewBox="0 0 24 24" fill="none" xmlns="http://www.w3.org/2000/svg">
<path d="M19.8101 4.18778C19.7494 4.12825 19.6774 4.08102 19.598 4.04881C19.5187 4.01658 19.4337 4 19.3478 4C19.262 4 19.177 4.01658 19.0977 4.04881C19.0184 4.08102 18.9463 4.12825 18.8857 4.18778L16.6638 6.36615C15.1628 5.86106 13.5869 5.60356 12 5.6041C4.54451 5.6041 0 11.1601 0 12.0215C0 12.6053 2.09729 15.343 5.76774 17.0478L3.82994 18.9483C3.7663 19.0072 3.71535 19.078 3.68013 19.1566C3.6449 19.2351 3.62612 19.3198 3.62488 19.4056C3.62363 19.4914 3.63996 19.5766 3.6729 19.6561C3.70583 19.7355 3.7547 19.8078 3.81662 19.8684C3.87852 19.929 3.95222 19.9769 4.03333 20.0091C4.11445 20.0414 4.20133 20.0573 4.28884 20.056C4.37634 20.0547 4.4627 20.0362 4.54279 20.0016C4.62288 19.967 4.69507 19.917 4.7551 19.8546L19.8101 5.0948C19.8709 5.0353 19.9192 4.96461 19.9521 4.88679C19.985 4.80897 20.002 4.72554 20.002 4.6413C20.002 4.55704 19.985 4.47362 19.9521 4.39579C19.9192 4.31798 19.8709 4.24729 19.8101 4.18778ZM7.63665 12.0208C7.63787 10.8866 8.098 9.79928 8.916 8.99728C9.734 8.19528 10.8431 7.74421 12 7.743C12.885 7.74417 13.7478 8.01496 14.4689 8.51792L13.6777 9.29368C13.1749 8.9836 12.594 8.81696 12 8.81248C11.1322 8.81344 10.3003 9.15192 9.68688 9.75352C9.07336 10.3552 8.72832 11.1708 8.72752 12.0215C8.73136 12.6038 8.90168 13.1738 9.21752 13.6663L8.42712 14.4421C7.91391 13.7349 7.63768 12.8887 7.63665 12.0208ZM19.1985 7.48114L16.0785 10.54C16.2627 11.0128 16.3595 11.5146 16.3634 12.0215C16.3622 13.1558 15.902 14.2431 15.084 15.0451C14.266 15.847 13.1569 16.2982 12 16.2994C11.4832 16.2954 10.9714 16.2006 10.4888 16.0193L8.46968 17.9988C9.6232 18.2887 10.8093 18.436 12 18.439C19.4555 18.439 24 12.8823 24 12.0215C24 11.4902 22.2689 9.17904 19.1985 7.48114Z" fill="black"/>
<path d="M12 15.2299C12.4844 15.2309 12.9629 15.1262 13.401 14.9235C13.839 14.7208 14.2256 14.4251 14.5327 14.0578C14.8398 13.6906 15.0597 13.261 15.1765 12.8001C15.2934 12.3392 15.3042 11.8586 15.2082 11.3931L11.3589 15.1662C11.5703 15.2079 11.7848 15.2292 12 15.2299Z" fill="black"/>
</svg>
