<svg width="30" height="30" viewBox="0 0 30 30" fill="none" xmlns="http://www.w3.org/2000/svg">
<path d="M24.7626 5.23473C24.6867 5.16031 24.5967 5.10128 24.4975 5.06101C24.3984 5.02073 24.2921 5 24.1848 5C24.0775 5 23.9713 5.02073 23.8721 5.06101C23.773 5.10128 23.6829 5.16031 23.6071 5.23473L20.8297 7.95769C18.9535 7.32633 16.9836 7.00445 15 7.00513C5.68064 7.00513 0 13.9501 0 15.0269C0 15.7566 2.62161 19.1788 7.20968 21.3097L4.78742 23.6854C4.70787 23.759 4.64419 23.8475 4.60016 23.9457C4.55613 24.0439 4.53265 24.1498 4.5311 24.257C4.52954 24.3642 4.54995 24.4707 4.59112 24.5701C4.63229 24.6694 4.69338 24.7597 4.77077 24.8355C4.84815 24.9113 4.94027 24.9711 5.04166 25.0114C5.14306 25.0517 5.25166 25.0716 5.36105 25.07C5.47043 25.0684 5.57838 25.0453 5.67849 25.002C5.7786 24.9588 5.86884 24.8963 5.94387 24.8182L24.7626 6.3685C24.8386 6.29412 24.899 6.20576 24.9401 6.10849C24.9813 6.01121 25.0025 5.90693 25.0025 5.80162C25.0025 5.6963 24.9813 5.59202 24.9401 5.49474C24.899 5.39747 24.8386 5.30911 24.7626 5.23473ZM9.54581 15.026C9.54734 13.6083 10.1225 12.2491 11.145 11.2466C12.1675 10.2441 13.5539 9.68026 15 9.67875C16.1063 9.68021 17.1847 10.0187 18.0861 10.6474L17.0971 11.6171C16.4686 11.2295 15.7425 11.0212 15 11.0156C13.9153 11.0168 12.8754 11.4399 12.1086 12.1919C11.3417 12.944 10.9104 13.9635 10.9094 15.0269C10.9142 15.7547 11.1271 16.4672 11.5219 17.0829L10.5339 18.0526C9.89239 17.1686 9.5471 16.1109 9.54581 15.026ZM23.9981 9.35143L20.0981 13.175C20.3284 13.766 20.4494 14.3932 20.4542 15.0269C20.4527 16.4447 19.8775 17.8039 18.855 18.8064C17.8325 19.8088 16.4461 20.3727 15 20.3742C14.354 20.3692 13.7142 20.2507 13.111 20.0241L10.5871 22.4985C12.029 22.8609 13.5116 23.045 15 23.0488C24.3194 23.0488 30 16.1029 30 15.0269C30 14.3628 27.8361 11.4738 23.9981 9.35143Z" fill="black"/>
<path d="M15 19.0374C15.6055 19.0386 16.2037 18.9078 16.7513 18.6544C17.2988 18.401 17.782 18.0314 18.1659 17.5723C18.5498 17.1132 18.8247 16.5762 18.9707 16.0001C19.1168 15.424 19.1303 14.8232 19.0103 14.2414L14.1987 18.9577C14.4629 19.0099 14.731 19.0365 15 19.0374Z" fill="black"/>
</svg>
