<svg width="30" height="30" viewBox="0 0 30 30" fill="none" xmlns="http://www.w3.org/2000/svg">
<g clip-path="url(#clip0)">
<path d="M0.334642 15.917C2.29291 18.3711 8.11816 24.9152 15.0093 24.9152C21.9004 24.9152 27.7257 18.3713 29.6839 15.917C30.1051 15.3717 30.1051 14.6033 29.6839 14.083C27.7257 11.6289 21.9004 5.08482 15.0093 5.08482C8.11816 5.06003 2.29291 11.6041 0.334642 14.0582C-0.111547 14.6035 -0.111547 15.3717 0.334642 15.917V15.917ZM15.0093 9.02615C18.3061 9.02615 20.9585 11.6785 20.9585 14.9753C20.9585 18.2722 18.3061 20.9245 15.0093 20.9245C11.7125 20.9245 9.06011 18.2722 9.06011 14.9753C9.06011 11.6785 11.7125 9.02615 15.0093 9.02615V9.02615Z" fill="black"/>
<path d="M15.0093 17.9499C16.6521 17.9499 17.9839 16.6181 17.9839 14.9753C17.9839 13.3325 16.6521 12.0007 15.0093 12.0007C13.3665 12.0007 12.0347 13.3325 12.0347 14.9753C12.0347 16.6181 13.3665 17.9499 15.0093 17.9499Z" fill="black"/>
</g>
<defs>
<clipPath id="clip0">
<rect width="30" height="30" fill="white"/>
</clipPath>
</defs>
</svg>
