<svg width="24" height="24" viewBox="0 0 24 24" fill="none" xmlns="http://www.w3.org/2000/svg">
<path d="M0.267713 12.7336C1.83433 14.6969 6.49453 19.9322 12.0074 19.9322C17.5203 19.9322 22.1806 14.697 23.7471 12.7336C24.0841 12.2974 24.0841 11.6827 23.7471 11.2664C22.1806 9.30313 17.5203 4.06787 12.0074 4.06787C6.49453 4.04803 1.83433 9.28329 0.267713 11.2466C-0.0892378 11.6828 -0.0892378 12.2974 0.267713 12.7336ZM12.0074 7.22093C14.6449 7.22093 16.7668 9.34281 16.7668 11.9803C16.7668 14.6178 14.6449 16.7396 12.0074 16.7396C9.37 16.7396 7.24809 14.6178 7.24809 11.9803C7.24809 9.34281 9.37 7.22093 12.0074 7.22093Z" fill="black"/>
<path d="M12.0074 14.3599C13.3217 14.3599 14.3871 13.2945 14.3871 11.9802C14.3871 10.666 13.3217 9.60056 12.0074 9.60056C10.6932 9.60056 9.62775 10.666 9.62775 11.9802C9.62775 13.2945 10.6932 14.3599 12.0074 14.3599Z" fill="black"/>
<path fill-rule="evenodd" clip-rule="evenodd" d="M3.57007 19.5361L19.7395 3.36667L21.1418 4.7689L4.97231 20.9384L3.57007 19.5361Z" fill="black"/>
</svg>
