<svg width="24" height="24" viewBox="0 0 24 24" fill="none" xmlns="http://www.w3.org/2000/svg">
<path d="M12 15.2258C13.8073 15.2258 15.2725 13.7894 15.2725 12.0174C15.2725 10.2455 13.8073 8.80911 12 8.80911C10.1926 8.80911 8.72742 10.2455 8.72742 12.0174C8.72742 13.7894 10.1926 15.2258 12 15.2258Z" fill="black"/>
<path d="M12 5.60001C4.54451 5.60001 0 11.156 0 12.0174C0 12.8774 4.54451 18.4342 12 18.4342C19.4555 18.4342 24 12.8782 24 12.0174C24 11.156 19.4555 5.60001 12 5.60001ZM12 16.2945C11.427 16.2945 10.8596 16.1838 10.3302 15.9689C9.8008 15.7539 9.31984 15.4388 8.91464 15.0415C8.50944 14.6443 8.18808 14.1727 7.96878 13.6538C7.7495 13.1347 7.63665 12.5785 7.63665 12.0167C7.63665 11.455 7.7495 10.8986 7.96878 10.3797C8.18808 9.86065 8.50944 9.38905 8.91464 8.99185C9.31984 8.59465 9.8008 8.27953 10.3302 8.06457C10.8596 7.84955 11.427 7.7389 12 7.7389C13.1574 7.7389 14.2673 8.18961 15.0856 8.99193C15.904 9.79425 16.3638 10.8824 16.3638 12.017C16.3638 13.1518 15.904 14.2399 15.0856 15.0422C14.2673 15.8445 13.1574 16.2953 12 16.2953V16.2945Z" fill="black"/>
</svg>
