<svg width="30" height="30" viewBox="0 0 30 30" fill="none" xmlns="http://www.w3.org/2000/svg">
<path d="M15 19.0323C17.2592 19.0323 19.0906 17.2367 19.0906 15.0218C19.0906 12.8069 17.2592 11.0114 15 11.0114C12.7408 11.0114 10.9093 12.8069 10.9093 15.0218C10.9093 17.2367 12.7408 19.0323 15 19.0323Z" fill="black"/>
<path d="M15 7C5.68064 7 0 13.945 0 15.0218C0 16.0968 5.68064 23.0427 15 23.0427C24.3194 23.0427 30 16.0977 30 15.0218C30 13.945 24.3194 7 15 7ZM15 20.3681C14.2837 20.3681 13.5745 20.2298 12.9128 19.9611C12.251 19.6924 11.6498 19.2985 11.1433 18.8019C10.6368 18.3054 10.2351 17.7159 9.96098 17.0672C9.68688 16.4184 9.54581 15.7231 9.54581 15.0209C9.54581 14.3187 9.68688 13.6233 9.96098 12.9746C10.2351 12.3258 10.6368 11.7363 11.1433 11.2398C11.6498 10.7433 12.251 10.3494 12.9128 10.0807C13.5745 9.81193 14.2837 9.67362 15 9.67362C16.4467 9.67362 17.8341 10.237 18.857 11.2399C19.88 12.2428 20.4547 13.603 20.4547 15.0213C20.4547 16.4397 19.88 17.7999 18.857 18.8028C17.8341 19.8056 16.4467 20.3691 15 20.3691V20.3681Z" fill="black"/>
</svg>
