<svg width="30" height="30" viewBox="0 0 30 30" fill="none" xmlns="http://www.w3.org/2000/svg">
<g clip-path="url(#clip0)">
<path d="M25.7143 0C26.8509 0 27.941 0.463351 28.7447 1.28812C29.5485 2.11289 30 3.23152 30 4.39792V25.6021C30 26.7685 29.5485 27.8871 28.7447 28.7119C27.941 29.5366 26.8509 30 25.7143 30H4.28571C3.14907 30 2.05898 29.5366 1.25526 28.7119C0.451529 27.8871 0 26.7685 0 25.6021L0 4.39792C0 3.23152 0.451529 2.11289 1.25526 1.28812C2.05898 0.463351 3.14907 0 4.28571 0L25.7143 0ZM19.2146 5.82461H16.8086C14.2226 5.82461 13.0577 7.08857 13.0577 9.50479V12.082H11.25V15.354H13.0577V24.9661H16.5317V15.3136H18.9566L19.2137 12.082H16.5309V10.2419C16.5309 9.47929 16.6697 9.17759 17.334 9.17759H19.2146V5.82549V5.82461Z" fill="black"/>
</g>
<defs>
<clipPath id="clip0">
<rect width="30" height="30" fill="white"/>
</clipPath>
</defs>
</svg>
