<svg width="24" height="24" viewBox="0 0 24 24" fill="none" xmlns="http://www.w3.org/2000/svg">
<path d="M20.5714 0C21.4807 0 22.3528 0.370681 22.9958 1.0305C23.6388 1.69031 24 2.58522 24 3.51834V20.4817C24 21.4148 23.6388 22.3097 22.9958 22.9695C22.3528 23.6293 21.4807 24 20.5714 24H3.42857C2.51926 24 1.64718 23.6293 1.00421 22.9695C0.361223 22.3097 0 21.4148 0 20.4817V3.51834C0 2.58522 0.361223 1.69031 1.00421 1.0305C1.64718 0.370681 2.51926 0 3.42857 0H20.5714ZM15.3717 4.65969H13.4469C11.3781 4.65969 10.4462 5.67086 10.4462 7.60383V9.6656H9V12.2832H10.4462V19.9729H13.2254V12.2509H15.1653L15.371 9.6656H13.2247V8.19352C13.2247 7.58343 13.3358 7.34207 13.8672 7.34207H15.3717V4.66039V4.65969Z" fill="black"/>
</svg>
