<svg width="30" height="30" viewBox="0 0 30 30" fill="none" xmlns="http://www.w3.org/2000/svg">
<path fill-rule="evenodd" clip-rule="evenodd" d="M4.54521 12.1607H16.7881C18.744 12.1607 20.3343 13.4608 20.3343 15.0636V23.52C20.3343 25.1227 18.744 26.4103 16.7881 26.4103H9.69071C9.02143 26.4103 9.02143 26.4142 8.70077 26.6201C8.38011 26.8269 4.71803 29 4.71803 29V26.4093H4.54621C2.58431 26.4093 1 25.1217 1 23.519V15.0636C0.999002 13.4608 2.5883 12.1616 4.54521 12.1616V12.1607Z" stroke="black"/>
<path d="M25.3939 0H9.47595C6.93267 0 4.86588 1.66073 4.86588 3.7091V14.5135C4.86588 16.5629 6.93267 18.2062 9.47595 18.2062H18.7021C19.5712 18.2062 19.5712 18.212 19.9897 18.4759C20.4063 18.7388 25.1672 21.5161 25.1672 21.5161V18.2052H25.3909C27.9402 18.2052 30 16.5609 30 14.5126V3.7091C30.003 1.66073 27.9362 0 25.3939 0Z" fill="black"/>
<path d="M11.7162 11.9H11.0522V6.18906H14.2358V6.77891H11.7162V8.86875H14.0834V9.4586H11.7162V11.9ZM18.7748 11.9L18.0639 10.0836H15.7748L15.0717 11.9H14.3998L16.6576 6.16563H17.2162L19.4623 11.9H18.7748ZM17.8568 9.48594L17.1928 7.71641C17.1068 7.49245 17.0183 7.21771 16.9272 6.89219C16.8699 7.14219 16.7878 7.41693 16.6811 7.71641L16.0092 9.48594H17.8568ZM25.2045 9.03672C25.2045 9.76849 25.0574 10.3766 24.7631 10.8609C24.4688 11.3453 24.0535 11.6734 23.517 11.8453L24.8764 13.2594H23.9115L22.7983 11.9703L22.5834 11.9781C21.7423 11.9781 21.0925 11.7216 20.6342 11.2086C20.1785 10.693 19.9506 9.96641 19.9506 9.02891C19.9506 8.09922 20.1798 7.37917 20.6381 6.86875C21.0964 6.35573 21.7475 6.09922 22.5912 6.09922C23.4115 6.09922 24.0522 6.35964 24.5131 6.88047C24.974 7.4013 25.2045 8.12005 25.2045 9.03672ZM20.6537 9.03672C20.6537 9.81016 20.8178 10.3974 21.1459 10.7984C21.4766 11.1969 21.9558 11.3961 22.5834 11.3961C23.2162 11.3961 23.6941 11.1969 24.017 10.7984C24.3399 10.4 24.5014 9.81276 24.5014 9.03672C24.5014 8.26849 24.3399 7.68646 24.017 7.29063C23.6967 6.89219 23.2214 6.69297 22.5912 6.69297C21.9584 6.69297 21.4766 6.89349 21.1459 7.29453C20.8178 7.69297 20.6537 8.2737 20.6537 9.03672Z" fill="white"/>
</svg>
