<svg width="24" height="24" viewBox="0 0 24 24" fill="none" xmlns="http://www.w3.org/2000/svg">
<path fill-rule="evenodd" clip-rule="evenodd" d="M16.1008 12.7908C16.1008 11.4312 14.7234 10.356 13.066 10.356L2.93399 10.3568C1.27591 10.3568 -0.10063 11.4314 -0.0999748 12.791L-0.0999756 19.5916C-0.0999756 20.9515 1.27287 22.0163 2.93482 22.0163H2.97701V24.1735L3.72712 23.7402C3.99805 23.5837 4.33375 23.3897 4.67563 23.1918C5.46489 22.735 6.29305 22.2541 6.42782 22.1695L6.45106 22.1549C6.56468 22.0837 6.61953 22.053 6.69505 22.0372C6.77982 22.0194 6.90133 22.017 7.16162 22.0171H13.066C14.723 22.0171 16.1008 20.9524 16.1008 19.5924V12.7908ZM2.93399 11.3568C1.61392 11.3568 0.899631 12.1757 0.900025 12.7905L0.900024 19.5916C0.900024 20.2036 1.60673 21.0163 2.93482 21.0163H3.97701V22.4407L5.89554 21.3229L5.91977 21.3078L5.93061 21.3009C6.04375 21.2299 6.22977 21.113 6.48975 21.0585C6.48975 21.0585 6.80012 21.021 7 21.0171C7.0635 21.0159 7.16264 21.0171 7.16264 21.0171H13.066C14.3902 21.0171 15.1008 20.2036 15.1008 19.5924V12.7908C15.1008 12.1754 14.3849 11.356 13.066 11.356L2.93399 11.3568Z" fill="black"/>
<path fill-rule="evenodd" clip-rule="evenodd" d="M7.01457 0H20.1881C22.292 0 24.0025 1.33574 24 2.98326V11.6726C24 13.3201 22.2954 14.6426 20.1856 14.6426H20.0004V17.3055C20.0004 17.3055 16.0603 15.0718 15.7156 14.8603L15.7049 14.8537C15.3691 14.6479 15.3617 14.6434 14.65 14.6434H7.01457C4.90979 14.6434 3.19934 13.3216 3.19934 11.6734V2.98326C3.19934 1.33574 4.90979 0 7.01457 0ZM19.666 8.73552C19.9095 8.34592 20.0313 7.85687 20.0313 7.2683C20.0313 6.53102 19.8406 5.95292 19.4591 5.53402C19.0777 5.1151 18.5474 4.90565 17.8686 4.90565C17.1703 4.90565 16.6315 5.11196 16.2522 5.52458C15.8729 5.93512 15.6833 6.51426 15.6833 7.26202C15.6833 8.01608 15.8718 8.6004 16.249 9.01512C16.6283 9.42776 17.166 9.63408 17.8622 9.63408L18.0399 9.62784L18.9613 10.6646H19.7598L18.6347 9.52728C19.0787 9.38904 19.4225 9.12512 19.666 8.73552ZM16.2651 7.2683C16.2651 7.89038 16.401 8.36272 16.6725 8.68528C16.9462 9.00576 17.3427 9.166 17.8622 9.166C18.3858 9.166 18.7813 9.00576 19.0486 8.68528C19.3158 8.3648 19.4494 7.89247 19.4494 7.2683C19.4494 6.65041 19.3158 6.18227 19.0486 5.8639C18.7834 5.54344 18.3902 5.38321 17.8686 5.38321C17.3449 5.38321 16.9462 5.54449 16.6725 5.86705C16.401 6.18751 16.2651 6.6546 16.2651 7.2683ZM14.7102 9.57128L14.1218 8.11032H12.2274L11.6455 9.57128H11.0895L12.958 4.95906H13.4203L15.2791 9.57128H14.7102ZM13.401 6.20636L13.9505 7.62961H12.4214L12.9774 6.20636C13.0658 5.96549 13.1337 5.74451 13.1811 5.54344C13.2566 5.80526 13.3298 6.02623 13.401 6.20636ZM8.31904 9.57128H8.86856V7.60762H10.8277V7.1332H8.86856V5.45233H10.9538V4.97791H8.31904V9.57128Z" fill="black"/>
</svg>
