<svg width="30" height="30" viewBox="0 0 30 30" fill="none" xmlns="http://www.w3.org/2000/svg">
<path d="M4.34623 29.1341V27.3954V26.8954H3.84623H3.66849C1.79972 26.8954 0.5 25.722 0.5 24.4895L0.500001 15.9885L0.5 15.9882C0.499209 14.7542 1.80603 13.571 3.66746 13.571H4.16746V13.57H16.3325C18.1927 13.57 19.501 14.7541 19.501 15.9885V24.4905C19.501 25.7225 18.1957 26.8964 16.3325 26.8964H8.99039C8.97741 26.8964 8.96457 26.8964 8.95185 26.8964C8.65126 26.8963 8.42448 26.8962 8.24047 26.9348C8.02548 26.9799 7.8727 27.0758 7.73174 27.1642C7.72164 27.1705 7.7116 27.1768 7.7016 27.1831L7.70071 27.1836C7.5447 27.2815 6.52706 27.8726 5.53141 28.4489C5.10425 28.6961 4.68482 28.9385 4.34623 29.1341Z" stroke="black"/>
<path fill-rule="evenodd" clip-rule="evenodd" d="M8.76822 0H25.2351C27.865 0 30.0031 1.66968 30 3.72907V14.5907C30 16.6501 27.8692 18.3033 25.232 18.3033H25.0005V21.6319C25.0005 21.6319 20.0754 18.8397 19.6445 18.5754L19.6311 18.5671C19.2114 18.3099 19.2021 18.3042 18.3125 18.3042H8.76822C6.13724 18.3042 3.99918 16.652 3.99918 14.5917V3.72907C3.99918 1.66968 6.13724 0 8.76822 0ZM24.5825 10.9194C24.8869 10.4324 25.0391 9.82109 25.0391 9.08537C25.0391 8.16377 24.8007 7.44115 24.3239 6.91752C23.8471 6.39388 23.1843 6.13206 22.3357 6.13206C21.4629 6.13206 20.7894 6.38995 20.3153 6.90573C19.8411 7.4189 19.6041 8.14283 19.6041 9.07752C19.6041 10.0201 19.8398 10.7505 20.3112 11.2689C20.7854 11.7847 21.4575 12.0426 22.3277 12.0426L22.5499 12.0348L23.7016 13.3308H24.6997L23.2934 11.9091C23.8484 11.7363 24.2781 11.4064 24.5825 10.9194ZM20.3314 9.08537C20.3314 9.86298 20.5012 10.4534 20.8406 10.8566C21.1827 11.2572 21.6784 11.4575 22.3277 11.4575C22.9823 11.4575 23.4766 11.2572 23.8107 10.8566C24.1447 10.456 24.3118 9.86559 24.3118 9.08537C24.3118 8.31301 24.1447 7.72784 23.8107 7.32988C23.4793 6.9293 22.9877 6.72901 22.3357 6.72901C21.6811 6.72901 21.1827 6.93061 20.8406 7.33381C20.5012 7.73439 20.3314 8.31825 20.3314 9.08537ZM18.3877 11.9641L17.6523 10.1379H15.2843L14.5569 11.9641H13.8619L16.1975 6.19882H16.7754L19.0989 11.9641H18.3877ZM16.7512 7.75795L17.4381 9.53701H15.5267L16.2218 7.75795C16.3322 7.45686 16.4171 7.18064 16.4764 6.9293C16.5707 7.25657 16.6623 7.53279 16.7512 7.75795ZM10.3988 11.9641H11.0857V9.50952H13.5346V8.9165H11.0857V6.81541H13.6922V6.22239H10.3988V11.9641Z" fill="black"/>
</svg>
