<svg width="30" height="30" viewBox="0 0 30 30" fill="none" xmlns="http://www.w3.org/2000/svg">
<path fill-rule="evenodd" clip-rule="evenodd" d="M4.54521 12.6343H16.7881C18.744 12.6343 20.3343 13.8979 20.3343 15.4556V23.6741C20.3343 25.2318 18.744 26.4831 16.7881 26.4831H9.69071C9.02143 26.4831 9.02143 26.4869 8.70077 26.687C8.38011 26.8881 4.71803 29 4.71803 29V26.4822H4.54621C2.58431 26.4822 1 25.2308 1 23.6732V15.4556C0.999002 13.8979 2.5883 12.6353 4.54521 12.6353V12.6343Z" stroke="black"/>
<path fill-rule="evenodd" clip-rule="evenodd" d="M9.47595 0H25.3939C27.9362 0 30.003 1.61402 30 3.60477V14.1044C30 16.0951 27.9402 17.6931 25.3909 17.6931H25.1672V20.9109C25.1672 20.9109 20.4063 18.2117 19.9897 17.9562L19.9767 17.9482C19.5711 17.6996 19.5621 17.6941 18.7021 17.6941H9.47595C6.93267 17.6941 4.86588 16.097 4.86588 14.1053V3.60477C4.86588 1.61402 6.93267 0 9.47595 0ZM24.7631 10.5554C25.0574 10.0847 25.2045 9.49372 25.2045 8.78253C25.2045 7.89165 24.974 7.19312 24.5131 6.68693C24.0522 6.18075 23.4115 5.92766 22.5912 5.92766C21.7475 5.92766 21.0964 6.17695 20.6381 6.67554C20.1798 7.1716 19.9506 7.8714 19.9506 8.77494C19.9506 9.68607 20.1785 10.3922 20.6342 10.8933C21.0925 11.3919 21.7423 11.6412 22.5834 11.6412L22.7983 11.6336L23.9115 12.8864H24.8764L23.517 11.5121C24.0535 11.3451 24.4688 11.0262 24.7631 10.5554ZM20.6537 8.78253C20.6537 9.53421 20.8178 10.1049 21.1459 10.4947C21.4766 10.8819 21.9558 11.0755 22.5834 11.0755C23.2162 11.0755 23.6941 10.8819 24.017 10.4947C24.3399 10.1075 24.5014 9.53674 24.5014 8.78253C24.5014 8.03591 24.3399 7.47025 24.017 7.08555C23.6967 6.69832 23.2214 6.50471 22.5912 6.50471C21.9584 6.50471 21.4766 6.69959 21.1459 7.08935C20.8178 7.47658 20.6537 8.04097 20.6537 8.78253ZM18.7748 11.5653L18.0639 9.79996H15.7748L15.0717 11.5653H14.3998L16.6576 5.9922H17.2162L19.4623 11.5653H18.7748ZM17.1928 7.49936L17.8568 9.21911H16.0092L16.6811 7.49936C16.7878 7.2083 16.8699 6.94129 16.9272 6.69832C17.0183 7.01469 17.1068 7.2817 17.1928 7.49936ZM11.0522 11.5653H11.7162V9.19254H14.0834V8.61929H11.7162V6.58823H14.2358V6.01497H11.0522V11.5653Z" fill="black"/>
</svg>
