<svg width="24" height="24" viewBox="0 0 24 24" fill="none" xmlns="http://www.w3.org/2000/svg">
<path d="M22.9669 0H1.03445C0.646856 0 0.292856 0.21 0.115256 0.546C-0.0647441 0.8856 -0.0323441 1.296 0.196856 1.6068L8.23209 12.648L8.24049 12.66C8.53209 13.044 8.69049 13.5096 8.69049 13.9884V22.9908C8.68929 23.2584 8.79609 23.514 8.98929 23.7036C9.18129 23.892 9.44409 23.9988 9.71649 23.9988C9.85569 23.9988 9.99249 23.9712 10.1209 23.9196L14.6365 22.2396C15.0409 22.1196 15.3085 21.7476 15.3085 21.2988V13.9884C15.3097 13.5096 15.4681 13.044 15.7597 12.6588L15.7681 12.648L23.8033 1.6056C24.0325 1.2936 24.0637 0.8856 23.8849 0.5448C23.7085 0.21 23.3521 0 22.9669 0Z" fill="black"/>
</svg>
