<svg width="30" height="30" viewBox="0 0 30 30" fill="none" xmlns="http://www.w3.org/2000/svg">
<g clip-path="url(#clip0)">
<path d="M28.7087 0H1.29316C0.808662 0 0.366162 0.2625 0.144162 0.6825C-0.0808385 1.107 -0.0403385 1.62 0.246162 2.0085L10.2902 15.81L10.3007 15.825C10.6652 16.305 10.8632 16.887 10.8632 17.4855V28.7385C10.8617 29.073 10.9952 29.3925 11.2367 29.6295C11.4767 29.865 11.8052 29.9985 12.1457 29.9985C12.3197 29.9985 12.4907 29.964 12.6512 29.8995L18.2957 27.7995C18.8012 27.6495 19.1357 27.1845 19.1357 26.6235V17.4855C19.1372 16.887 19.3352 16.305 19.6997 15.8235L19.7102 15.81L29.7542 2.007C30.0407 1.617 30.0797 1.107 29.8562 0.681C29.6357 0.2625 29.1902 0 28.7087 0Z" fill="black"/>
</g>
<defs>
<clipPath id="clip0">
<rect width="30" height="30" fill="white"/>
</clipPath>
</defs>
</svg>
