<svg width="24" height="24" viewBox="0 0 24 24" fill="none" xmlns="http://www.w3.org/2000/svg">
<path fill-rule="evenodd" clip-rule="evenodd" d="M23.2918 2.55922C23.4194 1.58335 22.2543 1.1126 21.6223 1.73312L13.6 9.99999L18.0001 14.4L18.3536 13.9634C20.4505 11.0131 22.7173 6.95253 23.2918 2.55922ZM17.5872 12.2589C19.118 9.98228 20.6025 7.20658 21.3428 4.24618L15.3893 10.0758L17.5872 12.2589Z" fill="black"/>
<path fill-rule="evenodd" clip-rule="evenodd" d="M14.837 18.5998L10.0467 13.6898L3.58468 20.2778C2.73947 21.1406 2.73856 22.5344 3.58473 23.397C4.4391 24.2679 5.83232 24.2679 6.68667 23.3969L11.9971 17.9829L12.6324 18.6304L12.633 18.6311C13.2446 19.2561 14.2458 19.2381 14.837 18.5998ZM11.4379 16.2681L10.6099 15.4005L5.468 20.6427L4.72728 21.3978C4.57742 21.551 4.52287 21.7671 4.5632 21.9659C4.58639 22.0803 4.64098 22.1889 4.72687 22.2765C4.954 22.508 5.31731 22.5081 5.54443 22.2765L11.4379 16.2681Z" fill="black"/>
<path fill-rule="evenodd" clip-rule="evenodd" d="M6.4158 0L11.5741 5.15921C12.6666 6.25165 12.7982 7.94232 11.9689 9.17888L23.251 19.8617C24.232 20.7899 24.2505 22.3438 23.2968 23.2976C22.3426 24.2517 20.7895 24.2316 19.8616 23.251L9.17809 11.969C7.94153 12.7983 6.25087 12.6667 5.15844 11.5742L0 6.4158L6.4158 0ZM2.22448 6.41579L6.27068 10.462C6.89846 11.0898 7.91788 11.0898 8.54568 10.462C8.93309 10.0746 9.56102 10.0849 9.93562 10.4813C9.93605 10.4818 9.93647 10.4822 9.93689 10.4827L21.0039 22.1697C21.3222 22.506 21.8558 22.5141 22.1846 22.1853C22.5137 21.8562 22.5057 21.322 22.1699 21.0042L10.4738 9.92931C10.0939 9.56036 10.0711 8.93769 10.4616 8.54674C11.0894 7.91898 11.0897 6.89925 10.4619 6.27147L6.41571 2.22457L5.75996 2.88032L9.23759 6.35731L8.12545 7.46965L4.64772 3.99255L3.99251 4.64776L7.46961 8.12549L6.35727 9.23763L2.88027 5.76L2.22448 6.41579Z" fill="black"/>
</svg>
