<svg width="24" height="24" viewBox="0 0 24 24" fill="none" xmlns="http://www.w3.org/2000/svg">
<path d="M24 11L20.676 22.3417C20.5198 22.949 19.7125 22.9979 19.5135 23H4.53125C3.99687 23 3.30417 22.3781 3.30417 22.3781L0 11H24ZM15.0375 13H9C10.0063 14.0073 11.0125 14.5115 12.0187 14.5115C13.5656 14.5115 15.0375 13 15.0375 13Z" fill="black"/>
<mask id="mask0" mask-type="alpha" maskUnits="userSpaceOnUse" x="0" y="1" width="24" height="10">
<path d="M0 1H24V11H0V1Z" fill="white"/>
</mask>
<g mask="url(#mask0)">
<path d="M12.5 2.46668C10.5677 2.46668 9 5.37605 9 8.96564C9 12.5552 10.5677 15.4656 12.5 15.4656C14.4323 15.4656 16 12.5552 16 8.96564C16 5.37605 14.4323 2.46564 12.5 2.46564V2.46668ZM14.3698 5.18543C13.7458 5.18543 11.9333 4.67501 11.1583 3.67501C11.1583 3.67501 13.2375 3.7823 14.3698 5.18543ZM15.0302 7.27085C14.4063 7.27085 11.3292 6.07814 10.5542 5.07814C10.5542 5.07814 13.8979 5.86772 15.0302 7.27085ZM10.7625 13.3448C10.7625 13.3448 12.6104 13.5271 13.3177 14.4781C12.9292 14.4781 11.2458 14.024 10.7625 13.3448ZM10.1583 11.7083C10.1583 11.7083 12.8802 11.9427 13.9219 13.3448C13.349 13.3448 10.8698 12.7073 10.1583 11.7083ZM10.1583 10.1646C10.1583 10.1646 13.2375 10.5323 14.3698 11.9354C13.7458 11.9354 10.9323 11.1646 10.1583 10.1646ZM10.1583 8.62189C10.1583 8.62189 13.2375 8.9896 14.3698 10.3927C13.7458 10.3927 10.9323 9.62085 10.1583 8.62189ZM10.2521 6.76147C10.2521 6.76147 13.5958 7.55105 14.7281 8.95418C14.1042 8.95418 11.0271 7.76147 10.2521 6.76147Z" fill="black"/>
<path d="M4.71458 9.43855V13.9229H8.22917V9.43855H4.71458ZM6.46771 13.3344C5.83438 13.3344 5.31458 12.7969 5.31458 12.1406C5.31458 11.4844 5.82604 10.9469 6.46771 10.9469H6.48333C6.34583 10.5302 6.06146 10.1969 6.06146 10.1886L6.17604 10.0865C6.18333 10.1031 6.32188 10.2656 6.45938 10.5031C6.52396 10.3761 6.74375 10.274 7.00313 10.2656C7.31979 10.2563 7.5875 10.3844 7.5875 10.5469C7.59583 10.7167 7.33646 10.8625 7.01979 10.8792C6.84896 10.8875 6.69479 10.8531 6.58958 10.7938C6.61354 10.8458 6.63021 10.9042 6.64583 10.9563C7.19792 11.0406 7.6125 11.5438 7.6125 12.1406C7.6125 12.8063 7.10104 13.3344 6.46667 13.3344H6.46771ZM8.2375 6.5146H4.69792L4.00833 7.23022H9L8.2375 6.5146ZM8.2375 5.46564L4.70625 5.47397L4.69792 6.21564H8.22917V5.46564H8.2375V5.46564ZM4 7.54585V15.4656H9V7.54585H4ZM8.52083 14.2292H4.41354V9.1323H8.52083V14.2302V14.2292ZM4.71458 9.43751V13.924H8.22917V9.43855H4.71458V9.43751Z" fill="black"/>
<path d="M17.824 13.3344C16.4459 13.3344 15.3157 12.176 15.3157 10.7615C15.3157 9.34688 16.4282 8.18959 17.824 8.18959H17.8594C17.5594 7.28959 16.9407 6.57292 16.9407 6.55417L17.1886 6.33438C17.2063 6.37084 17.5063 6.7198 17.8063 7.23438C17.948 6.95834 18.425 6.73855 18.9907 6.7198C19.6792 6.70105 20.2615 6.97709 20.2615 7.32605C20.2803 7.69376 19.7146 8.00626 19.0261 8.04271C18.6542 8.06042 18.3188 7.98751 18.0886 7.85834C18.1428 7.96876 18.1771 8.09792 18.2136 8.20834C19.4146 8.39167 20.3157 9.47605 20.3157 10.7615C20.3157 12.1948 19.2021 13.3344 17.824 13.3344Z" fill="black"/>
</g>
</svg>
