<svg width="30" height="30" viewBox="0 0 30 30" fill="none" xmlns="http://www.w3.org/2000/svg">
<path fill-rule="evenodd" clip-rule="evenodd" d="M25.3967 5.37564L13.9707 24.8145L9.53363 22.0892L20.9596 2.65137L25.3967 5.37564Z" fill="black"/>
<path fill-rule="evenodd" clip-rule="evenodd" d="M24.8888 5.50562L13.8444 24.2954L10.0413 21.9601L21.0867 3.16937L24.8888 5.50562Z" fill="black" stroke="black"/>
<path fill-rule="evenodd" clip-rule="evenodd" d="M10.1163 22.0065L13.7646 24.247C13.3564 24.6784 12.6001 25.4564 11.7906 26.1882C9.57104 28.1958 9.08888 27.9388 9.08395 27.9358C9.08 27.9338 8.63334 27.6214 9.34721 24.6864C9.60752 23.6151 9.93192 22.5729 10.1163 22.0055" fill="black"/>
<path fill-rule="evenodd" clip-rule="evenodd" d="M8.89371 28.2603C7.78444 27.579 9.91424 21.441 9.91424 21.441L14.3513 24.1663C14.3513 24.1663 10.003 28.9416 8.89371 28.2603ZM9.32756 27.5266C9.62139 27.4157 10.3343 27.0297 11.7827 25.6892C12.2578 25.2469 12.7214 24.7919 13.173 24.3246L10.3234 22.5749C10.1287 23.1967 9.94955 23.8235 9.78606 24.4546C9.29305 26.3846 9.28713 27.2081 9.32756 27.5266" fill="black"/>
<path fill-rule="evenodd" clip-rule="evenodd" d="M25.8414 3.88595L25.0802 5.18106C25.0052 5.30882 24.9064 5.42024 24.7893 5.50894C24.6722 5.59764 24.5392 5.66189 24.3978 5.69802C24.2565 5.73415 24.1095 5.74145 23.9654 5.7195C23.8212 5.69755 23.6827 5.64678 23.5578 5.5701L21.6567 4.40097C21.5318 4.32447 21.4228 4.22354 21.336 4.10395C21.2493 3.98437 21.1864 3.84847 21.1511 3.70404C21.1157 3.55961 21.1086 3.40947 21.13 3.26221C21.1515 3.11495 21.2011 2.97346 21.2761 2.84582L22.0383 1.5497C22.19 1.29205 22.4355 1.10647 22.721 1.03372C23.0064 0.960966 23.3084 1.00699 23.5607 1.16167L25.4618 2.32879C25.9873 2.65131 26.1569 3.34875 25.8414 3.88595Z" fill="black" stroke="black"/>
<path d="M4 28.6312C4.80853 27.8047 4.82135 27.073 5.27394 27.455C5.64468 27.7715 5.99669 28.1121 6.32799 28.473C6.62971 28.7904 7.10891 29.0777 7.39585 28.9809C7.65024 28.9406 7.88392 28.8177 8.06634 28.6322C8.20537 28.4609 8.35623 28.3026 8.51793 28.1555C8.59074 28.0757 8.68058 28.0142 8.78046 27.9757C8.88034 27.9373 8.98756 27.9229 9.09377 27.9338C9.28506 27.964 9.24167 27.71 9.36788 27.9338" stroke="black"/>
</svg>
