<svg width="24" height="24" viewBox="0 0 24 24" fill="none" xmlns="http://www.w3.org/2000/svg">
<path fill-rule="evenodd" clip-rule="evenodd" d="M20.3173 4.30051L11.1765 19.8516L7.62689 17.6714L16.7677 2.12109L20.3173 4.30051Z" fill="black"/>
<path fill-rule="evenodd" clip-rule="evenodd" d="M19.911 4.40449L11.0755 19.4363L8.03302 17.5681L16.8693 2.53549L19.911 4.40449Z" fill="black" stroke="black"/>
<path fill-rule="evenodd" clip-rule="evenodd" d="M8.09303 17.6052L11.0117 19.3976C10.6851 19.7427 10.0801 20.3651 9.43247 20.9506C7.65682 22.5566 7.27109 22.351 7.26715 22.3486C7.26399 22.347 6.90666 22.0971 7.47776 19.7491C7.686 18.8921 7.94552 18.0583 8.09303 17.6044" fill="black"/>
<path fill-rule="evenodd" clip-rule="evenodd" d="M7.11497 22.6082C6.22756 22.0632 7.93139 17.1528 7.93139 17.1528L11.481 19.333C11.481 19.333 8.0024 23.1533 7.11497 22.6082ZM7.46205 22.0213C7.69712 21.9326 8.26744 21.6238 9.42616 20.5514C9.80624 20.1975 10.1771 19.8335 10.5384 19.4597L8.25872 18.0599C8.10296 18.5574 7.95964 19.0588 7.82885 19.5637C7.43444 21.1077 7.42971 21.7665 7.46205 22.0213Z" fill="black"/>
<path fill-rule="evenodd" clip-rule="evenodd" d="M20.6731 3.10875L20.0642 4.14483C20.0042 4.24704 19.9251 4.33618 19.8314 4.40714C19.7378 4.4781 19.6314 4.5295 19.5182 4.5584C19.4052 4.58731 19.2876 4.59315 19.1723 4.57559C19.057 4.55803 18.9462 4.51741 18.8462 4.45607L17.3254 3.52076C17.2254 3.45956 17.1382 3.37882 17.0688 3.28315C16.9994 3.18748 16.9491 3.07876 16.9209 2.96322C16.8926 2.84768 16.8869 2.72756 16.904 2.60975C16.9212 2.49195 16.9609 2.37876 17.0209 2.27664L17.6306 1.23975C17.752 1.03363 17.9484 0.885163 18.1768 0.826963C18.4051 0.76876 18.6467 0.805579 18.8486 0.929323L20.3694 1.86302C20.7898 2.12104 20.9255 2.67899 20.6731 3.10875Z" fill="black" stroke="black"/>
<path d="M3.20001 22.905C3.84684 22.2438 3.85709 21.6584 4.21916 21.964C4.51576 22.2172 4.79736 22.4897 5.0624 22.7784C5.30378 23.0323 5.68714 23.2622 5.91669 23.1847C6.1202 23.1525 6.30715 23.0542 6.45308 22.9058C6.56431 22.7687 6.685 22.6421 6.81436 22.5244C6.8726 22.4606 6.94448 22.4114 7.02438 22.3806C7.10428 22.3499 7.19006 22.3383 7.27503 22.3471C7.42806 22.3712 7.39335 22.168 7.49432 22.3471" stroke="black"/>
</svg>
