<svg width="24" height="24" viewBox="0 0 24 24" fill="none" xmlns="http://www.w3.org/2000/svg">
<path d="M15.6192 6.83928H8C7.6952 6.83928 7.4284 6.5726 7.4284 6.26784V2.6488C7.4284 1.81072 8.1144 1.125 8.9524 1.125H14.6668C15.5048 1.125 16.1904 1.81072 16.1904 2.6488V6.26784C16.1904 6.5726 15.9236 6.83928 15.6192 6.83928ZM8.9524 5.31548H14.6668V3.02976C14.6668 2.8012 14.5144 2.6488 14.2856 2.6488H9.3332C9.1048 2.6488 8.9524 2.8012 8.9524 3.02976V5.31548Z" fill="black"/>
<path d="M1.9048 23.6012H3.0476C1.9808 23.6012 1.1428 22.7631 1.1428 21.6964V7.22024C1.1428 6.15356 1.9808 5.31548 3.0476 5.31548H1.9048C0.838 5.31548 0 6.15356 0 7.22024V21.6964C0 22.7631 0.838 23.6012 1.9048 23.6012ZM22.0952 5.31548H20.9524C22.0192 5.31548 22.8572 6.15356 22.8572 7.22024V21.6964C22.8572 22.7631 22.0192 23.6012 20.9524 23.6012H22.0952C23.162 23.6012 24 22.7631 24 21.6964V7.22024C24 6.15356 23.162 5.31548 22.0952 5.31548Z" fill="black"/>
<path fill-rule="evenodd" clip-rule="evenodd" d="M22.0952 23.6012H1.9048C0.838 23.6012 0 22.7631 0 21.6964V7.22024C0 6.15356 0.838 5.31548 1.9048 5.31548H22.0952C23.162 5.31548 24 6.15356 24 7.22024V21.6964C24 22.7631 23.162 23.6012 22.0952 23.6012ZM8.87 18.4187C9.3952 18.4187 9.8012 18.3494 10.5044 18.1513C10.9896 18.0127 11.2076 17.973 11.6732 17.9334C11.6532 17.6164 11.6436 17.458 11.6436 16.943V16.101C11.6436 15.5167 11.6732 15.3284 11.792 15.2195C11.9008 15.1106 12.0596 15.071 12.416 15.061V14.8035H9.494V15.061C10.2788 15.0892 10.3956 15.1723 10.4044 15.8854L10.4052 17.6858C10.2668 17.8145 10.1872 17.8641 9.9992 17.9334C9.6724 18.0721 9.3256 18.1414 9.0284 18.1414C8.5332 18.1414 8.0876 17.9631 7.7708 17.6462C7.196 17.0518 6.8496 15.8732 6.8496 14.4964C6.8496 13.5456 7.008 12.7334 7.3152 12.0896C7.6616 11.3666 8.266 10.9802 9.0384 10.9802C9.692 10.9802 10.2668 11.2774 10.6528 11.8222C10.9104 12.1787 11.0492 12.575 11.1484 13.1692L11.5148 13.1593V10.8614C11.2672 10.9604 11.1184 10.9902 10.9304 10.9902C10.7816 10.9902 10.6332 10.9703 10.4844 10.9307C9.702 10.7426 9.4644 10.703 8.9592 10.703C6.81 10.703 5.4232 12.258 5.4232 14.6846C5.4232 17.032 6.7108 18.4187 8.87 18.4187ZM16.0708 18.0027V18.2602H12.9408V18.0027C13.7532 17.973 13.8324 17.8839 13.8324 16.9826V12.1391C13.8324 11.2378 13.7532 11.1487 12.9804 11.109V10.8515H15.962C17.9824 10.8515 18.864 11.4755 18.864 12.9117C18.864 13.922 18.448 14.5658 17.596 14.8827C17.1604 15.0412 16.4372 15.1402 15.6052 15.1402H15.12V16.9826C15.12 17.8839 15.2092 17.973 16.0708 18.0027ZM15.6352 14.853H15.12V11.1387H15.754C16.9028 11.1387 17.4872 11.7528 17.4872 12.9711C17.4872 13.6149 17.3188 14.1399 17.002 14.447C16.7148 14.7143 16.2492 14.853 15.6352 14.853Z" fill="black"/>
</svg>
