<svg width="24" height="24" viewBox="0 0 24 24" fill="none" xmlns="http://www.w3.org/2000/svg">
<path opacity="0.719" fill-rule="evenodd" clip-rule="evenodd" d="M22.66 7.74891C23.516 8.58224 24 9.7369 24 10.9449C23.9986 12.2822 23.3999 13.5449 22.3746 14.3769C21.324 15.2249 20.4626 16.2902 19.844 17.5035L19.7733 17.6475C19.7533 17.6822 19.7186 17.7035 19.68 17.7035C19.6426 17.7035 19.6066 17.6822 19.5893 17.6475L19.4653 17.3942C18.8493 16.2222 18.0013 15.1942 16.9746 14.3769C15.8706 13.4742 15.2707 12.0769 15.3707 10.6369C15.5026 8.54224 17.4106 6.63691 19.4666 6.53558C20.6493 6.47691 21.8026 6.91558 22.66 7.74891ZM22.1271 11.6953C22.4333 10.2864 21.586 8.90613 20.2346 8.61247C18.8832 8.31881 17.5395 9.22293 17.2334 10.6319C16.9272 12.0408 17.7745 13.4211 19.1259 13.7147C20.4773 14.0084 21.821 13.1043 22.1271 11.6953Z" fill="black"/>
<path opacity="0.719" fill-rule="evenodd" clip-rule="evenodd" d="M7.3001 7.74894C8.1561 8.58227 8.6401 9.73693 8.6401 10.9449C8.63872 12.2822 8.04006 13.545 7.01477 14.3769C5.9641 15.2249 5.10277 16.2902 4.48411 17.5036L4.41344 17.6476C4.39344 17.6822 4.35877 17.7036 4.32011 17.7036C4.28277 17.7036 4.24678 17.6822 4.22944 17.6476L4.10544 17.3942C3.48944 16.2222 2.64145 15.1943 1.61478 14.3769C0.510785 13.4743 -0.089213 12.0769 0.0107868 10.6369C0.142786 8.54227 2.05078 6.63694 4.10678 6.53561C5.28944 6.47694 6.44277 6.91561 7.3001 7.74894ZM6.76728 11.6953C7.07345 10.2864 6.22614 8.90616 4.87476 8.6125C3.52338 8.31884 2.17967 9.22296 1.8735 10.6319C1.56733 12.0409 2.41464 13.4211 3.76602 13.7147C5.1174 14.0084 6.46111 13.1043 6.76728 11.6953Z" fill="black"/>
<path fill-rule="evenodd" clip-rule="evenodd" d="M16.968 5.76626C18.2587 6.97426 18.988 8.65026 18.9867 10.4009C18.9853 12.3396 18.0827 14.1729 16.5387 15.3809C14.956 16.6102 13.6587 18.1556 12.7254 19.9142L12.6187 20.1236C12.5907 20.1729 12.5374 20.2036 12.48 20.2036C12.4214 20.2036 12.368 20.1729 12.3414 20.1236L12.1547 19.7569C11.2294 18.0569 9.94937 16.5662 8.40271 15.3796C6.74138 14.0716 5.83872 12.0449 5.98805 9.95825C6.18672 6.91693 9.06004 4.15427 12.1587 4.0076C13.94 3.92227 15.6774 4.55827 16.968 5.76626ZM16.2768 11.2323C16.7249 9.17002 15.389 7.12891 13.2928 6.67341C11.1967 6.21791 9.13411 7.5205 8.68595 9.58283C8.2378 11.6452 9.57377 13.6863 11.6699 14.1418C13.7661 14.5973 15.8286 13.2947 16.2768 11.2323Z" fill="black"/>
</svg>
