<svg width="24" height="24" viewBox="0 0 24 24" fill="none" xmlns="http://www.w3.org/2000/svg">
<g clip-path="url(#clip0_1_23)">
<path fill-rule="evenodd" clip-rule="evenodd" d="M2 12C2 17.5229 6.47715 22 12 22C17.5228 22 22 17.5229 22 12C22 6.4772 17.5228 2 12 2C6.47715 2 2 6.4772 2 12ZM12 24C5.37258 24 0 18.6274 0 12C0 5.3726 5.37258 0 12 0C18.6274 0 24 5.3726 24 12C24 18.6274 18.6274 24 12 24Z" fill="black"/>
<path d="M6.64645 21.2028L21.5 6" stroke="black"/>
<line x1="2.64645" y1="18.2028" x2="18.2028" y2="2.64645" stroke="black"/>
</g>
<path d="M1.03985 12.3535L12.3536 1.03984M11.6464 22.9601L22.9602 11.6464" stroke="black"/>
<defs>
<clipPath id="clip0_1_23">
<rect width="24" height="24" fill="white" transform="translate(0 24) rotate(-90)"/>
</clipPath>
</defs>
</svg>
