<svg width="24" height="24" viewBox="0 0 24 24" fill="none" xmlns="http://www.w3.org/2000/svg">
<path fill-rule="evenodd" clip-rule="evenodd" d="M2 12C2 17.5229 6.47715 22 12 22C17.5228 22 22 17.5229 22 12C22 6.4772 17.5228 2 12 2C6.47715 2 2 6.4772 2 12ZM12 24C5.37258 24 0 18.6274 0 12C0 5.3726 5.37258 0 12 0C18.6274 0 24 5.3726 24 12C24 18.6274 18.6274 24 12 24Z" fill="black"/>
<path d="M6.64644 21.2028L21.5 6" stroke="black"/>
<line x1="2.64645" y1="18.2028" x2="18.2028" y2="2.64645" stroke="black"/>
<path d="M22.2028 18.0282L7.00002 3.17463" stroke="black"/>
<line x1="18.2028" y1="21.9099" x2="2.64645" y2="6.35356" stroke="black"/>
<path d="M12.3137 22.9203L0.999997 11.6066M22.9203 12.3137L11.6066 0.999994" stroke="black"/>
<path d="M1.03986 12.3535L12.3536 1.03984M11.6465 22.9601L22.9602 11.6464" stroke="black"/>
</svg>
