<svg width="24" height="24" viewBox="0 0 24 24" fill="none" xmlns="http://www.w3.org/2000/svg">
<path d="M10 15H14.8V22.636H10V15Z" fill="black"/>
<path d="M18.8 2C19.131 2 19.4 2.247 19.4 2.553V23H15.8V14.71C15.8 14.405 15.531 14.158 15.2 14.158H9.2C8.869 14.158 8.6 14.405 8.6 14.711V23H5V2.553C5 2.247 5.269 2 5.6 2H18.8ZM11.87 4.333H9.178V4.577C9.871 4.605 9.942 4.698 9.942 5.541V10.117C9.942 10.977 9.872 11.062 9.142 11.09V11.333H11.905V11.09C11.193 11.063 11.103 10.983 11.097 10.203V7.768H14.046V10.117C14.046 10.977 13.975 11.062 13.238 11.09V11.333H16V11.09C15.297 11.063 15.206 10.983 15.2 10.203V5.54C15.2 4.697 15.272 4.604 15.973 4.576V4.332H13.273V4.576C13.933 4.602 14.035 4.686 14.045 5.399V7.458H11.097V5.541C11.097 4.698 11.168 4.605 11.87 4.577V4.333Z" fill="black"/>
<path fill-rule="evenodd" clip-rule="evenodd" d="M0.4 10.59H3.44C3.66 10.59 3.84 10.77 3.84 10.99V23H0V10.99C0 10.77 0.18 10.59 0.4 10.59ZM20.56 10.59H23.6C23.82 10.59 24 10.77 24 10.99V23H20.16V10.99C20.16 10.77 20.34 10.59 20.56 10.59Z" fill="black"/>
</svg>
