<svg width="24" height="24" viewBox="0 0 24 24" fill="none" xmlns="http://www.w3.org/2000/svg">
<path d="M13.2581 19.8206C13.446 19.9753 13.5446 20.213 13.5206 20.4551V22.0449L13.032 22.0085L12.9079 21.6949C12.8205 21.8159 12.7058 21.9137 12.5726 21.9793C12.4294 22.0398 12.2749 22.0668 12.1204 22.0595C11.9235 22.0704 11.7323 21.9968 11.5931 21.8575C11.4544 21.719 11.3801 21.5264 11.391 21.3302C11.3764 21.1085 11.4788 20.8956 11.661 20.7687C11.9044 20.6273 12.1815 20.5572 12.4631 20.5645H12.8786V20.4551C12.891 20.3537 12.8554 20.2524 12.7826 20.1809C12.7095 20.1095 12.6075 20.0759 12.507 20.0905C12.2711 20.1014 12.0401 20.1612 11.8286 20.2655L11.6171 19.828C11.898 19.6807 12.2115 19.6055 12.5288 19.6092C12.789 19.5946 13.0466 19.669 13.2581 19.8206ZM19.0995 18.7195V22.0376H18.6034L18.4942 21.6949C18.3502 21.9407 18.0769 22.0799 17.7941 22.0522C17.5316 22.0624 17.2811 21.9392 17.1304 21.7241C16.953 21.4571 16.8679 21.1392 16.8896 20.8198C16.8716 20.4982 16.9552 20.1788 17.1304 19.9082C17.2886 19.6938 17.5425 19.5713 17.8087 19.58C18.0529 19.5683 18.2861 19.6719 18.4403 19.8572L18.4942 19.9301C18.465 19.7711 18.4474 19.6099 18.4429 19.4487V18.7195H19.0995ZM9.37088 19.8644C9.56438 20.0854 9.66337 20.3735 9.648 20.6666V20.9656H8.10938C8.10863 21.1253 8.16862 21.2792 8.277 21.3959C8.391 21.5089 8.547 21.5672 8.7075 21.5563C8.84438 21.5563 8.98162 21.5417 9.11587 21.5126C9.25425 21.4775 9.3885 21.4287 9.51675 21.3667V21.8699C9.40162 21.9282 9.279 21.9727 9.15225 22.0012C8.99625 22.031 8.83725 22.0478 8.67825 22.0522C8.34712 22.0727 8.022 21.9603 7.77375 21.7386C7.5465 21.4951 7.42987 21.1669 7.45312 20.8343C7.42912 20.4989 7.53637 20.1663 7.752 19.9082C7.96725 19.6814 8.27138 19.5611 8.58338 19.58C8.87363 19.5632 9.15826 19.6661 9.37088 19.8644ZM7.16137 19.58L7.11037 20.2364C6.87487 20.1809 6.62663 20.2313 6.432 20.3749C6.31088 20.4931 6.24675 20.6579 6.25687 20.8271V22.0376H5.60812V19.6238H6.10388L6.19875 20.0249C6.28837 19.8863 6.41476 19.7755 6.56326 19.704C6.67576 19.6281 6.807 19.5851 6.94275 19.58H7.16137ZM10.8589 18.6903L10.8296 22.0085H10.2098V18.6903H10.8589ZM16.146 19.8061C16.3035 19.9841 16.3823 20.2181 16.3646 20.4551V22.0085H15.7084V20.6156C15.7178 20.4806 15.687 20.3465 15.6206 20.2291C15.5524 20.1386 15.4421 20.0891 15.3292 20.0978C15.1751 20.0861 15.0259 20.1554 14.9351 20.2801C14.8361 20.4653 14.793 20.6761 14.8114 20.8854V22.0085H14.1622V19.6238H14.658L14.7457 19.9301H14.7821C14.8523 19.8134 14.9573 19.7222 15.081 19.6676C15.219 19.6063 15.3686 19.5764 15.5186 19.58C15.7507 19.5611 15.9795 19.6435 16.146 19.8061ZM4.87162 18.8872V22.0085H4.20788V18.8872H4.87162ZM12.8423 20.9072H12.5869C12.4391 20.9015 12.2932 20.9364 12.1642 21.0094C12.0694 21.0721 12.0169 21.1808 12.0255 21.2938C12.0255 21.4761 12.135 21.5709 12.339 21.5709C12.4732 21.5782 12.6053 21.5308 12.7039 21.4397C12.7976 21.3506 12.8483 21.226 12.8423 21.0969V20.9072ZM18.0056 20.1051C17.8676 20.1044 17.7401 20.1766 17.67 20.2947C17.5789 20.4566 17.5358 20.6411 17.5459 20.8271C17.5335 21.013 17.5766 21.1982 17.67 21.3594C17.748 21.4746 17.8815 21.541 18.0199 21.5345C18.1579 21.5447 18.2921 21.4907 18.3848 21.3886C18.4796 21.2413 18.5261 21.0677 18.516 20.8927V20.8271C18.5306 20.6338 18.4875 20.4405 18.3919 20.2728C18.2993 20.1561 18.1541 20.0927 18.0056 20.1051ZM8.58338 20.0395C8.4615 20.0315 8.34262 20.0795 8.26237 20.1707C8.1765 20.2757 8.12775 20.407 8.124 20.5427H9.04276C9.045 20.407 8.9985 20.275 8.9115 20.1707C8.82638 20.081 8.7075 20.0329 8.58338 20.0395ZM16.5469 14.6138C16.7437 14.8325 16.8439 15.122 16.824 15.416V15.7295H15.3146C15.3139 15.8892 15.3735 16.0431 15.4823 16.1598C15.5959 16.2721 15.7526 16.3304 15.9124 16.3202C16.0496 16.3202 16.1869 16.3056 16.3208 16.2764C16.4595 16.2415 16.5938 16.1926 16.722 16.1306V16.6338C16.6069 16.6922 16.4842 16.7366 16.3575 16.7651C16.191 16.7921 16.0226 16.8037 15.8543 16.8015C15.5201 16.8387 15.1882 16.7228 14.9497 16.4858C14.712 16.2495 14.5939 15.917 14.6291 15.5837C14.6047 15.2482 14.712 14.9156 14.928 14.6575C15.3803 14.2374 16.0729 14.2185 16.5469 14.6138ZM10.7201 13.8626V14.4023H11.391V14.8909H10.7201V16.0431C10.7115 16.1204 10.7411 16.1963 10.8004 16.2473C10.8615 16.2838 10.9346 16.2962 11.0044 16.2838C11.1431 16.2801 11.2815 16.2553 11.4131 16.2108V16.6922C11.2234 16.7702 11.019 16.8074 10.815 16.8015C10.6057 16.8212 10.3984 16.749 10.2461 16.6046C10.1149 16.4369 10.05 16.2269 10.0639 16.0139V14.8617H9.7575V14.5846L10.1149 14.3658L10.3046 13.8626H10.7201ZM6.32287 14.3294C6.53362 14.3264 6.74138 14.3768 6.92813 14.4752C7.101 14.5773 7.24013 14.726 7.329 14.9054C7.42838 15.1097 7.47788 15.335 7.47488 15.5618C7.49176 15.8951 7.37999 16.2218 7.16137 16.4734C6.93749 16.7002 6.62662 16.8197 6.30825 16.8015C6.09675 16.8052 5.88863 16.7549 5.703 16.6557C5.52638 16.5536 5.38425 16.4012 5.29425 16.2181C5.19825 16.0132 5.15062 15.7879 5.15587 15.5618C5.13675 15.23 5.24625 14.9033 5.46225 14.6502C5.691 14.4271 6.00337 14.3104 6.32287 14.3294ZM9.56062 14.3294L9.51675 14.9419C9.45112 14.9332 9.3855 14.9332 9.31987 14.9419C9.14512 14.9361 8.97488 14.993 8.83875 15.1023C8.71763 15.2205 8.6535 15.3853 8.66362 15.5545V16.7651H8.022V14.4023H8.51775L8.61263 14.8034H8.649C8.71837 14.6721 8.82187 14.5613 8.94787 14.4825C9.06112 14.3935 9.198 14.3402 9.342 14.3294H9.56062ZM21.3307 14.5846C21.4882 14.7625 21.567 14.9966 21.5498 15.2336V16.7578H20.9006V15.3649C20.9077 15.2292 20.8751 15.095 20.8057 14.9784C20.7379 14.8872 20.628 14.8376 20.514 14.8471C20.3603 14.8355 20.2106 14.9047 20.1202 15.0294C20.0212 15.2147 19.9781 15.4254 19.9965 15.6347V16.7578H19.3474V14.4023H19.8431L19.9309 14.7086H19.9673C20.0374 14.5919 20.1424 14.5007 20.2661 14.446C20.4041 14.3848 20.5534 14.3549 20.7037 14.3585C20.9355 14.3396 21.1646 14.4219 21.3307 14.5846ZM2.6325 13.673L3.98887 16.0139V13.673H4.587L4.56525 16.7578H3.72638L2.36287 14.4023V16.7578H1.794V13.673H2.6325ZM12.5505 13.4396V14.6794C12.6949 14.4387 12.9641 14.3031 13.2435 14.3294C13.4798 14.3104 13.713 14.3928 13.8851 14.5554C14.0411 14.7341 14.1199 14.9675 14.1037 15.2045V16.7578H13.4475V15.3649C13.4475 15.0221 13.3237 14.8471 13.0684 14.8471C12.9109 14.8361 12.7582 14.9076 12.6671 15.0367C12.5745 15.2219 12.5344 15.4283 12.5505 15.6347V16.7578H11.8942V13.4396H12.5505ZM18.9097 14.3294L18.8588 14.9419C18.6233 14.8865 18.3754 14.9368 18.1804 15.0805C18.0592 15.1986 17.9951 15.3634 18.0056 15.5326V16.7432H17.3565V14.4023H17.8522L17.9471 14.8034C18.0188 14.6735 18.1223 14.5627 18.246 14.4825C18.3739 14.384 18.5306 14.3294 18.6911 14.3294H18.9097ZM6.39638 14.8544H6.32287C6.177 14.8412 6.03375 14.9084 5.95087 15.0294C5.8605 15.1913 5.81963 15.3766 5.83426 15.5618C5.82113 15.7492 5.86162 15.9359 5.95087 16.1015C6.03675 16.2239 6.18038 16.2932 6.33 16.2838C6.47813 16.2947 6.62025 16.2254 6.702 16.1015C6.79088 15.9359 6.83176 15.7492 6.81863 15.5618C6.83176 15.3766 6.79163 15.192 6.702 15.0294C6.63038 14.9273 6.51825 14.8639 6.39638 14.8544ZM15.7594 14.7887C15.6375 14.7807 15.5186 14.8289 15.4384 14.9201C15.3525 15.0251 15.3034 15.1563 15.3 15.292H16.2188C16.221 15.1563 16.1741 15.0243 16.0875 14.9201C16.002 14.8304 15.8835 14.7822 15.7594 14.7887ZM21.2505 2.0048C22.206 2.01358 23.1469 2.24038 24 2.66844L23.3363 4.28012C22.992 4.11602 22.6391 3.96943 22.2791 3.84257C21.9488 3.72587 21.6007 3.66388 21.2505 3.66024C20.568 3.63107 19.9163 3.94539 19.515 4.49889C19.0688 5.19752 18.8543 6.01941 18.9026 6.84711C18.9026 8.94227 19.6849 9.98807 21.2505 9.98297C22.0695 9.95379 22.8776 9.78819 23.6426 9.49434V11.157C22.8259 11.4874 21.9499 11.6515 21.0683 11.6384C19.8926 11.7142 18.7451 11.2592 17.94 10.3986C17.1574 9.38424 16.773 8.11824 16.8604 6.83983C16.8401 5.95742 17.0194 5.08232 17.3857 4.28012C17.7154 3.57564 18.2483 2.98566 18.9169 2.58823C19.6286 2.18859 20.4338 1.98658 21.2505 2.0048ZM12.7474 2.0048C13.2173 2.00192 13.6853 2.06098 14.1405 2.17986C14.6168 2.30672 15.0817 2.47007 15.5332 2.66844L14.8916 4.19259C14.4866 4.02486 14.0734 3.88119 13.6519 3.76235C13.3346 3.68432 13.0087 3.64566 12.6817 3.64566C12.3727 3.62379 12.0664 3.71859 11.8215 3.90819C11.6186 4.07739 11.5054 4.33044 11.5151 4.59369C11.5185 4.76361 11.5717 4.92842 11.6681 5.06773C11.7701 5.21867 11.9014 5.34774 12.0547 5.44693C12.237 5.56363 12.6529 5.78241 13.3163 6.10326C14.0003 6.38548 14.6152 6.81358 15.1177 7.35759C15.4384 7.80977 15.6004 8.35667 15.5771 8.91092C15.6098 9.68612 15.2678 10.4292 14.658 10.9091C13.9215 11.4371 13.0245 11.6945 12.1204 11.6384C11.2088 11.6529 10.3065 11.4604 9.48038 11.0768V9.23177C10.0005 9.46734 10.5364 9.66497 11.0846 9.82247C11.4765 9.93264 11.8811 9.99167 12.288 9.99752C12.6409 10.0208 12.9926 9.93482 13.2945 9.74957C13.5247 9.57969 13.656 9.30617 13.6444 9.02034C13.6481 8.84387 13.5919 8.67174 13.4839 8.53172C13.3624 8.36469 13.2083 8.22399 13.032 8.11599C12.6409 7.88049 12.237 7.66899 11.8215 7.48157C11.3591 7.27809 10.9252 7.01631 10.5304 6.70127C10.2514 6.45913 10.0185 6.16746 9.84487 5.84072C9.67012 5.48267 9.58237 5.08742 9.58987 4.68849C9.55125 3.94393 9.858 3.22269 10.4213 2.73407C11.0839 2.21923 11.9096 1.96104 12.7474 2.0048ZM1.98375 2.13609V5.78241H5.6955V2.13609H7.67925V11.4852H5.6955V7.46702H1.98375V11.4852H0V2.13609H1.98375Z" fill="black"/>
</svg>
