<svg width="30" height="30" viewBox="0 0 30 30" fill="none" xmlns="http://www.w3.org/2000/svg">
<path d="M29.691 8.40602C29.73 8.13302 29.661 7.85701 29.499 7.63501C29.337 7.41301 29.097 7.26901 28.83 7.23001L26.124 6.83101L25.632 4.09201C25.53 3.52801 24.999 3.15301 24.45 3.25801L14.544 5.12401L6.84003 3.98701C6.28503 3.90601 5.76903 4.29901 5.68803 4.86601L5.40903 6.84001L1.13103 7.64701C0.864028 7.69801 0.630028 7.85101 0.477028 8.07901C0.324028 8.30401 0.267028 8.58602 0.315028 8.85602L3.38403 25.908C3.43203 26.178 3.58503 26.418 3.80703 26.574C3.97803 26.694 4.17903 26.757 4.38303 26.757C4.44603 26.757 4.50603 26.751 4.56603 26.739L18.192 24.174L26.265 25.365C26.313 25.371 26.364 25.377 26.412 25.377C26.91 25.377 27.345 25.002 27.417 24.486L27.714 22.383L27.885 22.35C28.437 22.245 28.8 21.705 28.701 21.141L28.248 18.621L29.691 8.40602V8.40602ZM23.817 5.48701L24.003 6.51601L20.835 6.04801L23.817 5.48701V5.48701ZM3.92103 17.397L2.49903 9.50102L5.10303 9.00901L3.92103 17.397V17.397ZM5.20203 24.51L4.78503 22.2L11.904 23.25L5.20203 24.51ZM27.096 12.231L26.19 18.663L25.917 20.61L25.611 22.779L25.557 23.16L24.45 22.998L18.159 22.071L5.57703 20.214L7.21503 8.61301L7.52103 6.44101L7.55703 6.18601L8.29503 6.29401L14.586 7.22101L24.396 8.67001L26.517 8.98201L27.537 9.13201L27.096 12.231V12.231Z" fill="black"/>
<path d="M11.76 13.47C12.828 13.626 13.818 12.87 13.971 11.781C14.124 10.689 13.386 9.678 12.318 9.522C11.25 9.363 10.26 10.122 10.107 11.211C9.95102 12.3 10.692 13.314 11.76 13.47ZM23.19 14.862L21.339 16.824L19.002 12.12L14.565 17.331C14.565 17.331 8.73302 14.931 7.12802 19.095L22.185 21.315L24.411 21.642L24.282 20.919L23.19 14.862Z" fill="black"/>
</svg>
