<svg width="24" height="24" viewBox="0 0 24 24" fill="none" xmlns="http://www.w3.org/2000/svg">
<path d="M23.7528 6.72483C23.784 6.50643 23.7288 6.28562 23.5992 6.10802C23.4696 5.93042 23.2776 5.81522 23.064 5.78402L20.8992 5.46482L20.5056 3.27362C20.424 2.82242 19.9992 2.52242 19.56 2.60642L11.6352 4.09922L5.47202 3.18962C5.02802 3.12482 4.61522 3.43922 4.55042 3.89282L4.32722 5.47202L0.904824 6.11762C0.691222 6.15842 0.504023 6.28082 0.381623 6.46322C0.259223 6.64322 0.213623 6.86883 0.252023 7.08483L2.70722 20.7264C2.74562 20.9424 2.86802 21.1344 3.04562 21.2592C3.18242 21.3552 3.34322 21.4056 3.50642 21.4056C3.55682 21.4056 3.60482 21.4008 3.65282 21.3912L14.5536 19.3392L21.012 20.292C21.0504 20.2968 21.0912 20.3016 21.1296 20.3016C21.528 20.3016 21.876 20.0016 21.9336 19.5888L22.1712 17.9064L22.308 17.88C22.7496 17.796 23.04 17.364 22.9608 16.9128L22.5984 14.8968L23.7528 6.72483ZM19.0536 4.38962L19.2024 5.21282L16.668 4.83842L19.0536 4.38962ZM3.13682 13.9176L1.99922 7.60083L4.08242 7.20722L3.13682 13.9176ZM4.16162 19.608L3.82802 17.76L9.5232 18.6L4.16162 19.608ZM21.6768 9.78481L20.952 14.9304L20.7336 16.488L20.4888 18.2232L20.4456 18.528L19.56 18.3984L14.5272 17.6568L4.46162 16.1712L5.77202 6.89042L6.01682 5.15282L6.04562 4.94882L6.63602 5.03522L11.6688 5.77682L19.5168 6.93602L21.2136 7.18562L22.0296 7.30562L21.6768 9.78481Z" fill="black"/>
<path d="M9.40798 10.776C10.2624 10.9008 11.0544 10.296 11.1768 9.42481C11.2992 8.55121 10.7088 7.74241 9.85438 7.61761C8.99998 7.49041 8.20798 8.09761 8.08558 8.96881C7.96079 9.84001 8.55358 10.6512 9.40798 10.776ZM18.552 11.8896L17.0712 13.4592L15.2016 9.69601L11.652 13.8648C11.652 13.8648 6.98639 11.9448 5.70239 15.276L17.748 17.052L19.5288 17.3136L19.4256 16.7352L18.552 11.8896Z" fill="black"/>
</svg>
