<svg width="24" height="24" viewBox="0 0 24 24" fill="none" xmlns="http://www.w3.org/2000/svg">
<path d="M9.05896 21.177H10.1172V10.588H9.05896C8.77824 10.588 8.50904 10.4765 8.3104 10.2781C8.11184 10.0796 8.00016 9.81048 8 9.52968V8.824C8 8.54312 8.1116 8.27376 8.31016 8.0752C8.5088 7.87657 8.77816 7.765 9.05896 7.765H13.2934C13.5743 7.765 13.8437 7.87657 14.0422 8.0752C14.2409 8.27376 14.3524 8.54312 14.3524 8.824V21.177H15.4114C15.6922 21.177 15.9614 21.2885 16.1599 21.487C16.3585 21.6854 16.4702 21.9546 16.4704 22.2353V22.9418C16.4702 23.2225 16.3585 23.4917 16.1599 23.6901C15.9614 23.8886 15.6922 24 15.4114 24H9.05896C8.77824 24 8.50904 23.8886 8.3104 23.6901C8.11184 23.4917 8.00016 23.2225 8 22.9418V22.2353C8.00016 21.9546 8.11184 21.6854 8.3104 21.487C8.50904 21.2885 8.77824 21.177 9.05896 21.177ZM12.2352 0.000366457C11.8606 -0.0056689 11.4886 0.062899 11.1407 0.202076C10.7929 0.341253 10.4762 0.548255 10.2092 0.811024C9.94216 1.07379 9.73008 1.38708 9.58528 1.73262C9.44056 2.07816 9.366 2.44906 9.366 2.8237C9.366 3.19834 9.44056 3.56924 9.58528 3.91478C9.73008 4.26033 9.94216 4.57361 10.2092 4.83638C10.4762 5.09915 10.7929 5.30615 11.1407 5.44533C11.4886 5.5845 11.8606 5.65307 12.2352 5.64704C12.9761 5.6351 13.6826 5.33239 14.2024 4.80422C14.7221 4.27603 15.0134 3.56471 15.0134 2.8237C15.0134 2.08269 14.7221 1.37137 14.2024 0.843192C13.6826 0.315012 12.9761 0.0123039 12.2352 0.000366457Z" fill="black"/>
</svg>
