<svg width="30" height="30" viewBox="0 0 30 30" fill="none" xmlns="http://www.w3.org/2000/svg">
<g clip-path="url(#clip0)">
<path d="M11.3237 26.4713H12.6465V13.235H11.3237C10.9728 13.235 10.6363 13.0956 10.388 12.8476C10.1398 12.5995 10.0002 12.2631 10 11.9121V11.03C10 10.6789 10.1395 10.3422 10.3877 10.094C10.636 9.84571 10.9727 9.70625 11.3237 9.70625H16.6168C16.9679 9.70625 17.3046 9.84571 17.5528 10.094C17.8011 10.3422 17.9405 10.6789 17.9405 11.03V26.4713H19.2642C19.6152 26.4713 19.9517 26.6106 20.1999 26.8587C20.4481 27.1067 20.5877 27.4432 20.588 27.7941V28.6772C20.5877 29.0281 20.4481 29.3646 20.1999 29.6126C19.9517 29.8607 19.6152 30 19.2642 30H11.3237C10.9728 30 10.6363 29.8607 10.388 29.6126C10.1398 29.3646 10.0002 29.0281 10 28.6772V27.7941C10.0002 27.4432 10.1398 27.1067 10.388 26.8587C10.6363 26.6106 10.9728 26.4713 11.3237 26.4713ZM15.294 0.000458071C14.8257 -0.00708612 14.3607 0.0786238 13.9259 0.252595C13.4911 0.426566 13.0953 0.685319 12.7615 1.01378C12.4277 1.34224 12.1626 1.73385 11.9816 2.16577C11.8007 2.5977 11.7075 3.06132 11.7075 3.52963C11.7075 3.99793 11.8007 4.46155 11.9816 4.89348C12.1626 5.32541 12.4277 5.71701 12.7615 6.04547C13.0953 6.37394 13.4911 6.63269 13.9259 6.80666C14.3607 6.98063 14.8257 7.06634 15.294 7.0588C16.2201 7.04387 17.1033 6.66549 17.753 6.00527C18.4026 5.34504 18.7667 4.45589 18.7667 3.52963C18.7667 2.60336 18.4026 1.71421 17.753 1.05399C17.1033 0.393765 16.2201 0.0153799 15.294 0.000458071Z" fill="black"/>
</g>
<defs>
<clipPath id="clip0">
<rect width="30" height="30" fill="white"/>
</clipPath>
</defs>
</svg>
