<svg width="24" height="24" viewBox="0 0 24 24" fill="none" xmlns="http://www.w3.org/2000/svg">
<path d="M19.3552 23.0544H1.54797M1.54797 1.23837V22.5192" stroke="black" stroke-width="2" stroke-linecap="square"/>
<path fill-rule="evenodd" clip-rule="evenodd" d="M17.844 7.36079C17.1056 6.41599 15.6176 6.34079 14.5272 7.19279C13.436 8.04481 13.1496 9.50641 13.888 10.4512C14.6264 11.396 16.1144 11.472 17.2048 10.6192C18.2952 9.76801 18.5816 8.30561 17.844 7.36079ZM14.388 10.06C13.8368 9.35441 14.0512 8.26241 14.8656 7.62639C15.68 6.98959 16.7912 7.04639 17.3432 7.75199C17.8944 8.45761 17.68 9.54961 16.8656 10.1856C16.0512 10.8224 14.94 10.7664 14.3888 10.06H14.388ZM14.3064 16.6328L14.7016 15.1984C17.816 13.1552 21.4216 9.76241 21.2104 5.09199C21.2072 5.02399 21.2048 4.97039 21.2048 4.93119C21.2048 4.81199 21.1296 4.71519 21.0144 4.68719C20.976 4.67759 20.9248 4.66159 20.8592 4.64239C16.3792 3.30719 12.2152 5.98639 9.47838 8.51361L7.99038 8.54961C7.88638 8.55201 7.78238 8.60801 7.71758 8.69601L4.16718 13.5496C4.10798 13.6312 4.08878 13.7312 4.11678 13.8168C4.14478 13.9024 4.21598 13.9632 4.30878 13.9816L5.95118 14.2992L5.39838 14.7312C5.25998 14.8392 5.22398 15.024 5.31758 15.144L7.26078 17.6312C7.35438 17.7512 7.54238 17.76 7.68078 17.652L8.23358 17.22L8.14398 18.8912C8.14078 18.9552 8.15998 19.0144 8.19598 19.0608C8.21278 19.0832 8.23358 19.1016 8.25758 19.1168C8.33438 19.1648 8.43598 19.1704 8.52958 19.1328L14.0976 16.8624C14.1992 16.8216 14.2784 16.7344 14.3056 16.6328H14.3064ZM5.98798 14.9696L6.54318 14.536L8.14798 16.5896L7.59278 17.0232L5.98798 14.9696ZM8.77118 18.4336L8.86958 16.5856C8.87038 16.5656 8.86718 16.5472 8.86398 16.5296C8.86398 16.524 8.86398 16.5176 8.86238 16.5112C8.85438 16.4792 8.84078 16.4504 8.82238 16.424C8.81998 16.4216 8.81998 16.4184 8.81758 16.416L6.87438 13.928C6.87278 13.9256 6.86878 13.9248 6.86638 13.9224C6.84638 13.8984 6.82158 13.8768 6.79198 13.8616L6.77598 13.856C6.75838 13.8488 6.74158 13.8408 6.72238 13.8368L4.90558 13.4856L8.09118 9.13041L9.53918 9.09441C9.62158 9.09281 9.70398 9.05841 9.76718 8.99841C12.3672 6.56959 16.3592 3.93919 20.6072 5.20239C20.8048 9.62961 17.2872 12.8664 14.3008 14.8016C14.228 14.8488 14.1744 14.92 14.152 14.9992L13.768 16.3952L8.77118 18.4328V18.4336ZM5.82398 17.1008L4.81838 17.8856C4.68078 17.9936 4.49278 17.984 4.39918 17.8648C4.30558 17.7448 4.34158 17.5608 4.47918 17.452L5.48478 16.6672C5.62318 16.5592 5.81118 16.5688 5.90478 16.688C5.99838 16.808 5.96238 16.992 5.82398 17.1008ZM5.14558 16.2328L3.13918 17.8008C3.00078 17.9088 2.81278 17.8992 2.71918 17.7792C2.62638 17.6592 2.66238 17.4752 2.80078 17.3672L4.80718 15.7992C4.94558 15.6912 5.13358 15.7008 5.22638 15.82C5.31998 15.94 5.28398 16.124 5.14638 16.2328H5.14558ZM6.50158 17.968L4.49518 19.536C4.35678 19.644 4.16878 19.6344 4.07518 19.5144C3.98158 19.3944 4.01838 19.2104 4.15598 19.1024L6.16318 17.5344C6.30078 17.4264 6.48878 17.436 6.58238 17.556C6.67598 17.6752 6.63998 17.86 6.50238 17.968H6.50158Z" fill="black"/>
</svg>
