<svg width="24" height="24" viewBox="0 0 24 24" fill="none" xmlns="http://www.w3.org/2000/svg">
<path d="M2.19895 6.92266V6.94236L11.3854 11.781L11.3945 11.7777C11.657 11.9146 11.9508 12 12.2666 12C12.5825 12 12.8763 11.9146 13.1397 11.7777L13.1495 11.781L22.336 6.94236V6.92266C22.5148 6.84388 22.6666 6.7145 22.7727 6.55048C22.8789 6.38646 22.9347 6.19496 22.9333 5.99959C22.9333 5.58113 22.683 5.22421 22.3261 5.0757L13.1545 0.222359H13.1381C12.87 0.0785196 12.5709 0.00219682 12.2666 0C11.9524 0 11.6586 0.0853336 11.3961 0.222359H11.3789L2.20634 5.0757C1.85106 5.22338 1.59998 5.58113 1.59998 5.99959C1.59998 6.41559 1.84613 6.7717 2.19895 6.92266Z" fill="black"/>
<path d="M22.3261 11.0762L20.5317 10.1251C18.2989 11.3061 16.0635 12.4821 13.8256 13.6534C13.3367 13.8817 12.8036 13.9998 12.264 13.9995C11.7244 13.9993 11.1914 13.8805 10.7028 13.6517C10.6601 13.6353 6.81844 11.6135 4.00162 10.1251L2.20634 11.077C1.85023 11.2246 1.59998 11.5824 1.59998 12.0008C1.59998 12.4168 1.84613 12.7722 2.19895 12.9231V12.9436L11.3854 17.7822L11.3945 17.7781C11.657 17.9151 11.9508 18.0004 12.2666 18.0004C12.5825 18.0004 12.8763 17.9151 13.1397 17.7789L13.1495 17.7822L22.336 12.9436V12.9231C22.6863 12.773 22.9333 12.4168 22.9333 12.0008C22.9333 11.5824 22.683 11.2246 22.3261 11.077V11.0762Z" fill="black"/>
<path d="M22.3261 17.0757L20.5317 16.1255C18.2989 17.3064 16.0635 18.4825 13.8257 19.6538C13.3367 19.882 12.8036 20.0002 12.264 19.9999C11.7244 19.9996 11.1914 19.8809 10.7028 19.6521C10.6601 19.6357 6.81844 17.6131 4.00162 16.1255L2.20634 17.0757C1.85023 17.2234 1.59998 17.5811 1.59998 17.9996C1.59998 18.4156 1.84613 18.7717 2.19895 18.9226V18.9423L11.3854 23.781L11.3945 23.7776C11.657 23.9146 11.9508 24 12.2666 24C12.5825 24 12.8763 23.9146 13.1397 23.7776L13.1495 23.781L22.336 18.9423V18.9226C22.5148 18.8439 22.6666 18.7145 22.7727 18.5505C22.8789 18.3865 22.9347 18.195 22.9333 17.9996C22.9333 17.5811 22.683 17.2242 22.3261 17.0757Z" fill="black"/>
</svg>
