<svg width="30" height="30" viewBox="0 0 30 30" fill="none" xmlns="http://www.w3.org/2000/svg">
<path d="M2.74872 8.65333V8.67795L14.2318 14.7262L14.2431 14.7221C14.5713 14.8933 14.9385 15 15.3333 15C15.7282 15 16.0954 14.8933 16.4246 14.7221L16.4369 14.7262L27.92 8.67795V8.65333C28.1435 8.55485 28.3333 8.39313 28.4659 8.1881C28.5986 7.98307 28.6684 7.7437 28.6667 7.49949C28.6667 6.97641 28.3538 6.53026 27.9077 6.34462L16.4431 0.277949H16.4226C16.0875 0.0981495 15.7136 0.00274602 15.3333 0C14.9405 0 14.5733 0.106667 14.2451 0.277949H14.2236L2.75795 6.34462C2.31385 6.52923 2 6.97641 2 7.49949C2 8.01949 2.30769 8.46462 2.74872 8.65333V8.65333Z" fill="black"/>
<path d="M27.9077 13.8452L25.6646 12.6564C22.8736 14.1326 20.0794 15.6026 17.282 17.0667C16.6709 17.3521 16.0045 17.4998 15.33 17.4994C14.6555 17.4991 13.9893 17.3506 13.3785 17.0646C13.3251 17.0441 8.52308 14.5169 5.00205 12.6564L2.75795 13.8462C2.31282 14.0308 2 14.478 2 15.001C2 15.521 2.30769 15.9652 2.74872 16.1539V16.1795L14.2318 22.2277L14.2431 22.2226C14.5713 22.3939 14.9385 22.5005 15.3333 22.5005C15.7282 22.5005 16.0954 22.3939 16.4246 22.2236L16.4369 22.2277L27.92 16.1795V16.1539C28.3579 15.9662 28.6667 15.521 28.6667 15.001C28.6667 14.478 28.3538 14.0308 27.9077 13.8462V13.8452Z" fill="black"/>
<path d="M27.9077 21.3446L25.6646 20.1569C22.8736 21.633 20.0794 23.1031 17.2821 24.5672C16.6709 24.8525 16.0045 25.0003 15.33 24.9999C14.6555 24.9995 13.9893 24.8511 13.3785 24.5651C13.3251 24.5446 8.52308 22.0164 5.00205 20.1569L2.75795 21.3446C2.31282 21.5292 2 21.9764 2 22.4995C2 23.0195 2.30769 23.4646 2.74872 23.6533V23.6779L14.2318 29.7262L14.2431 29.722C14.5713 29.8933 14.9385 30 15.3333 30C15.7282 30 16.0954 29.8933 16.4246 29.722L16.4369 29.7262L27.92 23.6779V23.6533C28.1435 23.5549 28.3333 23.3931 28.4659 23.1881C28.5986 22.9831 28.6684 22.7437 28.6667 22.4995C28.6667 21.9764 28.3538 21.5303 27.9077 21.3446Z" fill="black"/>
</svg>
