<svg width="24" height="24" viewBox="0 0 24 24" fill="none" xmlns="http://www.w3.org/2000/svg">
<path d="M23.679 7.069L12.279 1.069C12.104 0.977 11.896 0.977 11.721 1.069L0.321 7.069C0.123 7.172 0 7.377 0 7.599V10C0 10.21 0.11 10.405 0.29 10.514C0.47 10.622 0.693 10.629 0.879 10.531L12 4.678L23.121 10.53C23.307 10.628 23.531 10.621 23.711 10.513C23.89 10.404 24 10.21 24 10V7.6C24 7.377 23.877 7.172 23.679 7.069Z" fill="black"/>
<path d="M11.886 5.57101L21.486 10.623V22.737C21.485 23.068 21.216 23.337 20.886 23.337H2.88601C2.55501 23.337 2.28601 23.068 2.28601 22.737V10.623L11.886 5.57101ZM14.109 11.286L12.204 14.58C12.144 14.582 12.078 14.584 12.006 14.584H11.895L10.049 11.391L9.93901 12.501L9.30301 11.801L9.19501 12.764L8.64201 12.368V12.993L8.41801 12.857C8.24001 12.748 8.01201 12.876 8.01201 13.085V17.577C8.01201 17.66 8.05101 17.738 8.11701 17.789L10.977 19.979V14.413L8.85301 13.121V12.779L11.25 14.492C11.182 14.469 11.154 14.452 11.154 14.452V19.979C11.154 19.979 11.305 20.113 12.006 20.113C12.707 20.113 12.858 19.979 12.858 19.979V14.451C12.858 14.451 12.831 14.469 12.761 14.493L15.305 12.673V13.025L13.022 14.413V19.979L15.883 17.789C15.949 17.739 15.988 17.66 15.988 17.577V13.085C15.988 12.875 15.76 12.748 15.581 12.857L15.517 12.896V12.262L14.963 12.658L14.856 11.695L14.22 12.395L14.11 11.285L14.109 11.286Z" fill="black"/>
</svg>
