<svg width="24" height="24" viewBox="0 0 24 24" fill="none" xmlns="http://www.w3.org/2000/svg">
<mask id="mask0" mask-type="alpha" maskUnits="userSpaceOnUse" x="0" y="11" width="24" height="2">
<path d="M0.23999 11.6928H2.58719V12.3048H0.23999V11.6928ZM3.73679 11.6928H6.08399V12.3048H3.73679V11.6928ZM7.23359 11.6928H9.5808V12.3048H7.23359V11.6928ZM10.7304 11.6928H13.0776V12.3048H10.7304V11.6928ZM14.2272 11.6928H16.5744V12.3048H14.2272V11.6928ZM17.724 11.6928H20.0712V12.3048H17.724V11.6928ZM21.4992 11.6928H23.76V12.3048H21.4992V11.6928Z" fill="white"/>
</mask>
<g mask="url(#mask0)">
<path d="M0.23999 11.6928H2.58719V12.3048H0.23999V11.6928ZM3.73679 11.6928H6.08399V12.3048H3.73679V11.6928ZM7.23359 11.6928H9.5808V12.3048H7.23359V11.6928ZM10.7304 11.6928H13.0776V12.3048H10.7304V11.6928ZM14.2272 11.6928H16.5744V12.3048H14.2272V11.6928ZM17.724 11.6928H20.0712V12.3048H17.724V11.6928ZM21.4992 11.6928H23.76V12.3048H21.4992V11.6928Z" fill="black"/>
<path d="M2.58714 11.6928H3.38714V10.8928H2.58714V11.6928ZM2.58714 12.3048V13.1048H3.38714V12.3048H2.58714ZM0.239941 12.3048H-0.560059V13.1048H0.239941V12.3048ZM6.08394 11.6928H6.88394V10.8928H6.08394V11.6928ZM6.08394 12.3048V13.1048H6.88394V12.3048H6.08394ZM3.73674 12.3048H2.93674V13.1048H3.73674V12.3048ZM9.58075 11.6928H10.3808V10.8928H9.58075V11.6928ZM9.58075 12.3048V13.1048H10.3808V12.3048H9.58075ZM7.23354 12.3048H6.43354V13.1048H7.23354V12.3048ZM13.0776 11.6928H13.8776V10.8928H13.0776V11.6928ZM13.0776 12.3048V13.1048H13.8776V12.3048H13.0776ZM10.7304 12.3048H9.93035V13.1048H10.7304V12.3048ZM16.5744 11.6928H17.3744V10.8928H16.5744V11.6928ZM16.5744 12.3048V13.1048H17.3744V12.3048H16.5744ZM14.2272 12.3048H13.4272V13.1048H14.2272V12.3048ZM20.0712 11.6928H20.8712V10.8928H20.0712V11.6928ZM20.0712 12.3048V13.1048H20.8712V12.3048H20.0712ZM17.724 12.3048H16.924V13.1048H17.724V12.3048ZM23.76 11.6928H24.56V10.8928H23.76V11.6928ZM23.76 12.3048V13.1048H24.56V12.3048H23.76ZM21.4992 12.3048H20.6992V13.1048H21.4992V12.3048ZM0.239941 12.4928H2.58714V10.8928H0.239941V12.4928ZM1.78714 11.6928V12.3048H3.38714V11.6928H1.78714ZM2.58714 11.5048H0.239941V13.1048H2.58714V11.5048ZM1.03994 12.3048V11.6928H-0.560059V12.3048H1.03994ZM3.73674 12.4928H6.08394V10.8928H3.73674V12.4928ZM5.28394 11.6928V12.3048H6.88394V11.6928H5.28394ZM6.08394 11.5048H3.73674V13.1048H6.08394V11.5048ZM4.53674 12.3048V11.6928H2.93674V12.3048H4.53674ZM7.23354 12.4928H9.58075V10.8928H7.23354V12.4928ZM8.78075 11.6928V12.3048H10.3808V11.6928H8.78075ZM9.58075 11.5048H7.23354V13.1048H9.58075V11.5048ZM8.03355 12.3048V11.6928H6.43354V12.3048H8.03355ZM10.7304 12.4928H13.0776V10.8928H10.7304V12.4928ZM12.2776 11.6928V12.3048H13.8776V11.6928H12.2776ZM13.0776 11.5048H10.7304V13.1048H13.0776V11.5048ZM11.5304 12.3048V11.6928H9.93035V12.3048H11.5304ZM14.2272 12.4928H16.5744V10.8928H14.2272V12.4928ZM15.7744 11.6928V12.3048H17.3744V11.6928H15.7744ZM16.5744 11.5048H14.2272V13.1048H16.5744V11.5048ZM15.0272 12.3048V11.6928H13.4272V12.3048H15.0272ZM17.724 12.4928H20.0712V10.8928H17.724V12.4928ZM19.2712 11.6928V12.3048H20.8712V11.6928H19.2712ZM20.0712 11.5048H17.724V13.1048H20.0712V11.5048ZM18.524 12.3048V11.6928H16.924V12.3048H18.524ZM21.4992 12.4928H23.76V10.8928H21.4992V12.4928ZM22.96 11.6928V12.3048H24.56V11.6928H22.96ZM23.76 11.5048H21.4992V13.1048H23.76V11.5048ZM22.2992 12.3048V11.6928H20.6992V12.3048H22.2992Z" fill="black"/>
</g>
</svg>
