<svg width="30" height="30" viewBox="0 0 30 30" fill="none" xmlns="http://www.w3.org/2000/svg">
<mask id="path-2-inside-1" fill="white">
<path d="M0.299988 14.616H3.23399V15.381H0.299988V14.616V14.616ZM4.67099 14.616H7.60499V15.381H4.67099V14.616V14.616ZM9.04199 14.616H11.976V15.381H9.04199V14.616V14.616ZM13.413 14.616H16.347V15.381H13.413V14.616V14.616ZM17.784 14.616H20.718V15.381H17.784V14.616V14.616ZM22.155 14.616H25.089V15.381H22.155V14.616V14.616ZM26.874 14.616H29.7V15.381H26.874V14.616V14.616Z"/>
</mask>
<path d="M0.299988 14.616H3.23399V15.381H0.299988V14.616V14.616ZM4.67099 14.616H7.60499V15.381H4.67099V14.616V14.616ZM9.04199 14.616H11.976V15.381H9.04199V14.616V14.616ZM13.413 14.616H16.347V15.381H13.413V14.616V14.616ZM17.784 14.616H20.718V15.381H17.784V14.616V14.616ZM22.155 14.616H25.089V15.381H22.155V14.616V14.616ZM26.874 14.616H29.7V15.381H26.874V14.616V14.616Z" fill="black"/>
<path d="M3.23399 14.616H4.23399V13.616H3.23399V14.616ZM3.23399 15.381V16.381H4.23399V15.381H3.23399ZM0.299988 15.381H-0.700012V16.381H0.299988V15.381ZM7.60499 14.616H8.60499V13.616H7.60499V14.616ZM7.60499 15.381V16.381H8.60499V15.381H7.60499ZM4.67099 15.381H3.67099V16.381H4.67099V15.381ZM11.976 14.616H12.976V13.616H11.976V14.616ZM11.976 15.381V16.381H12.976V15.381H11.976ZM9.04199 15.381H8.04199V16.381H9.04199V15.381ZM16.347 14.616H17.347V13.616H16.347V14.616ZM16.347 15.381V16.381H17.347V15.381H16.347ZM13.413 15.381H12.413V16.381H13.413V15.381ZM20.718 14.616H21.718V13.616H20.718V14.616ZM20.718 15.381V16.381H21.718V15.381H20.718ZM17.784 15.381H16.784V16.381H17.784V15.381ZM25.089 14.616H26.089V13.616H25.089V14.616ZM25.089 15.381V16.381H26.089V15.381H25.089ZM22.155 15.381H21.155V16.381H22.155V15.381ZM29.7 14.616H30.7V13.616H29.7V14.616ZM29.7 15.381V16.381H30.7V15.381H29.7ZM26.874 15.381H25.874V16.381H26.874V15.381ZM0.299988 15.616H3.23399V13.616H0.299988V15.616ZM2.23399 14.616V15.381H4.23399V14.616H2.23399ZM3.23399 14.381H0.299988V16.381H3.23399V14.381ZM1.29999 15.381V14.616H-0.700012V15.381H1.29999ZM4.67099 15.616H7.60499V13.616H4.67099V15.616ZM6.60499 14.616V15.381H8.60499V14.616H6.60499ZM7.60499 14.381H4.67099V16.381H7.60499V14.381ZM5.67099 15.381V14.616H3.67099V15.381H5.67099ZM9.04199 15.616H11.976V13.616H9.04199V15.616ZM10.976 14.616V15.381H12.976V14.616H10.976ZM11.976 14.381H9.04199V16.381H11.976V14.381ZM10.042 15.381V14.616H8.04199V15.381H10.042ZM13.413 15.616H16.347V13.616H13.413V15.616ZM15.347 14.616V15.381H17.347V14.616H15.347ZM16.347 14.381H13.413V16.381H16.347V14.381ZM14.413 15.381V14.616H12.413V15.381H14.413ZM17.784 15.616H20.718V13.616H17.784V15.616ZM19.718 14.616V15.381H21.718V14.616H19.718ZM20.718 14.381H17.784V16.381H20.718V14.381ZM18.784 15.381V14.616H16.784V15.381H18.784ZM22.155 15.616H25.089V13.616H22.155V15.616ZM24.089 14.616V15.381H26.089V14.616H24.089ZM25.089 14.381H22.155V16.381H25.089V14.381ZM23.155 15.381V14.616H21.155V15.381H23.155ZM26.874 15.616H29.7V13.616H26.874V15.616ZM28.7 14.616V15.381H30.7V14.616H28.7ZM29.7 14.381H26.874V16.381H29.7V14.381ZM27.874 15.381V14.616H25.874V15.381H27.874Z" fill="black" mask="url(#path-2-inside-1)"/>
</svg>
