<svg width="24" height="24" viewBox="0 0 24 24" fill="none" xmlns="http://www.w3.org/2000/svg">
<path d="M20.5714 0C21.4807 0 22.3528 0.370681 22.9958 1.0305C23.6388 1.69031 24 2.58522 24 3.51834V20.4817C24 21.4148 23.6388 22.3097 22.9958 22.9695C22.3528 23.6293 21.4807 24 20.5714 24H3.42857C2.51926 24 1.64718 23.6293 1.00421 22.9695C0.361223 22.3097 0 21.4148 0 20.4817V3.51834C0 2.58522 0.361223 1.69031 1.00421 1.0305C1.64718 0.370681 2.51926 0 3.42857 0H20.5714ZM8.60368 9.8436H6.24069V18.313H8.60368V9.8436ZM14.6818 9.58536C13.0635 9.58536 12.3813 10.9842 12.3813 10.9842V9.84432H10.115V18.313H12.3813V13.8672C12.3813 12.6766 12.875 11.9673 13.8213 11.9673C14.6901 11.9673 15.1077 12.6478 15.1077 13.8672V18.313H17.4597V12.951C17.4597 10.6817 16.3008 9.58536 14.6825 9.58536H14.6818ZM7.4112 5.60823C6.63909 5.60823 6.01371 6.30768 6.01371 7.17038C6.01371 8.03376 6.63909 8.73392 7.4112 8.73392C8.18328 8.73392 8.80872 8.03376 8.80872 7.17038C8.80872 6.30768 8.18328 5.60823 7.4112 5.60823Z" fill="black"/>
</svg>
