<svg width="30" height="30" viewBox="0 0 30 30" fill="none" xmlns="http://www.w3.org/2000/svg">
<g clip-path="url(#clip0)">
<path d="M25.7143 0C26.8509 0 27.941 0.463351 28.7447 1.28812C29.5485 2.11289 30 3.23152 30 4.39792V25.6021C30 26.7685 29.5485 27.8871 28.7447 28.7119C27.941 29.5366 26.8509 30 25.7143 30H4.28571C3.14907 30 2.05898 29.5366 1.25526 28.7119C0.451529 27.8871 0 26.7685 0 25.6021L0 4.39792C0 3.23152 0.451529 2.11289 1.25526 1.28812C2.05898 0.463351 3.14907 0 4.28571 0L25.7143 0ZM10.7546 12.3045H7.80086V22.8912H10.7546V12.3045ZM18.3523 11.9817C16.3294 11.9817 15.4766 13.7303 15.4766 13.7303V12.3054H12.6437V22.8912H15.4766V17.334C15.4766 15.8457 16.0937 14.9591 17.2766 14.9591C18.3626 14.9591 18.8846 15.8097 18.8846 17.334V22.8912H21.8246V16.1888C21.8246 13.3521 20.376 11.9817 18.3531 11.9817H18.3523ZM9.264 7.01029C8.29886 7.01029 7.51714 7.8846 7.51714 8.96297C7.51714 10.0422 8.29886 10.9174 9.264 10.9174C10.2291 10.9174 11.0109 10.0422 11.0109 8.96297C11.0109 7.8846 10.2291 7.01029 9.264 7.01029V7.01029Z" fill="black"/>
</g>
<defs>
<clipPath id="clip0">
<rect width="30" height="30" fill="white"/>
</clipPath>
</defs>
</svg>
