<svg width="25" height="24" viewBox="0 0 25 24" fill="none" xmlns="http://www.w3.org/2000/svg">
<path fill-rule="evenodd" clip-rule="evenodd" d="M12.6569 1.00643C12.7466 0.971182 12.8464 0.971183 12.9361 1.00644L23.2764 5.06871C23.4225 5.12611 23.5186 5.2671 23.5186 5.42409V8.3785C23.5186 8.58938 23.3476 8.76032 23.1368 8.76032H2.45585C2.24498 8.76032 2.07404 8.58938 2.07404 8.3785V5.42409C2.07404 5.2671 2.17013 5.12611 2.31624 5.06871L12.6569 1.00643Z" fill="black"/>
<path fill-rule="evenodd" clip-rule="evenodd" d="M4.2344 17.6701C4.2344 17.4979 4.37395 17.3584 4.54609 17.3584H21.0613C21.2334 17.3584 21.373 17.4979 21.373 17.6701V18.9685H22.797C22.9691 18.9685 23.1087 19.1081 23.1087 19.2802V20.6525H24.4883C24.6604 20.6525 24.8 20.7921 24.8 20.9642V22.6556C24.8 22.8277 24.6604 22.9673 24.4883 22.9673H1.11168C0.939535 22.9673 0.799988 22.8277 0.799988 22.6556V20.9642C0.799988 20.7921 0.939535 20.6525 1.11168 20.6525H2.49129V19.2802C2.49129 19.1081 2.63084 18.9685 2.80298 18.9685H4.2344V17.6701Z" fill="black"/>
<path fill-rule="evenodd" clip-rule="evenodd" d="M4.33417 9.3313C4.33417 9.15701 4.47546 9.01572 4.64975 9.01572H7.95092C8.12521 9.01572 8.2665 9.15701 8.2665 9.3313V9.73751C8.2665 9.9118 8.12521 10.0531 7.95092 10.0531H7.52288L7.72014 16.7079C7.72267 16.7932 7.69056 16.8759 7.63113 16.9371C7.5717 16.9983 7.49001 17.0328 7.40469 17.0328H5.18858C5.10297 17.0328 5.02104 16.9981 4.96157 16.9365C4.9021 16.8749 4.8702 16.7918 4.87319 16.7062L5.10568 10.0531H4.64975C4.47546 10.0531 4.33417 9.9118 4.33417 9.73751V9.3313ZM8.66235 9.3313C8.66235 9.15701 8.80364 9.01572 8.97794 9.01572H12.2865C12.4608 9.01572 12.6021 9.15701 12.6021 9.3313V9.73751C12.6021 9.9118 12.4608 10.0531 12.2865 10.0531H11.8514L12.0557 16.7076C12.0583 16.7929 12.0263 16.8757 11.9668 16.937C11.9074 16.9983 11.8257 17.0328 11.7403 17.0328H9.52417C9.43856 17.0328 9.35663 16.9981 9.29716 16.9365C9.23769 16.8749 9.20579 16.7918 9.20878 16.7062L9.44126 10.0531H8.97794C8.80364 10.0531 8.66235 9.9118 8.66235 9.73751V9.3313ZM12.9979 9.3313C12.9979 9.15701 13.1392 9.01572 13.3135 9.01572H16.6147C16.789 9.01572 16.9303 9.15701 16.9303 9.3313V9.73751C16.9303 9.9118 16.789 10.0531 16.6147 10.0531H16.187L16.3913 16.7076C16.3939 16.7929 16.3618 16.8757 16.3024 16.937C16.243 16.9983 16.1612 17.0328 16.0759 17.0328H13.8598C13.7742 17.0328 13.6923 16.9981 13.6329 16.9366C13.5734 16.8751 13.5415 16.7921 13.5444 16.7066L13.7698 10.0531H13.3135C13.1392 10.0531 12.9979 9.9118 12.9979 9.73751V9.3313ZM17.3261 9.3313C17.3261 9.15701 17.4674 9.01572 17.6417 9.01572H20.9503C21.1246 9.01572 21.2659 9.15701 21.2659 9.3313V9.73751C21.2659 9.9118 21.1246 10.0531 20.9503 10.0531H20.5222L20.7195 16.7079C20.722 16.7932 20.6899 16.8759 20.6305 16.9371C20.571 16.9983 20.4894 17.0328 20.404 17.0328H18.1879C18.1023 17.0328 18.0204 16.9981 17.9609 16.9365C17.9015 16.8749 17.8696 16.7918 17.8725 16.7062L18.105 10.0531H17.6417C17.4674 10.0531 17.3261 9.9118 17.3261 9.73751V9.3313Z" fill="black"/>
</svg>
