<svg width="24" height="24" viewBox="0 0 24 24" fill="currentColor" xmlns="http://www.w3.org/2000/svg">
<path fill-rule="evenodd" clip-rule="evenodd" d="M15.5307 17.939C14.9794 17.3877 14.9794 16.4944 15.5307 15.9431C16.0836 15.3902 16.9753 15.3902 17.5267 15.9431L23.1742 21.5906C23.7271 22.1419 23.7271 23.0336 23.1742 23.5865C22.6229 24.1379 21.7296 24.1379 21.1783 23.5865L15.5307 17.939Z" />
<path fill-rule="evenodd" clip-rule="evenodd" d="M10.8827 19.764C5.42467 19.764 0.999992 15.3393 0.999992 9.88278C0.999992 4.42471 5.42467 3.05176e-05 10.8827 3.05176e-05C16.3393 3.05176e-05 20.764 4.42471 20.764 9.88278C20.764 15.3393 16.3393 19.764 10.8827 19.764ZM10.8827 16.941C14.7807 16.941 17.941 13.7807 17.941 9.88278C17.941 5.98481 14.7807 2.82301 10.8827 2.82301C6.98478 2.82301 3.82297 5.98481 3.82297 9.88278C3.82297 13.7792 6.98478 16.941 10.8827 16.941Z" />
</svg>
