<svg width="30" height="30" viewBox="0 0 30 30" fill="none" xmlns="http://www.w3.org/2000/svg">
<path fill-rule="evenodd" clip-rule="evenodd" d="M14.0063 28.7434C14.0875 28.8248 14.1839 28.8893 14.2901 28.9333C14.3962 28.9773 14.51 29 14.6249 29C14.7399 29 14.8536 28.9773 14.9598 28.9333C15.0659 28.8893 15.1624 28.8248 15.2436 28.7434C15.6111 28.376 24.2499 19.6339 24.2499 10.6249C24.2499 5.3181 19.9318 1 14.6249 1C9.3181 1 5 5.3181 5 10.6249C5 19.6339 13.6388 28.376 14.0063 28.7434Z" stroke="black" stroke-width="2"/>
<path d="M14.625 15C16.558 15 18.125 13.433 18.125 11.5C18.125 9.56699 16.558 8 14.625 8C12.692 8 11.125 9.56699 11.125 11.5C11.125 13.433 12.692 15 14.625 15Z" fill="black"/>
</svg>
