<svg width="24" height="24" viewBox="0 0 24 24" fill="none" xmlns="http://www.w3.org/2000/svg">
<path fill-rule="evenodd" clip-rule="evenodd" d="M11.205 22.9947C11.27 23.0598 11.3471 23.1114 11.4321 23.1466C11.517 23.1818 11.608 23.2 11.6999 23.2C11.7919 23.2 11.8829 23.1818 11.9678 23.1466C12.0527 23.1114 12.1299 23.0598 12.1949 22.9947C12.4889 22.7008 19.3999 15.7071 19.3999 8.49991C19.3999 4.25447 15.9454 0.799988 11.6999 0.799988C7.45448 0.799988 4 4.25447 4 8.49991C4 15.7071 10.911 22.7008 11.205 22.9947Z" stroke="black" stroke-width="2"/>
<path d="M11.7 12C13.2464 12 14.5 10.7464 14.5 9.19999C14.5 7.65359 13.2464 6.39999 11.7 6.39999C10.1536 6.39999 8.89999 7.65359 8.89999 9.19999C8.89999 10.7464 10.1536 12 11.7 12Z" fill="black"/>
</svg>
