<svg width="24" height="24" viewBox="0 0 24 24" fill="none" xmlns="http://www.w3.org/2000/svg">
<path fill-rule="evenodd" clip-rule="evenodd" d="M3 8.56242C3 3.84834 6.80468 0 11.5 0C16.1953 0 20 3.84834 20 8.56242C20 12.3919 18.1917 16.078 16.4363 18.7725C14.6662 21.4894 12.8604 23.3329 12.692 23.5027C12.5361 23.66 12.3507 23.7849 12.1467 23.8702C11.9424 23.9555 11.7225 24 11.5 24C11.2777 24 11.058 23.9558 10.8536 23.8703M11.5 2C7.92486 2 5 4.93724 5 8.56242C5 11.8115 6.55751 15.099 8.23945 17.6807C9.58992 19.7536 10.9639 21.2859 11.5 21.8566C12.0361 21.2859 13.4101 19.7536 14.7605 17.6807C16.4425 15.099 18 11.8115 18 8.56242C18 4.93725 15.0751 2 11.5 2ZM3 8.56242C3 12.3919 4.80827 16.078 6.56371 18.7725L3 8.56242ZM6.56371 18.7725C8.33211 21.4869 10.1362 23.3295 10.3075 23.5022L6.56371 18.7725ZM10.3075 23.5022C10.4631 23.6592 10.6491 23.7848 10.8536 23.8703L10.3075 23.5022Z" fill="black"/>
<path fill-rule="evenodd" clip-rule="evenodd" d="M11.5 0C6.80468 0 3 3.84834 3 8.56242C3 12.3919 4.80827 16.078 6.56371 18.7725C8.33211 21.4869 10.1362 23.3295 10.3075 23.5022C10.4631 23.6592 10.6491 23.7848 10.8536 23.8703C11.058 23.9558 11.2777 24 11.5 24C11.7225 24 11.9424 23.9555 12.1467 23.8702C12.3507 23.7849 12.5361 23.66 12.692 23.5027C12.8604 23.3329 14.6662 21.4894 16.4363 18.7725C18.1917 16.078 20 12.3919 20 8.56242C20 3.84834 16.1953 0 11.5 0ZM11.5 2C7.92486 2 5 4.93724 5 8.56242C5 11.8115 6.55751 15.099 8.23945 17.6807C9.58992 19.7536 10.9639 21.2859 11.5 21.8566C12.0361 21.2859 13.4101 19.7536 14.7605 17.6807C16.4425 15.099 18 11.8115 18 8.56242C18 4.93725 15.0751 2 11.5 2Z" fill="black"/>
<path d="M11.7 12C13.2464 12 14.5 10.7464 14.5 9.19999C14.5 7.65359 13.2464 6.39999 11.7 6.39999C10.1536 6.39999 8.89999 7.65359 8.89999 9.19999C8.89999 10.7464 10.1536 12 11.7 12Z" fill="black"/>
</svg>
