<svg width="24" height="24" viewBox="0 0 24 24" fill="none" xmlns="http://www.w3.org/2000/svg">
<path d="M15.0783 6.3608V22.1V6.3608ZM3.64795 6.36L8.97192 7.46L14.9639 6.1008L20.8687 7.46V23.2872L14.8639 22.1L8.97192 23.4112L3.19995 22.0992V6.36H3.64795ZM8.92072 7.7168V23.0368V7.7168Z" stroke="black" stroke-linecap="round" stroke-linejoin="round"/>
<path d="M18.7672 8.1856C18.8792 8.0792 21.4896 5.5416 21.4896 2.908C21.4896 1.304 20.1312 0 18.4616 0C16.792 0 15.4344 1.304 15.4344 2.908C15.4344 5.5416 18.0448 8.0792 18.156 8.1856C18.2381 8.2644 18.3477 8.30832 18.4616 8.308C18.5754 8.30832 18.6849 8.2644 18.7672 8.1856ZM16.2992 2.908C16.2992 1.7624 17.2696 0.8304 18.4616 0.8304C19.6536 0.8304 20.624 1.7624 20.624 2.908C20.624 4.7008 19.1224 6.5504 18.4616 7.2776C17.8008 6.5504 16.2992 4.7016 16.2992 2.908Z" fill="black"/>
<path d="M19.7592 3.23041C19.7592 2.46721 19.1768 1.84641 18.4616 1.84641C17.7464 1.84641 17.164 2.46721 17.164 3.23041C17.164 3.99441 17.7464 4.61521 18.4616 4.61521C19.1768 4.61521 19.7592 3.99441 19.7592 3.23121V3.23041ZM18.0296 3.23041C18.0296 2.97681 18.2232 2.76961 18.4616 2.76961C18.7 2.76961 18.8936 2.97681 18.8936 3.23041C18.8936 3.48481 18.7 3.69201 18.4616 3.69201C18.2232 3.69201 18.0296 3.48481 18.0296 3.23041Z" fill="black"/>
</svg>
