<svg width="24" height="24" viewBox="0 0 24 24" fill="none" xmlns="http://www.w3.org/2000/svg">
<path fill-rule="evenodd" clip-rule="evenodd" d="M14.8533 5.61319C14.9267 5.59655 15.0028 5.59667 15.0761 5.61354L20.9809 6.97274C21.2079 7.02499 21.3687 7.22707 21.3687 7.46V23.2872C21.3687 23.4368 21.3017 23.5785 21.1861 23.6735C21.0706 23.7685 20.9185 23.8067 20.7717 23.7777L14.87 22.6109L9.08053 23.8993C9.00825 23.9153 8.9333 23.9152 8.86109 23.8988L3.08913 22.5868C2.86149 22.535 2.69995 22.3326 2.69995 22.0992V6.36C2.69995 6.08386 2.92381 5.86 3.19995 5.86H3.64795C3.68194 5.86 3.71584 5.86346 3.74912 5.87034L8.96698 6.94842L14.8533 5.61319ZM8.42072 7.85668L3.69995 6.8813V21.7001L8.42072 22.7731V7.85668ZM9.42072 22.7991V7.8709L14.5783 6.70097V21.6513L9.42072 22.7991ZM15.5783 21.7316V6.7553L20.3687 7.85798V22.6787L15.5783 21.7316Z" fill="black"/>
<path d="M18.7672 8.1856C18.8792 8.0792 21.4896 5.5416 21.4896 2.908C21.4896 1.304 20.1312 0 18.4616 0C16.792 0 15.4344 1.304 15.4344 2.908C15.4344 5.5416 18.0448 8.0792 18.156 8.1856C18.2381 8.2644 18.3477 8.30832 18.4616 8.308C18.5754 8.30832 18.6849 8.2644 18.7672 8.1856ZM16.2992 2.908C16.2992 1.7624 17.2696 0.8304 18.4616 0.8304C19.6536 0.8304 20.624 1.7624 20.624 2.908C20.624 4.7008 19.1224 6.5504 18.4616 7.2776C17.8008 6.5504 16.2992 4.7016 16.2992 2.908Z" fill="black"/>
<path d="M19.7592 3.23041C19.7592 2.46721 19.1768 1.84641 18.4616 1.84641C17.7464 1.84641 17.164 2.46721 17.164 3.23041C17.164 3.99441 17.7464 4.61521 18.4616 4.61521C19.1768 4.61521 19.7592 3.99441 19.7592 3.23121V3.23041ZM18.0296 3.23041C18.0296 2.97681 18.2232 2.76961 18.4616 2.76961C18.7 2.76961 18.8936 2.97681 18.8936 3.23041C18.8936 3.48481 18.7 3.69201 18.4616 3.69201C18.2232 3.69201 18.0296 3.48481 18.0296 3.23041Z" fill="black"/>
</svg>
