<svg width="30" height="30" viewBox="0 0 30 30" fill="none" xmlns="http://www.w3.org/2000/svg">
<path d="M18.8479 7.95101V27.625M4.55994 7.95001L11.2149 9.32501L18.7049 7.62601L26.0859 9.32501V29.109L18.5799 27.625L11.2149 29.264L3.99994 27.624V7.95001H4.55994V7.95001ZM11.1509 9.64601V28.796V9.64601Z" stroke="black" stroke-linecap="round" stroke-linejoin="round"/>
<path d="M23.459 10.232C23.599 10.099 26.862 6.927 26.862 3.635C26.862 1.63 25.164 0 23.077 0C20.99 0 19.293 1.63 19.293 3.635C19.293 6.927 22.556 10.099 22.695 10.232C22.7977 10.3305 22.9346 10.3854 23.077 10.385C23.2193 10.3854 23.3562 10.3305 23.459 10.232ZM20.374 3.635C20.374 2.203 21.587 1.038 23.077 1.038C24.567 1.038 25.78 2.203 25.78 3.635C25.78 5.876 23.903 8.188 23.077 9.097C22.251 8.188 20.374 5.877 20.374 3.635V3.635Z" fill="black"/>
<path d="M24.699 4.03801C24.699 3.08401 23.971 2.30801 23.077 2.30801C22.183 2.30801 21.455 3.08401 21.455 4.03801C21.455 4.99301 22.183 5.76901 23.077 5.76901C23.971 5.76901 24.699 4.99301 24.699 4.03901V4.03801ZM22.537 4.03801C22.537 3.72101 22.779 3.46201 23.077 3.46201C23.375 3.46201 23.617 3.72101 23.617 4.03801C23.617 4.35601 23.375 4.61501 23.077 4.61501C22.779 4.61501 22.537 4.35601 22.537 4.03801Z" fill="black"/>
</svg>
