<svg width="24" height="24" viewBox="0 0 24 24" fill="none" xmlns="http://www.w3.org/2000/svg">
<path d="M1.71395 6.69056H22.2851C23.2314 6.69056 24 5.90886 24 4.94576C24 3.98265 23.2314 3.20001 22.2851 3.20001H1.71395C0.767678 3.20001 0 3.98172 0 4.94576C0 5.90886 0.767678 6.69056 1.71395 6.69056ZM22.6938 10.182H7.02038C6.29945 10.182 5.7141 10.9638 5.7141 11.9269C5.7141 12.8899 6.29945 13.6726 7.02038 13.6726H22.6938C23.4138 13.6726 24 12.8909 24 11.9269C24 10.9638 23.4146 10.182 22.6938 10.182ZM23.1837 17.1631H13.3871C12.9374 17.1631 12.5709 17.9458 12.5709 18.9089C12.5709 19.872 12.9374 20.6547 13.3871 20.6547H23.1837C23.6344 20.6547 24 19.872 24 18.9089C24 17.9458 23.6344 17.1631 23.1837 17.1631Z" fill="black"/>
</svg>
