<svg width="30" height="30" viewBox="0 0 30 30" fill="none" xmlns="http://www.w3.org/2000/svg">
<g clip-path="url(#clip0)">
<path d="M2.14244 8.36319H27.8564C29.0392 8.36319 30 7.38606 30 6.18218C30 4.9783 29.0392 4 27.8564 4H2.14244C0.959598 4 0 4.97713 0 6.18218C0 7.38606 0.959598 8.36319 2.14244 8.36319ZM28.3672 12.7275H8.77547C7.87431 12.7275 7.14263 13.7047 7.14263 14.9086C7.14263 16.1124 7.87431 17.0907 8.77547 17.0907H28.3672C29.2672 17.0907 30 16.1136 30 14.9086C30 13.7047 29.2683 12.7275 28.3672 12.7275ZM28.9796 21.4539H16.7339C16.1717 21.4539 15.7136 22.4322 15.7136 23.6361C15.7136 24.84 16.1717 25.8183 16.7339 25.8183H28.9796C29.543 25.8183 30 24.84 30 23.6361C30 22.4322 29.543 21.4539 28.9796 21.4539Z" fill="black"/>
</g>
<defs>
<clipPath id="clip0">
<rect width="30" height="30" fill="white"/>
</clipPath>
</defs>
</svg>
