<svg width="24" height="24" viewBox="0 0 24 24" fill="none" xmlns="http://www.w3.org/2000/svg">
<path fill-rule="evenodd" clip-rule="evenodd" d="M3 0H21C22.6569 0 24 1.34314 24 3V21C24 22.6569 22.6569 24 21 24H3C1.34314 24 0 22.6569 0 21V3C0 1.34314 1.34314 0 3 0ZM7.77812 10.1438V15.594H7.05685L2.70813 9.3735V13.683C2.70813 14.97 2.88384 15.243 3.72213 15.2918V15.555H1.27499V15.2918C2.10385 15.2528 2.3087 14.931 2.3087 13.605V9.73427C2.3087 8.77877 2.14284 8.574 1.36284 8.5155V8.262H3.4007L7.37871 13.878V10.212C7.37871 9.48077 7.32984 9.12 7.19313 8.89577C7.04699 8.64227 6.84213 8.5545 6.34498 8.52527V8.262H8.81185V8.52527C8.34385 8.54477 8.13899 8.64227 7.98299 8.89577C7.83685 9.12977 7.77812 9.51977 7.77812 10.1438ZM12.2927 15.555V15.3015C11.4831 15.2723 11.4051 15.1845 11.4051 14.2875V11.8403H14.6421V14.2875C14.6421 15.1845 14.5641 15.2723 13.755 15.3015V15.555H16.7871V15.3015C16.0221 15.2738 15.9171 15.192 15.9098 14.4V9.51977C15.9098 8.64227 15.9878 8.54477 16.758 8.5155V8.262H13.794V8.5155C14.5641 8.54477 14.6421 8.64227 14.6421 9.51977V11.5185H11.4051V9.51977C11.4051 8.64227 11.4831 8.54477 12.2537 8.5155V8.262H9.29913V8.5155C10.0598 8.54477 10.1378 8.64227 10.1378 9.51977V14.2875C10.1378 15.1845 10.0598 15.2723 9.26013 15.3015V15.555H12.2927ZM21.7307 15.1455C21.2721 15.5063 20.658 15.7013 19.9461 15.7013C19.5561 15.7013 19.3221 15.672 18.63 15.5355C18.513 15.516 18.3861 15.5063 18.2597 15.5063C18.0938 15.5063 17.967 15.5258 17.616 15.594L17.694 13.2638H18.084C18.2207 14.7263 18.8057 15.4185 19.8977 15.4185C20.7557 15.4185 21.2721 14.9115 21.2721 14.073C21.2721 13.41 20.892 13.0103 19.6731 12.4155C18.8447 12.0158 18.6201 11.889 18.396 11.7233C17.8401 11.3138 17.5967 10.8458 17.5967 10.173C17.5967 9.3735 18.0351 8.68127 18.747 8.34977C19.0787 8.19377 19.4687 8.1255 19.995 8.1255C20.3168 8.1255 20.4531 8.145 21.1847 8.29127C21.321 8.3205 21.4281 8.33027 21.5258 8.33027C21.6818 8.33027 21.8181 8.301 22.1108 8.19377L22.0328 10.3778H21.6428C21.6038 9.822 21.516 9.4905 21.3111 9.159C21.0189 8.66177 20.541 8.38877 19.9658 8.38877C19.215 8.38877 18.6981 8.9055 18.6981 9.65627C18.6981 9.978 18.8057 10.2608 19.02 10.4753C19.2638 10.7093 19.5077 10.8555 20.2877 11.226C21.1551 11.6258 21.5747 11.889 21.906 12.2205C22.2377 12.5618 22.413 13.0103 22.413 13.5758C22.413 14.2388 22.1691 14.8043 21.7307 15.1455Z" fill="black"/>
</svg>
