<svg width="24" height="24" viewBox="0 0 24 24" fill="none" xmlns="http://www.w3.org/2000/svg">
<path d="M3.11127 15.0225C4.82958 15.0225 6.22254 13.6296 6.22254 11.9113C6.22254 10.1929 4.82958 8.79999 3.11127 8.79999C1.39297 8.79999 0 10.1929 0 11.9113C0 13.6296 1.39297 15.0225 3.11127 15.0225Z" fill="black"/>
<path d="M12 15.0225C13.7183 15.0225 15.1112 13.6296 15.1112 11.9113C15.1112 10.1929 13.7183 8.79999 12 8.79999C10.2816 8.79999 8.88867 10.1929 8.88867 11.9113C8.88867 13.6296 10.2816 15.0225 12 15.0225Z" fill="black"/>
<path d="M20.8887 15.0225C22.6071 15.0225 24 13.6296 24 11.9113C24 10.1929 22.6071 8.79999 20.8887 8.79999C19.1704 8.79999 17.7775 10.1929 17.7775 11.9113C17.7775 13.6296 19.1704 15.0225 20.8887 15.0225Z" fill="black"/>
</svg>
