<svg width="30" height="30" viewBox="0 0 30 30" fill="none" xmlns="http://www.w3.org/2000/svg">
<path d="M15.4118 8.82353C17.8483 8.82353 19.8235 6.84832 19.8235 4.41176C19.8235 1.97521 17.8483 0 15.4118 0C12.9752 0 11 1.97521 11 4.41176C11 6.84832 12.9752 8.82353 15.4118 8.82353Z" fill="black"/>
<path d="M15.4118 19.4118C17.8483 19.4118 19.8235 17.4365 19.8235 15C19.8235 12.5634 17.8483 10.5882 15.4118 10.5882C12.9752 10.5882 11 12.5634 11 15C11 17.4365 12.9752 19.4118 15.4118 19.4118Z" fill="black"/>
<path d="M15.4118 30C17.8483 30 19.8235 28.0248 19.8235 25.5882C19.8235 23.1517 17.8483 21.1765 15.4118 21.1765C12.9752 21.1765 11 23.1517 11 25.5882C11 28.0248 12.9752 30 15.4118 30Z" fill="black"/>
</svg>
