<svg width="24" height="24" viewBox="0 0 24 24" fill="none" xmlns="http://www.w3.org/2000/svg">
<path d="M12.3294 7.05882C14.2786 7.05882 15.8588 5.47866 15.8588 3.52941C15.8588 1.58017 14.2786 0 12.3294 0C10.3801 0 8.79999 1.58017 8.79999 3.52941C8.79999 5.47866 10.3801 7.05882 12.3294 7.05882Z" fill="black"/>
<path d="M12.3294 15.5294C14.2786 15.5294 15.8588 13.9492 15.8588 12C15.8588 10.0507 14.2786 8.47055 12.3294 8.47055C10.3801 8.47055 8.79999 10.0507 8.79999 12C8.79999 13.9492 10.3801 15.5294 12.3294 15.5294Z" fill="black"/>
<path d="M12.3294 24C14.2786 24 15.8588 22.4198 15.8588 20.4706C15.8588 18.5214 14.2786 16.9412 12.3294 16.9412C10.3801 16.9412 8.79999 18.5214 8.79999 20.4706C8.79999 22.4198 10.3801 24 12.3294 24Z" fill="black"/>
</svg>
