<svg width="30" height="30" viewBox="0 0 30 30" fill="none" 
  xmlns="http://www.w3.org/2000/svg">
  <path fill-rule="evenodd" clip-rule="evenodd" d="M25.4163 28.3495H4.92791C4.85491 28.3495 4.7849 28.3206 4.7332 28.269C4.68151 28.2175 4.65235 28.1476 4.65212 28.0746V1.9278C4.65212 1.77555 4.77566 1.65201 4.92791 1.65201H20.0954L20.1476 1.70856V6.66753C20.1476 7.29566 20.6557 7.80461 21.2829 7.80461H25.6912V28.0746C25.6907 28.1474 25.6616 28.217 25.6102 28.2685C25.5587 28.3199 25.489 28.3491 25.4163 28.3495V28.3495ZM27.1267 6.87807L21.068 0.266982C20.9907 0.182516 20.8966 0.115073 20.7917 0.0689414C20.6869 0.02281 20.5736 -0.00100069 20.459 -0.000976544H4.92791C4.41658 -0.00051553 3.92635 0.20287 3.56487 0.564511C3.20339 0.926152 3.00023 1.41648 3 1.9278L3 28.0746C3 29.136 3.86477 30.0008 4.92791 30.0008H25.4163C25.927 30.0001 26.4166 29.7969 26.7778 29.4359C27.139 29.0748 27.3424 28.5853 27.3433 28.0746V7.43573C27.3434 7.22886 27.2658 7.02951 27.1258 6.8772" fill="black"/>
  <path fill-rule="evenodd" clip-rule="evenodd" d="M13.7192 12.922L14.3099 13.2639L14.0307 13.792L13.4399 13.4492L13.7192 12.922ZM16.3301 14.662L16.9199 15.0039L16.6398 15.532L16.0499 15.1901L16.3301 14.662ZM13.7871 16.402L14.3099 16.6778L13.9637 17.272L13.4399 16.9962L13.7871 16.402Z" stroke="#A2AAAD" stroke-width="0.1"/>
  <path fill-rule="evenodd" clip-rule="evenodd" d="M11.854 19.9733C11.9775 20.0377 12.1324 19.996 12.202 19.8785C12.2182 19.8505 12.2285 19.8194 12.2322 19.7873C12.2359 19.7551 12.233 19.7225 12.2236 19.6915C12.2142 19.6605 12.1986 19.6318 12.1777 19.6071C12.1567 19.5824 12.131 19.5622 12.1019 19.5479C12.0427 19.5164 11.9736 19.5088 11.9089 19.5265C11.8442 19.5443 11.7887 19.5862 11.7539 19.6436C11.7377 19.6715 11.7273 19.7025 11.7234 19.7346C11.7196 19.7667 11.7224 19.7992 11.7316 19.8302C11.7408 19.8611 11.7563 19.8899 11.777 19.9147C11.7978 19.9394 11.8234 19.9597 11.8522 19.9742H11.854V19.9733ZM11.4825 20.6102C10.9883 20.3509 10.81 19.7593 11.084 19.2904C11.3572 18.8206 11.9801 18.6509 12.4734 18.9111C12.9667 19.1721 13.1459 19.7628 12.8719 20.2317C12.5987 20.7006 11.9758 20.8703 11.4825 20.611V20.6102Z" fill="black"/>
  <path fill-rule="evenodd" clip-rule="evenodd" d="M9.84076 20.343C9.82744 20.2962 9.82372 20.2471 9.82981 20.1988C9.8359 20.1505 9.85169 20.1039 9.87622 20.0618C9.90076 20.0197 9.93353 19.983 9.97258 19.9539C10.0116 19.9248 10.0562 19.9039 10.1035 19.8924C10.1994 19.8646 10.3023 19.8749 10.3907 19.9213C10.4791 19.9677 10.5461 20.0465 10.5776 20.1412C10.6838 20.4953 10.9343 20.7937 11.2736 20.9712C11.6112 21.1495 12.0097 21.193 12.3803 21.0904C12.4764 21.0629 12.5794 21.0736 12.6678 21.1203C12.7561 21.167 12.823 21.246 12.8544 21.3409C12.8677 21.3878 12.8715 21.4368 12.8654 21.4852C12.8593 21.5335 12.8435 21.5801 12.8189 21.6222C12.7944 21.6643 12.7616 21.7009 12.7226 21.7301C12.6835 21.7592 12.639 21.7801 12.5917 21.7916C12.0251 21.947 11.4207 21.8817 10.9004 21.6089C10.6484 21.4789 10.4249 21.2998 10.2429 21.0823C10.061 20.8648 9.92424 20.6132 9.84076 20.3422V20.343Z" fill="black"/>
  <path fill-rule="evenodd" clip-rule="evenodd" d="M8.73584 20.6432C8.72252 20.5964 8.7188 20.5473 8.72489 20.499C8.73099 20.4507 8.74678 20.4041 8.77131 20.362C8.79584 20.3199 8.82861 20.2832 8.86767 20.2541C8.90672 20.225 8.95125 20.2041 8.99858 20.1926C9.09456 20.1648 9.19758 20.1753 9.28599 20.2218C9.3744 20.2684 9.44134 20.3474 9.47273 20.4423C9.66239 21.0747 10.1096 21.608 10.7151 21.9256C11.3252 22.2458 12.0341 22.3226 12.6987 22.1405C12.7945 22.1132 12.8972 22.1239 12.9854 22.1704C13.0735 22.2169 13.1404 22.2956 13.1719 22.3902C13.1854 22.4371 13.1892 22.4862 13.1832 22.5347C13.1772 22.5831 13.1614 22.6298 13.1369 22.672C13.1123 22.7141 13.0795 22.7509 13.0404 22.7801C13.0013 22.8093 12.9566 22.8302 12.9092 22.8417C12.0496 23.0766 11.1257 22.9774 10.3427 22.5633C9.96055 22.3663 9.62156 22.095 9.34563 21.7653C9.0697 21.4356 8.86238 21.0541 8.73584 20.6432V20.6432ZM9.14474 9.49164L13.7296 11.9059C13.7587 11.9202 13.7844 11.9403 13.8053 11.9651C13.8263 11.9898 13.8419 12.0186 13.8512 12.0496C13.8605 12.0806 13.8633 12.1132 13.8594 12.1454C13.8556 12.1775 13.8451 12.2085 13.8288 12.2365L12.6195 14.3088C12.5844 14.3657 12.529 14.407 12.4645 14.4245C12.4 14.4419 12.3313 14.4342 12.2724 14.4028L7.6875 11.9877C7.65857 11.9733 7.6329 11.9532 7.61207 11.9285C7.59123 11.9039 7.57569 11.8752 7.56639 11.8443C7.55709 11.8134 7.55424 11.7809 7.55801 11.7488C7.56178 11.7168 7.5721 11.6858 7.58832 11.6579L8.79761 9.58647C8.83241 9.52932 8.8877 9.48759 8.9522 9.46981C9.01671 9.45202 9.08557 9.45952 9.14474 9.49077V9.49164ZM9.02033 9.70392L7.81191 11.7762L12.3968 14.1905L13.6061 12.1182L9.0212 9.70392H9.02033Z" fill="black"/>
  <path fill-rule="evenodd" clip-rule="evenodd" d="M9.14474 9.49164L13.7296 11.9059C13.7587 11.9202 13.7844 11.9403 13.8053 11.9651C13.8263 11.9898 13.8419 12.0186 13.8512 12.0496C13.8605 12.0806 13.8633 12.1132 13.8594 12.1454C13.8556 12.1775 13.8451 12.2085 13.8288 12.2365L12.6195 14.3088C12.5844 14.3657 12.529 14.407 12.4645 14.4245C12.4 14.4419 12.3313 14.4342 12.2724 14.4028L7.6875 11.9877C7.65857 11.9733 7.6329 11.9532 7.61207 11.9285C7.59123 11.9039 7.57569 11.8752 7.56639 11.8443C7.55709 11.8134 7.55424 11.7809 7.55801 11.7488C7.56178 11.7168 7.5721 11.6858 7.58832 11.6579L8.79761 9.58647C8.83241 9.52932 8.8877 9.48759 8.9522 9.46981C9.01671 9.45202 9.08557 9.45952 9.14474 9.49077V9.49164ZM9.02033 9.70392L7.81191 11.7762L12.3968 14.1905L13.6061 12.1182L9.0212 9.70392H9.02033ZM18.0831 14.1992L22.6679 16.6143C22.6967 16.6286 22.7223 16.6487 22.7431 16.6733C22.7638 16.6979 22.7793 16.7265 22.7886 16.7573C22.7979 16.7881 22.8008 16.8205 22.7971 16.8524C22.7934 16.8844 22.7832 16.9153 22.7671 16.9431L21.5578 19.0163C21.5227 19.0732 21.4673 19.1146 21.4028 19.132C21.3384 19.1495 21.2696 19.1417 21.2107 19.1103L16.6267 16.6961C16.5976 16.6817 16.5719 16.6616 16.5509 16.6369C16.53 16.6121 16.5144 16.5834 16.5051 16.5524C16.4958 16.5213 16.493 16.4887 16.4969 16.4566C16.5007 16.4244 16.5111 16.3934 16.5275 16.3655L17.7359 14.2931C17.771 14.2363 17.8264 14.1949 17.8909 14.1775C17.9554 14.16 18.0241 14.1678 18.0831 14.1992ZM17.9595 14.4115L16.7502 16.4838L21.3351 18.898L22.5444 16.8257L17.9595 14.4115Z" fill="black"/>
  <path fill-rule="evenodd" clip-rule="evenodd" d="M18.0831 14.1992L22.668 16.6143C22.6968 16.6286 22.7224 16.6487 22.7431 16.6733C22.7639 16.6979 22.7794 16.7265 22.7887 16.7573C22.798 16.7881 22.8008 16.8205 22.7972 16.8524C22.7935 16.8844 22.7833 16.9153 22.7672 16.9431L21.5579 19.0163C21.5228 19.0732 21.4674 19.1146 21.4029 19.132C21.3384 19.1495 21.2697 19.1417 21.2108 19.1103L16.6268 16.6961C16.5977 16.6817 16.5719 16.6616 16.551 16.6369C16.5301 16.6121 16.5145 16.5834 16.5052 16.5524C16.4959 16.5213 16.4931 16.4887 16.4969 16.4566C16.5008 16.4244 16.5112 16.3934 16.5276 16.3655L17.736 14.2931C17.7711 14.2363 17.8265 14.1949 17.891 14.1775C17.9555 14.16 18.0242 14.1678 18.0831 14.1992ZM17.9596 14.4115L16.7503 16.4838L21.3352 18.898L22.5445 16.8257L17.9596 14.4115ZM16.8208 11.4839C17.4846 11.8328 17.7247 12.628 17.3567 13.2587L15.6419 16.1993C15.599 16.2693 15.531 16.3203 15.4518 16.3418C15.3725 16.3633 15.288 16.3537 15.2156 16.315L13.3591 15.3371C13.3236 15.3194 13.2921 15.2946 13.2666 15.2643C13.241 15.234 13.222 15.1987 13.2105 15.1608C13.1991 15.1228 13.1956 15.0829 13.2002 15.0435C13.2048 15.0041 13.2174 14.9661 13.2373 14.9317L14.952 11.9929C15.32 11.3613 16.157 11.1342 16.8208 11.4839V11.4839ZM13.868 16.5456C14.9372 17.1084 15.1826 17.8853 14.6049 18.8745L11.3998 17.1867C11.9775 16.1967 12.8005 15.9827 13.868 16.5456Z" fill="black"/>
</svg>
