<svg width="24" height="24" viewBox="0 0 24 24" fill="none" xmlns="http://www.w3.org/2000/svg">
<path fill-rule="evenodd" clip-rule="evenodd" d="M20.333 22.6796H3.94232C3.88392 22.6796 3.82791 22.6565 3.78655 22.6152C3.7452 22.574 3.72187 22.5181 3.72169 22.4597V1.54223C3.72169 1.42043 3.82052 1.3216 3.94232 1.3216H16.0763L16.1181 1.36684V5.33401C16.1181 5.83652 16.5246 6.24368 17.0263 6.24368H20.553V22.4597C20.5526 22.5179 20.5293 22.5736 20.4882 22.6148C20.447 22.6559 20.3912 22.6793 20.333 22.6796ZM21.7014 5.50244L16.8544 0.213573C16.7926 0.146001 16.7173 0.0920462 16.6334 0.0551409C16.5495 0.0182358 16.4589 -0.000812759 16.3672 -0.000793442H3.94232C3.53326 -0.000424631 3.14107 0.162284 2.85189 0.451597C2.56271 0.740909 2.40018 1.13317 2.39999 1.54223V22.4597C2.39999 23.3088 3.09181 24.0006 3.94232 24.0006H20.333C20.7416 24.0001 21.1333 23.8375 21.4222 23.5487C21.7112 23.2598 21.8739 22.8682 21.8746 22.4597V5.94857C21.8747 5.78308 21.8126 5.6236 21.7006 5.50175" fill="black"/>
<path fill-rule="evenodd" clip-rule="evenodd" d="M10.9754 10.3376L11.4479 10.6111L11.2246 11.0336L10.7519 10.7593L10.9754 10.3376ZM13.0641 11.7296L13.5359 12.0031L13.3118 12.4256L12.8399 12.1521L13.0641 11.7296ZM11.0297 13.1216L11.4479 13.3422L11.171 13.8176L10.7519 13.5969L11.0297 13.1216Z" stroke="#A2AAAD" stroke-width="0.1"/>
<path fill-rule="evenodd" clip-rule="evenodd" d="M9.4832 15.9786C9.582 16.0301 9.70592 15.9968 9.7616 15.9028C9.77456 15.8804 9.7828 15.8555 9.78576 15.8298C9.78872 15.8041 9.7864 15.778 9.77888 15.7532C9.77136 15.7284 9.75888 15.7054 9.74216 15.6857C9.72536 15.6659 9.7048 15.6497 9.68152 15.6383C9.63416 15.6131 9.57888 15.607 9.52712 15.6212C9.47536 15.6354 9.43096 15.6689 9.40312 15.7149C9.39016 15.7372 9.38184 15.762 9.37872 15.7877C9.37568 15.8133 9.37792 15.8393 9.38528 15.8641C9.39264 15.8889 9.40504 15.9119 9.4216 15.9317C9.43824 15.9515 9.45872 15.9677 9.48176 15.9793H9.4832V15.9786ZM9.186 16.4881C8.79064 16.2807 8.648 15.8074 8.8672 15.4323C9.08576 15.0565 9.58408 14.9207 9.97872 15.1289C10.3734 15.3377 10.5167 15.8102 10.2975 16.1853C10.079 16.5605 9.58064 16.6962 9.186 16.4888V16.4881Z" fill="black"/>
<path fill-rule="evenodd" clip-rule="evenodd" d="M7.87261 16.2744C7.86195 16.237 7.85897 16.1977 7.86385 16.159C7.86872 16.1204 7.88135 16.0831 7.90097 16.0494C7.92061 16.0158 7.94682 15.9864 7.97806 15.9631C8.00928 15.9398 8.04496 15.9231 8.0828 15.9139C8.15952 15.8917 8.24184 15.8999 8.31256 15.937C8.38328 15.9742 8.43688 16.0372 8.46208 16.113C8.54704 16.3962 8.74744 16.635 9.01888 16.777C9.28896 16.9196 9.60776 16.9544 9.90424 16.8723C9.98112 16.8503 10.0635 16.8589 10.1342 16.8962C10.2049 16.9336 10.2584 16.9968 10.2835 17.0727C10.2942 17.1102 10.2972 17.1494 10.2923 17.1882C10.2874 17.2268 10.2748 17.2641 10.2551 17.2978C10.2355 17.3314 10.2093 17.3607 10.1781 17.3841C10.1468 17.4074 10.1112 17.4241 10.0734 17.4333C9.62008 17.5576 9.13656 17.5054 8.72032 17.2871C8.51872 17.1831 8.33992 17.0398 8.19432 16.8658C8.0488 16.6918 7.93939 16.4906 7.87261 16.2738V16.2744Z" fill="black"/>
<path fill-rule="evenodd" clip-rule="evenodd" d="M6.98866 16.5146C6.978 16.4771 6.97503 16.4379 6.9799 16.3992C6.98478 16.3606 6.99741 16.3233 7.01704 16.2896C7.03666 16.2559 7.06288 16.2266 7.09412 16.2033C7.12536 16.18 7.16099 16.1633 7.19885 16.1541C7.27564 16.1319 7.35805 16.1403 7.42878 16.1775C7.49951 16.2147 7.55306 16.2779 7.57817 16.3539C7.7299 16.8598 8.08767 17.2864 8.57207 17.5405C9.06015 17.7967 9.62727 17.8581 10.1589 17.7124C10.2356 17.6906 10.3177 17.6991 10.3883 17.7363C10.4588 17.7735 10.5123 17.8365 10.5375 17.9122C10.5483 17.9497 10.5513 17.989 10.5465 18.0278C10.5417 18.0665 10.5291 18.1039 10.5095 18.1376C10.4898 18.1713 10.4636 18.2007 10.4323 18.2241C10.401 18.2475 10.3653 18.2642 10.3273 18.2734C9.63967 18.4613 8.90055 18.3819 8.27415 18.0507C7.96843 17.8931 7.69724 17.676 7.47649 17.4123C7.25575 17.1485 7.08989 16.8433 6.98866 16.5146ZM7.31578 7.59333L10.9837 9.52473C11.0069 9.53617 11.0275 9.55225 11.0442 9.57209C11.061 9.59185 11.0735 9.61489 11.0809 9.63969C11.0884 9.66449 11.0906 9.69057 11.0875 9.71633C11.0845 9.74201 11.0761 9.76681 11.063 9.78921L10.0956 11.4471C10.0675 11.4926 10.0232 11.5256 9.97159 11.5396C9.91999 11.5535 9.86503 11.5474 9.81791 11.5223L6.14999 9.59017C6.12684 9.57865 6.10631 9.56257 6.08964 9.54281C6.07297 9.52313 6.06054 9.50017 6.0531 9.47545C6.04566 9.45073 6.04338 9.42473 6.0464 9.39905C6.04941 9.37345 6.05767 9.34865 6.07064 9.32633L7.03808 7.66919C7.06592 7.62347 7.11015 7.59009 7.16175 7.57586C7.21336 7.56163 7.26844 7.56763 7.31578 7.59263V7.59333ZM7.21625 7.76315L6.24952 9.42097L9.91743 11.3524L10.8849 9.69457L7.21695 7.76315H7.21625Z" fill="black"/>
<path fill-rule="evenodd" clip-rule="evenodd" d="M7.31578 7.59333L10.9837 9.52473C11.0069 9.53617 11.0275 9.55225 11.0442 9.57209C11.061 9.59185 11.0735 9.61489 11.0809 9.63969C11.0884 9.66449 11.0906 9.69057 11.0875 9.71633C11.0845 9.74201 11.0761 9.76681 11.063 9.78921L10.0956 11.4471C10.0675 11.4926 10.0232 11.5256 9.97159 11.5396C9.91999 11.5535 9.86503 11.5474 9.81791 11.5223L6.14999 9.59017C6.12684 9.57865 6.10631 9.56257 6.08964 9.54281C6.07297 9.52313 6.06054 9.50017 6.0531 9.47545C6.04566 9.45073 6.04338 9.42473 6.0464 9.39905C6.04941 9.37345 6.05767 9.34865 6.07064 9.32633L7.03808 7.66919C7.06592 7.62347 7.11015 7.59009 7.16175 7.57586C7.21336 7.56163 7.26844 7.56763 7.31578 7.59263V7.59333ZM7.21625 7.76315L6.24952 9.42097L9.91743 11.3524L10.8849 9.69457L7.21695 7.76315H7.21625ZM14.4665 11.3594L18.1343 13.2915C18.1573 13.3029 18.1778 13.319 18.1945 13.3387C18.211 13.3583 18.2234 13.3812 18.2309 13.4059C18.2383 13.4305 18.2406 13.4564 18.2377 13.4819C18.2347 13.5075 18.2265 13.5323 18.2137 13.5545L17.2462 15.2131C17.2181 15.2586 17.1738 15.2917 17.1222 15.3056C17.0707 15.3196 17.0157 15.3134 16.9685 15.2883L13.3013 13.3569C13.2781 13.3454 13.2575 13.3293 13.2407 13.3095C13.224 13.2897 13.2115 13.2667 13.2041 13.2419C13.1966 13.2171 13.1944 13.191 13.1975 13.1653C13.2005 13.1395 13.2089 13.1147 13.222 13.0924L14.1887 11.4345C14.2168 11.3891 14.2611 11.3559 14.3127 11.342C14.3643 11.328 14.4193 11.3343 14.4665 11.3594ZM14.3676 11.5292L13.4001 13.1871L17.0681 15.1184L18.0355 13.4606L14.3676 11.5292Z" fill="black"/>
<path fill-rule="evenodd" clip-rule="evenodd" d="M14.4665 11.3594L18.1344 13.2914C18.1574 13.3029 18.1779 13.319 18.1945 13.3386C18.2111 13.3583 18.2235 13.3812 18.231 13.4058C18.2384 13.4305 18.2406 13.4564 18.2378 13.4819C18.2348 13.5075 18.2266 13.5322 18.2138 13.5545L17.2463 15.213C17.2182 15.2586 17.1739 15.2917 17.1223 15.3056C17.0707 15.3196 17.0158 15.3134 16.9686 15.2882L13.3014 13.3569C13.2782 13.3454 13.2575 13.3293 13.2408 13.3095C13.2241 13.2897 13.2116 13.2667 13.2042 13.2419C13.1967 13.217 13.1945 13.191 13.1975 13.1653C13.2006 13.1395 13.209 13.1147 13.2221 13.0924L14.1888 11.4345C14.2169 11.389 14.2612 11.3559 14.3128 11.342C14.3644 11.328 14.4194 11.3342 14.4665 11.3594ZM14.3677 11.5292L13.4002 13.187L17.0682 15.1184L18.0356 13.4606L14.3677 11.5292ZM13.4566 9.18712C13.9877 9.46624 14.1798 10.1024 13.8854 10.607L12.5135 12.9594C12.4792 13.0154 12.4248 13.0562 12.3614 13.0734C12.298 13.0906 12.2304 13.083 12.1725 13.052L10.6873 12.2697C10.6589 12.2555 10.6337 12.2357 10.6133 12.2114C10.5928 12.1872 10.5776 12.159 10.5684 12.1286C10.5593 12.0982 10.5565 12.0663 10.5602 12.0348C10.5638 12.0033 10.5739 11.9729 10.5898 11.9454L11.9616 9.59432C12.256 9.08904 12.9256 8.90736 13.4566 9.18712ZM11.0944 13.2365C11.9498 13.6867 12.1461 14.3082 11.6839 15.0996L9.11984 13.7494C9.582 12.9574 10.2404 12.7862 11.0944 13.2365Z" fill="black"/>
</svg>
