<svg width="24" height="24" viewBox="0 0 24 24" fill="none" xmlns="http://www.w3.org/2000/svg">
<path d="M5.751 4C3.616 4 1.878 5.758 1.878 7.92C1.878 8.301 1.932 8.676 2.038 9.037C0.852 9.465 0 10.613 0 11.958C0 13.668 1.374 15.058 3.064 15.058C3.724 15.058 4.35 14.85 4.879 14.455C4.84 15.184 4.801 15.955 4.762 16.707C4.712 17.683 4.658 19.125 4.607 20.031C4.603 20.105 4.63 20.177 4.68 20.231C4.73 20.285 4.8 20.315 4.873 20.315H6.623C6.697 20.315 6.766 20.285 6.817 20.231C6.867 20.177 6.893 20.105 6.889 20.031C6.839 19.124 6.789 17.682 6.74 16.705C6.702 15.954 6.663 15.183 6.623 14.455C7.153 14.85 7.779 15.058 8.439 15.058C10.129 15.058 11.503 13.668 11.503 11.958C11.503 10.635 10.677 9.47 9.464 9.036C9.569 8.679 9.624 8.304 9.624 7.919C9.625 5.76 7.888 4 5.752 4H5.751Z" fill="black"/>
<path d="M23.554 16.053H23.109V13.067C23.109 12.953 23.062 12.845 22.979 12.765C22.895 12.685 22.781 12.64 22.663 12.64H12.857C12.739 12.64 12.626 12.685 12.542 12.765C12.458 12.845 12.412 12.953 12.412 13.067V16.053H11.966C11.847 16.053 11.734 16.098 11.65 16.178C11.567 16.258 11.52 16.367 11.52 16.48V19.893C11.52 20.129 11.72 20.32 11.966 20.32C12.212 20.32 12.411 20.129 12.411 19.893V18.613H23.11V19.893C23.11 20.129 23.31 20.32 23.555 20.32C23.801 20.32 24.001 20.129 24.001 19.893V16.48C24.001 16.367 23.954 16.258 23.871 16.178C23.787 16.098 23.674 16.053 23.555 16.053H23.554Z" fill="black"/>
</svg>
