<svg width="24" height="24" viewBox="0 0 24 24" fill="none" xmlns="http://www.w3.org/2000/svg">
<path fill-rule="evenodd" clip-rule="evenodd" d="M9.83961 24H14.1604V23.9993C14.7101 23.9993 15.1425 23.5738 15.1425 23.0317V17.3789L19.4988 19.927C19.9534 20.1965 20.5217 20.0428 20.7871 19.5809L22.8694 15.9253V15.9245C23.1348 15.4634 22.983 14.8856 22.5288 14.6547L17.9621 11.974L22.5288 9.27622C22.983 9.00517 23.1348 8.42453 22.8694 7.95967L20.7871 4.28017C20.5217 3.81607 19.9534 3.66086 19.4988 3.93191L15.1425 6.50547V0.967575C15.1425 0.425513 14.7101 0 14.1604 0H9.83961C9.28988 0 8.8575 0.425513 8.8575 0.967575V6.6295L4.50114 4.07228C4.04656 3.80272 3.47833 3.95644 3.2129 4.41832L1.13061 8.0748C0.865185 8.5359 1.01696 9.11362 1.47117 9.38242L5.89378 11.9692L1.47117 14.582C1.01696 14.8529 0.865185 15.4336 1.13061 15.8985L3.2129 19.5779C3.47833 20.0421 4.04656 20.1973 4.50114 19.9262L8.8575 17.3527V23.0317C8.8575 23.5738 9.28988 24 9.83961 24ZM9.77853 9.67429C9.61305 9.43433 9.5142 9.1516 9.5142 8.81138C9.5142 8.20639 9.82675 7.78319 10.2707 7.45909C10.5925 7.22426 10.9832 7.04146 11.374 6.87923V4.44506C10.8161 4.21339 10.4437 3.67204 10.4437 3.01485C10.4437 2.16461 11.1138 1.46955 11.9311 1.46955C12.7496 1.46955 13.4189 2.16461 13.4189 3.01485C13.4189 3.67204 13.0465 4.21339 12.4894 4.44506V6.37725C12.8984 6.18416 13.2335 5.95174 13.2335 5.72006C13.2335 5.41114 13.4937 5.14084 13.7913 5.14084C14.089 5.14084 14.3492 5.41114 14.3492 5.72006C14.3492 6.76339 13.4189 7.26607 12.4894 7.65225V8.07282V8.76145V9.97058C13.4187 10.3573 14.3487 10.8592 14.3492 11.9027C14.3487 12.9463 13.4187 13.4481 12.4894 13.8341V15.2071V15.8271V16.1539C13.4189 16.5401 14.3492 17.0429 14.3492 18.0862C14.3492 19.1294 13.4189 19.6322 12.4894 20.0183V21.9505C12.4894 22.2594 12.2291 22.5297 11.9311 22.5297C11.6343 22.5297 11.374 22.2594 11.374 21.9505V20.5203C10.965 20.7141 10.6299 20.9458 10.6299 21.1774C10.6299 21.4864 10.3697 21.7567 10.0721 21.7567C9.77443 21.7567 9.5142 21.4864 9.5142 21.1774C9.5142 20.1341 10.4437 19.6315 11.374 19.2453V16.927C11.0358 16.7863 10.6977 16.6305 10.4043 16.4389C9.8907 16.1036 9.5142 15.6588 9.5142 14.9948C9.5142 14.6915 9.59279 14.4338 9.72714 14.2114C10.0548 13.669 10.7142 13.3365 11.374 13.0626V10.7436C10.7471 10.4834 10.1205 10.1702 9.77853 9.67429ZM11.374 14.3376V15.1747V15.6898C10.965 15.4582 10.6299 15.2265 10.6299 14.9948C10.6299 14.9254 10.6598 14.8561 10.7126 14.7878C10.8366 14.6275 11.0871 14.4731 11.374 14.3376ZM10.7717 9.08756C10.9073 9.22754 11.1272 9.36734 11.374 9.50715V8.73174V8.15498C10.965 8.34803 10.6299 8.5797 10.6299 8.81138C10.6299 8.90354 10.6826 8.99559 10.7717 9.08756ZM13.2335 11.9035C13.2335 12.1351 12.8984 12.3668 12.4894 12.5599V11.2077C12.8984 11.4394 13.2335 11.6711 13.2335 11.9027V11.9035ZM13.2335 18.0862C13.2335 18.3179 12.8984 18.5495 12.4894 18.7433V17.3903C12.8984 17.622 13.2335 17.8544 13.2335 18.0862Z" fill="black"/>
</svg>
