<svg width="24" height="24" viewBox="0 0 24 24" fill="none" xmlns="http://www.w3.org/2000/svg">
<path d="M1.89404 19.16C1.76304 19.16 1.65004 19.142 1.51904 19.066C1.10604 18.86 0.938036 18.373 1.14404 17.979L7.01304 6.466C7.21904 6.073 7.72504 5.904 8.13704 6.091C8.55004 6.298 8.71904 6.785 8.51204 7.179L2.62504 18.71C2.49404 18.991 2.19404 19.16 1.89404 19.16ZM22.575 19.066C22.988 18.86 23.156 18.373 22.95 17.979L17.081 6.485C16.875 6.091 16.369 5.923 15.956 6.11C15.544 6.316 15.375 6.804 15.581 7.198L21.45 18.709C21.6 18.99 21.881 19.159 22.2 19.159C22.313 19.159 22.444 19.122 22.575 19.065V19.066Z" fill="black"/>
<path d="M20.663 7.985H3.337C2.7 7.985 2.175 7.479 2.175 6.842C2.175 6.204 2.7 5.698 3.338 5.698H20.663C21.3 5.698 21.825 6.204 21.825 6.841C21.825 7.479 21.319 7.985 20.663 7.985ZM24 12.485C24 11.848 23.475 11.341 22.837 11.341H1.163C0.525 11.341 0 11.849 0 12.485C0 13.123 0.525 13.629 1.163 13.629H22.837C23.475 13.629 24 13.123 24 12.485Z" fill="black"/>
</svg>
