<svg width="30" height="30" viewBox="0 0 30 30" fill="none" xmlns="http://www.w3.org/2000/svg">
<g clip-path="url(#clip0)">
<path d="M0.508886 27.9444L0.0336947 29.2536C-0.00294047 29.353 -0.0102014 29.4608 0.0127784 29.5642C0.0357583 29.6676 0.0880083 29.7623 0.163292 29.8368C0.315689 29.9892 0.542485 30.0408 0.745281 29.9664L2.05686 29.4924C2.07485 29.4855 2.09329 29.4799 2.11206 29.4756L11.9999 19.5877L11.2067 18.7934L10.4135 18.0002L0.525685 27.888C0.522085 27.9072 0.513686 27.9264 0.508886 27.9444V27.9444ZM20.2425 24.2701C20.3431 24.1693 20.3996 24.0327 20.3996 23.8903C20.3996 23.7479 20.3431 23.6113 20.2425 23.5105L6.49077 9.75271C6.38919 9.65454 6.25345 9.59966 6.11218 9.59966C5.97091 9.59966 5.83517 9.65454 5.73359 9.75271L4.9572 10.5255C4.90728 10.5752 4.86766 10.6343 4.84063 10.6994C4.8136 10.7645 4.79969 10.8342 4.79969 10.9047C4.79969 10.9752 4.8136 11.0449 4.84063 11.11C4.86766 11.1751 4.90728 11.2342 4.9572 11.2839L18.7077 25.0441C18.8088 25.1441 18.9453 25.2002 19.0875 25.2002C19.2298 25.2002 19.3662 25.1441 19.4673 25.0441L20.2413 24.2713L20.2425 24.2701ZM28.2212 10.6395C28.4444 10.8543 28.7972 10.8543 29.0192 10.6395L29.8351 9.82471C29.9405 9.71841 29.9996 9.57479 29.9996 9.42511C29.9996 9.27544 29.9405 9.13182 29.8351 9.02552L20.9781 0.161265C20.8706 0.0577974 20.7271 0 20.5779 0C20.4287 0 20.2853 0.0577974 20.1777 0.161265L19.3641 0.974851C19.2593 1.08166 19.2005 1.22536 19.2005 1.37504C19.2005 1.52473 19.2593 1.66843 19.3641 1.77524L28.22 10.6407L28.2212 10.6395ZM20.2077 3.60041C18.7677 4.99599 13.6798 9.75631 9.59992 11.5287L18.4701 20.4001C20.2437 16.3202 25.0052 11.2299 26.3996 9.78991L20.2077 3.60041ZM16.6078 9.52951C16.1446 9.85231 15.6898 10.1499 15.2518 10.4151C15.1286 10.4897 14.9809 10.5124 14.841 10.4781C14.7012 10.4437 14.5807 10.3553 14.506 10.2321C14.4314 10.1089 14.4087 9.96117 14.4431 9.82131C14.4774 9.68144 14.5659 9.56094 14.689 9.48631C15.1042 9.23432 15.541 8.94872 15.9838 8.64033C16.0618 8.58515 16.153 8.55161 16.2482 8.5431C16.3433 8.5346 16.439 8.55144 16.5256 8.59191C16.6121 8.63237 16.6864 8.69503 16.7409 8.77351C16.7954 8.85199 16.8281 8.94349 16.8358 9.03872C16.8433 9.13366 16.826 9.22892 16.7856 9.31517C16.7452 9.40142 16.6831 9.47569 16.6054 9.53071H16.6078V9.52951ZM18.4006 8.18673C18.345 8.23297 18.2809 8.26765 18.2118 8.28874C18.1427 8.30984 18.0701 8.31692 17.9982 8.30957C17.9264 8.30223 17.8567 8.2806 17.7933 8.24596C17.7299 8.21133 17.6741 8.16438 17.6291 8.10787C17.5841 8.05136 17.5508 7.98644 17.5313 7.9169C17.5117 7.84737 17.5062 7.77462 17.5152 7.70294C17.5241 7.63126 17.5473 7.56209 17.5833 7.49948C17.6193 7.43687 17.6675 7.38209 17.725 7.33835C18.4089 6.79116 19.1049 6.19837 19.7865 5.58398C19.8394 5.53622 19.9011 5.49935 19.9683 5.47547C20.0354 5.45159 20.1066 5.44116 20.1777 5.44478C20.2488 5.4484 20.3186 5.46599 20.3829 5.49657C20.4473 5.52714 20.505 5.57009 20.5527 5.62296C20.6005 5.67583 20.6373 5.73759 20.6612 5.80471C20.6851 5.87183 20.6955 5.94299 20.6919 6.01414C20.6883 6.08529 20.6707 6.15503 20.6401 6.21938C20.6095 6.28372 20.5666 6.34142 20.5137 6.38916C19.8282 7.00969 19.1238 7.60915 18.4018 8.18673H18.4006Z" fill="black"/>
</g>
<defs>
<clipPath id="clip0">
<rect width="30" height="30" fill="white"/>
</clipPath>
</defs>
</svg>
