<svg width="24" height="24" viewBox="0 0 24 24" fill="none" xmlns="http://www.w3.org/2000/svg">
<path d="M0.407036 22.3555L0.0268825 23.4029C-0.00242562 23.4824 -0.00823436 23.5686 0.0101495 23.6514C0.0285334 23.7341 0.0703334 23.8098 0.13056 23.8694C0.252478 23.9914 0.433915 24.0326 0.596152 23.9731L1.64541 23.5939C1.65981 23.5884 1.67456 23.5839 1.68957 23.5805L9.59985 15.6702L8.96529 15.0347L8.33073 14.4002L0.420475 22.3104C0.417595 22.3258 0.410876 22.3411 0.407036 22.3555ZM16.1939 19.4161C16.2744 19.3354 16.3196 19.2262 16.3196 19.1122C16.3196 18.9983 16.2744 18.889 16.1939 18.8084L5.19254 7.80217C5.11128 7.72363 5.00269 7.67973 4.88967 7.67973C4.77666 7.67973 4.66806 7.72363 4.5868 7.80217L3.96569 8.4204C3.92575 8.46016 3.89405 8.50744 3.87243 8.55952C3.85081 8.6116 3.83968 8.66736 3.83968 8.72376C3.83968 8.78016 3.85081 8.83592 3.87243 8.888C3.89405 8.94008 3.92575 8.98736 3.96569 9.02712L14.9661 20.0353C15.047 20.1153 15.1562 20.1602 15.2699 20.1602C15.3838 20.1602 15.4929 20.1153 15.5738 20.0353L16.193 19.417L16.1939 19.4161ZM22.5769 8.5116C22.7554 8.68344 23.0377 8.68344 23.2153 8.5116L23.868 7.85977C23.9523 7.77473 23.9996 7.65983 23.9996 7.54009C23.9996 7.42035 23.9523 7.30546 23.868 7.22042L16.7824 0.129012C16.6964 0.0462379 16.5816 0 16.4622 0C16.3429 0 16.2282 0.0462379 16.1421 0.129012L15.4912 0.779881C15.4074 0.865328 15.3603 0.980288 15.3603 1.10003C15.3603 1.21978 15.4074 1.33474 15.4912 1.42019L22.5759 8.51256L22.5769 8.5116ZM16.1661 2.88033C15.0141 3.99679 10.9438 7.80505 7.67986 9.22296L14.776 16.3201C16.1949 13.0562 20.0041 8.98392 21.1196 7.83193L16.1661 2.88033ZM13.2862 7.62361C12.9156 7.88185 12.5518 8.11992 12.2014 8.33208C12.1028 8.39176 11.9846 8.40992 11.8727 8.38248C11.7609 8.35496 11.6645 8.28424 11.6047 8.18568C11.545 8.08712 11.5269 7.96894 11.5544 7.85705C11.5818 7.74515 11.6526 7.64875 11.7511 7.58905C12.0833 7.38746 12.4327 7.15898 12.787 6.91226C12.8494 6.86812 12.9223 6.84129 12.9985 6.83448C13.0746 6.82768 13.1511 6.84115 13.2204 6.87353C13.2896 6.9059 13.349 6.95602 13.3926 7.01881C13.4362 7.08159 13.4624 7.15479 13.4686 7.23098C13.4746 7.30693 13.4607 7.38314 13.4284 7.45214C13.3961 7.52114 13.3464 7.58055 13.2842 7.62457H13.2862V7.62361ZM14.7204 6.54938C14.6759 6.58638 14.6246 6.61412 14.5694 6.63099C14.5141 6.64787 14.456 6.65354 14.3985 6.64766C14.341 6.64178 14.2853 6.62448 14.2346 6.59677C14.1838 6.56906 14.1392 6.5315 14.1032 6.4863C14.0672 6.44109 14.0406 6.38915 14.025 6.33352C14.0093 6.2779 14.0049 6.2197 14.0121 6.16235C14.0192 6.10501 14.0378 6.04967 14.0666 5.99958C14.0954 5.9495 14.1339 5.90567 14.1799 5.87068C14.727 5.43293 15.2838 4.9587 15.8291 4.46718C15.8714 4.42898 15.9208 4.39948 15.9746 4.38038C16.0282 4.36127 16.0852 4.35293 16.1421 4.35582C16.199 4.35872 16.2548 4.37279 16.3062 4.39726C16.3578 4.42171 16.4039 4.45607 16.4421 4.49837C16.4803 4.54066 16.5098 4.59007 16.5289 4.64377C16.548 4.69746 16.5563 4.75439 16.5534 4.81131C16.5506 4.86823 16.5365 4.92402 16.512 4.9755C16.4875 5.02698 16.4532 5.07314 16.4109 5.11133C15.8625 5.60775 15.299 6.08732 14.7214 6.54938H14.7204Z" fill="black"/>
</svg>
