<svg width="24" height="24" viewBox="0 0 24 24" fill="none" xmlns="http://www.w3.org/2000/svg">
<path d="M23.679 6.069L12.279 0.069C12.104 -0.023 11.896 -0.023 11.721 0.069L0.321 6.069C0.123 6.172 0 6.377 0 6.599V9C0 9.21 0.11 9.405 0.29 9.514C0.47 9.622 0.693 9.629 0.879 9.531L12 3.678L23.121 9.53C23.307 9.628 23.531 9.621 23.711 9.513C23.89 9.404 24 9.209 24 8.999V6.6C24 6.377 23.877 6.173 23.679 6.07V6.069Z" fill="black"/>
<path d="M11.886 4.57101L21.486 9.62301V21.737C21.485 22.068 21.216 22.337 20.886 22.337H2.88601C2.55501 22.337 2.28601 22.068 2.28601 21.737V9.62301L11.886 4.57101ZM12.252 11.763C11.63 11.763 11.068 12.273 10.572 12.89C10.01 13.59 10.116 13.793 9.82201 13.793C9.52801 13.793 8.54001 12.205 8.46801 12.21C8.20401 12.231 7.91701 12.885 8.02201 13.457C8.07001 13.713 9.62801 15.354 9.86801 15.343C10.168 15.343 10.914 14.601 11.225 14.209L11.237 17.367L10.169 19.335C9.80901 20.191 9.75401 20.557 9.92601 20.782C10.079 20.982 10.37 21.012 10.586 21.015H15.146C15.176 20.91 15.248 20.611 15.146 20.273C15.045 19.934 14.734 19.806 14.59 19.763C14.154 19.635 11.788 19.67 11.654 19.635C11.52 19.601 13.096 18.659 13.546 17.715C13.996 16.772 13.62 13.766 13.626 13.365C13.632 13.091 13.331 11.763 12.252 11.763ZM11.068 9.00001C10.331 9.00001 9.73501 9.59601 9.73501 10.332C9.73501 11.068 10.331 11.664 11.068 11.664C11.804 11.664 12.401 11.068 12.401 10.332C12.401 9.59601 11.804 9.00001 11.068 9.00001Z" fill="black"/>
</svg>
