<svg width="24" height="24" viewBox="0 0 24 24" fill="none" xmlns="http://www.w3.org/2000/svg">
<path d="M7.55298 0.115012C7.34298 -0.0389883 7.05698 -0.0389883 6.84698 0.115012L0.246981 3.71501C0.0369807 3.86801 -0.0510193 4.13901 0.0289807 4.38501C0.108981 4.63301 0.339981 4.80001 0.599981 4.80001H13.8C14.06 4.80001 14.29 4.63301 14.37 4.38601C14.451 4.13901 14.363 3.86801 14.153 3.71501L7.55298 0.115012ZM1.19998 16.8H2.39998V23.4C2.39998 23.731 2.66898 24 2.99998 24C3.33098 24 3.59998 23.731 3.59998 23.4V21.6H10.8V23.4C10.8 23.731 11.069 24 11.4 24C11.731 24 12 23.731 12 23.4V16.8H13.2V14.4H1.19998V16.8ZM3.59998 16.8H10.8V18H3.59998V16.8ZM3.59998 19.2H10.8V20.4H3.59998V19.2ZM7.19998 8.40001C5.87498 8.40101 4.80098 9.47501 4.79998 10.8V13.2H9.59998V10.8C9.59898 9.47501 8.52498 8.40101 7.19998 8.40001Z" fill="black"/>
<path d="M1.19995 13.2H3.59995V10.8C3.59995 8.812 5.21195 7.2 7.19995 7.2C9.18795 7.2 10.8 8.812 10.8 10.8V13.2H13.2V6H1.19995V13.2ZM23.4 21.6C20.4 21.6 18 15.6 14.4 14.725V17.4C16.8 18 19.2 24 23.4 24C23.5599 24 23.712 23.937 23.8239 23.824C23.937 23.712 24 23.559 24 23.4V22.2C24 22.04 23.937 21.888 23.8239 21.776C23.712 21.663 23.559 21.6 23.4 21.6ZM15.6 12.6V13.958C16.023 14.186 16.425 14.451 16.8 14.751V12.6C16.798 11.175 15.796 9.948 14.4 9.66V10.91C15.117 11.163 15.598 11.84 15.6 12.6Z" fill="black"/>
</svg>
