<svg width="24" height="24" viewBox="0 0 24 24" fill="none" xmlns="http://www.w3.org/2000/svg">
<path d="M16.9393 20.76C15.5013 22.7116 13.2427 23.9053 10.8086 24C10.6653 23.9198 10.5553 23.7916 10.4985 23.6381C10.4429 23.4158 9.8795 21.5147 9.59846 20.959C9.31678 20.4031 8.9795 19.5057 8.5867 19.0579C8.19382 18.6114 7.17954 16.7141 7.0109 16.2631C6.84227 15.8129 6.61806 14.2541 6.50501 14.0299C6.06858 13.3591 5.58101 12.7226 5.04669 12.1257C4.65385 11.7341 2.45911 9.61392 2.18122 9.33224C1.90332 9.05112 1.50669 8.49536 1.61974 8.21432C1.73342 7.93263 1.78838 7.71158 2.01258 7.71158C2.23679 7.71158 2.63154 7.71158 2.80016 7.87894C2.96816 8.04632 4.0949 8.82824 4.2629 9.05112C4.43154 9.27408 6.11722 10.5581 6.17658 10.5581C6.23532 10.5581 6.68185 10.6137 6.73742 10.5013C6.79301 10.3889 7.07469 10.1666 6.96354 9.66376C6.85238 9.16168 5.27785 3.13326 5.27785 3.13326C5.27785 3.13326 5.10922 1.79369 5.78311 1.79369C6.45764 1.79369 6.62627 2.18337 6.73932 2.18337C6.85238 2.18337 8.75534 8.27056 8.75534 8.27056C8.75534 8.27056 8.86646 8.43792 8.92398 8.38104C8.98078 8.32424 9.31678 8.21368 9.26126 7.9339C9.20566 7.65474 8.6423 1.34147 8.75598 1.00484C8.86838 0.66821 8.9795 0 9.42982 0C9.8795 0 10.3298 0.112421 10.556 0.781894C10.7814 1.45137 11.4541 7.31242 11.4541 7.31242C11.4541 7.31242 11.5109 7.64779 11.6801 7.64779C11.8488 7.64779 12.1298 7.20253 12.1854 6.8659C12.2417 6.52926 12.6913 1.05537 12.7488 1.00484C12.8057 0.954312 12.9174 0.390316 13.3677 0.447158C13.8174 0.504 13.9298 0.614526 13.9861 0.726947C14.2008 1.14506 14.3347 1.59916 14.3808 2.0659C14.4534 2.80926 14.4888 3.55579 14.4869 4.30169L14.2071 8.10192C14.2071 8.10192 14.2627 10.111 14.4313 10.5044C14.5867 10.8209 14.7749 11.1209 14.9921 11.3987C14.9921 11.3987 15.4981 11.9014 15.8928 11.7903C16.3223 11.664 16.7233 11.4556 17.0726 11.1764C17.5229 10.8417 18.536 9.94672 18.8726 9.77936C19.2098 9.612 19.2673 9.4996 19.7157 9.33224C20.06 9.21664 20.4213 9.1604 20.7844 9.16488C20.8974 9.16488 21.2897 9.10992 21.5157 9.38904C21.7418 9.66888 21.853 9.66888 21.7955 10.0042C21.7387 10.339 21.6844 10.2834 21.3471 10.5631C21.0105 10.843 19.6027 11.9596 19.5471 12.0151C19.4915 12.0701 15.6181 17.777 15.6181 17.993C15.6515 18.2766 15.7077 18.5564 15.7861 18.8306L16.9393 20.76Z" fill="black"/>
</svg>
