<svg width="24" height="24" viewBox="0 0 24 24" fill="none" xmlns="http://www.w3.org/2000/svg">
<path d="M16.302 21.171C15.6 19.711 14.805 18.055 14.805 15.407C14.805 14.556 14.875 14.185 15.03 13.373C15.075 13.139 15.126 12.87 15.184 12.546C16.485 10.749 18 7.956 18 4.686C18 3.181 17.815 1.733 17.45 0.382C17.39 0.157 17.18 0 16.94 0H7.06C6.82 0 6.61 0.157 6.55 0.382C6.185 1.733 6 3.182 6 4.686C6 8.88 8.326 12.011 9.187 13.026C9.267 13.477 9.335 13.789 9.392 14.044C9.499 14.526 9.552 14.767 9.552 15.407C9.552 18.055 8.757 19.711 8.055 21.172C7.925 21.445 7.797 21.709 7.679 21.972C7.477 22.421 7.522 22.934 7.799 23.344C8.076 23.754 8.544 24 9.051 24H15.307C15.814 24 16.283 23.755 16.56 23.344C16.837 22.934 16.88 22.421 16.679 21.971C16.56 21.709 16.433 21.444 16.302 21.171ZM7.472 1.022H16.528C16.805 2.179 16.946 3.41 16.946 4.686C16.946 5.613 16.81 6.501 16.588 7.335H7.393C7.186 6.519 7.053 5.633 7.053 4.686C7.053 3.41 7.194 2.18 7.472 1.022Z" fill="black"/>
</svg>
