<svg width="24" height="24" viewBox="0 0 24 24" fill="none" xmlns="http://www.w3.org/2000/svg">
<path d="M9.59998 15.48H14.4V21.24H9.59998V15.48Z" fill="black"/>
<path d="M18.6 8.76H5.40005C5.06905 8.76 4.80005 8.907 4.80005 9.088V21.24H8.40005L8.33505 13.86C8.33505 13.68 8.60405 13.532 8.93505 13.532H14.935C15.266 13.532 15.535 13.679 15.535 13.861L15.6 21.24H19.2V9.088C19.2 8.907 18.931 8.76 18.6 8.76ZM18.773 5.36L12 3L5.22805 5.36C4.96805 5.445 4.80005 5.634 4.80005 5.842V7.426H19.2V5.842C19.2 5.634 19.033 5.445 18.773 5.36Z" fill="black"/>
<path fill-rule="evenodd" clip-rule="evenodd" d="M0.4 8.76001H3.44C3.66 8.76001 3.84 8.94001 3.84 9.16001V21.24H0V9.16001C0 8.94001 0.18 8.76001 0.4 8.76001ZM20.56 8.76001H23.6C23.82 8.76001 24 8.94001 24 9.16001V21.24H20.16V9.16001C20.16 8.94001 20.34 8.76001 20.56 8.76001Z" fill="black"/>
</svg>
