<svg width="24" height="24" viewBox="0 0 24 24" fill="none" xmlns="http://www.w3.org/2000/svg">
<path fill-rule="evenodd" clip-rule="evenodd" d="M-0.0200195 12C-0.0200195 5.36155 5.36152 -0.019989 12 -0.019989C18.6385 -0.019989 24.02 5.36155 24.02 12C24.02 18.6385 18.6385 24.02 12 24.02C5.36152 24.02 -0.0200195 18.6385 -0.0200195 12ZM12 0.980011C5.91381 0.980011 0.97998 5.91384 0.97998 12C0.97998 18.0862 5.91381 23.02 12 23.02C18.0862 23.02 23.02 18.0862 23.02 12C23.02 5.91384 18.0862 0.980011 12 0.980011Z" fill="black"/>
<path d="M11.9999 14.56C13.4138 14.56 14.5599 13.4138 14.5599 12C14.5599 10.5862 13.4138 9.44 11.9999 9.44C10.5861 9.44 9.43993 10.5862 9.43993 12C9.43993 13.4138 10.5861 14.56 11.9999 14.56Z" fill="black"/>
<path fill-rule="evenodd" clip-rule="evenodd" d="M13.6334 11.9266H24.0201V12.9266H13.6334V11.9266Z" fill="black"/>
</svg>
