<svg width="24" height="24" viewBox="0 0 24 24" fill="none" xmlns="http://www.w3.org/2000/svg">
<path fill-rule="evenodd" clip-rule="evenodd" d="M21.6918 4.14927C21.6918 6.44086 19.8341 8.29856 17.5426 8.29856C15.251 8.29856 13.3933 6.44086 13.3933 4.14927C13.3933 1.8577 15.251 0 17.5426 0C19.8341 0 21.6918 1.8577 21.6918 4.14927ZM20.2815 2.09649C20.3143 2.11069 20.3438 2.13146 20.3683 2.15752C20.419 2.21168 20.4473 2.28313 20.4473 2.35735C20.4473 2.43158 20.419 2.50302 20.3683 2.55718L18.1786 4.8505L16.9462 6.14103C16.8408 6.25176 16.6698 6.25242 16.565 6.14103L15.1321 4.64066C15.0813 4.5865 15.053 4.51506 15.053 4.44083C15.053 4.36661 15.0813 4.29516 15.1321 4.241C15.1566 4.21494 15.1861 4.19417 15.2189 4.17997C15.2517 4.16577 15.287 4.15844 15.3227 4.15844C15.3585 4.15844 15.3938 4.16577 15.4266 4.17997C15.4594 4.19417 15.489 4.21494 15.5134 4.241L16.7556 5.5422L17.805 4.44296L19.987 2.15752C20.0114 2.13146 20.041 2.11069 20.0738 2.09649C20.1066 2.08229 20.1419 2.07496 20.1776 2.07496C20.2134 2.07496 20.2487 2.08229 20.2815 2.09649Z" fill="black"/>
<path fill-rule="evenodd" clip-rule="evenodd" d="M3.05189 22.7565H18.4814C18.5362 22.7561 18.5887 22.7342 18.6274 22.6954C18.6662 22.6567 18.6882 22.6042 18.6885 22.5494V7.28431H15.3686C14.8962 7.28431 14.5137 6.90103 14.5137 6.42799V2.69345L14.4743 2.65085H3.05189C2.93723 2.65085 2.8442 2.74389 2.8442 2.85855V22.5494C2.84437 22.6044 2.86633 22.657 2.90526 22.6958C2.94419 22.7346 2.99692 22.7565 3.05189 22.7565ZM18.1786 4.85049L19.7695 6.58654L19.7689 6.58589C19.8743 6.70059 19.9327 6.85073 19.9326 7.00651V22.5494C19.932 22.934 19.7788 23.3027 19.5068 23.5746C19.2348 23.8465 18.8661 23.9994 18.4814 24H3.05189C2.25125 24 1.60001 23.3487 1.60001 22.5494V2.85855C1.60018 2.47348 1.75318 2.10422 2.02541 1.83187C2.29763 1.55953 2.66682 1.40636 3.05189 1.40601H14.7482C14.8345 1.40599 14.9198 1.42393 14.9987 1.45866C15.0777 1.49341 15.1486 1.5442 15.2068 1.60781L17.805 4.44295L16.7556 5.54219L15.5134 4.24099C15.489 4.21493 15.4594 4.19416 15.4266 4.17996C15.3938 4.16576 15.3585 4.15843 15.3227 4.15843C15.287 4.15843 15.2517 4.16576 15.2189 4.17996C15.1861 4.19416 15.1566 4.21493 15.1321 4.24099C15.0813 4.29515 15.053 4.3666 15.053 4.44082C15.053 4.51505 15.0813 4.58649 15.1321 4.64065L16.565 6.14102C16.6698 6.25241 16.8408 6.25175 16.9462 6.14102L18.1786 4.85049Z" fill="black"/>
<path d="M2.25517 19.6554H16.014H2.25517ZM2.58276 5.56903H11.1002H2.58276ZM2.25517 8.51735H10.7726H2.25517ZM2.25517 11.7933H8.15184H2.25517ZM2.25517 14.414H16.014H2.25517ZM2.25517 17.0347H12.7381H2.25517Z" stroke="black" stroke-linecap="square"/>
</svg>
