<svg width="30" height="30" viewBox="0 0 30 30" fill="none" xmlns="http://www.w3.org/2000/svg">
<path fill-rule="evenodd" clip-rule="evenodd" d="M27.1148 5.18659C27.1148 8.05107 24.7926 10.3732 21.9282 10.3732C19.0637 10.3732 16.7416 8.05107 16.7416 5.18659C16.7416 2.32212 19.0637 0 21.9282 0C24.7926 0 27.1148 2.32212 27.1148 5.18659ZM25.3519 2.62061C25.3929 2.63836 25.4298 2.66432 25.4604 2.6969C25.5238 2.7646 25.5591 2.85391 25.5591 2.94669C25.5591 3.03948 25.5238 3.12878 25.4604 3.19648L22.7232 6.06312L21.1828 7.67629C21.051 7.8147 20.8372 7.81552 20.7062 7.67629L18.9151 5.80083C18.8516 5.73313 18.8163 5.64383 18.8163 5.55104C18.8163 5.45826 18.8516 5.36895 18.9151 5.30125C18.9457 5.26868 18.9826 5.24271 19.0236 5.22496C19.0646 5.20721 19.1087 5.19805 19.1534 5.19805C19.1981 5.19805 19.2423 5.20721 19.2833 5.22496C19.3243 5.24271 19.3612 5.26868 19.3917 5.30125L20.9445 6.92775L22.2563 5.5537L24.9837 2.6969C25.0143 2.66432 25.0512 2.63836 25.0922 2.62061C25.1332 2.60286 25.1774 2.5937 25.222 2.5937C25.2667 2.5937 25.3109 2.60286 25.3519 2.62061Z" fill="black"/>
<path fill-rule="evenodd" clip-rule="evenodd" d="M3.81486 28.4456H23.1018C23.1703 28.4451 23.2359 28.4177 23.2843 28.3693C23.3328 28.3209 23.3602 28.2553 23.3606 28.1868V9.1054H19.2108C18.6203 9.1054 18.1421 8.6263 18.1421 8.035V3.36682L18.0929 3.31358H3.81486C3.67153 3.31358 3.55524 3.42988 3.55524 3.5732V28.1868C3.55546 28.2555 3.5829 28.3213 3.63157 28.3698C3.68023 28.4183 3.74614 28.4456 3.81486 28.4456ZM22.7232 6.06312L24.7119 8.23319L24.7111 8.23237C24.8429 8.37575 24.9159 8.56342 24.9158 8.75815V28.1868C24.915 28.6675 24.7235 29.1284 24.3835 29.4683C24.0435 29.8081 23.5826 29.9993 23.1018 30H3.81486C2.81406 30 2 29.1859 2 28.1868V3.5732C2.00022 3.09186 2.19147 2.63029 2.53175 2.28985C2.87203 1.94942 3.33352 1.75796 3.81486 1.75752H18.4353C18.5431 1.7575 18.6497 1.77992 18.7484 1.82334C18.8471 1.86677 18.9357 1.93026 19.0085 2.00977L22.2563 5.5537L20.9445 6.92775L19.3917 5.30125C19.3612 5.26868 19.3243 5.24271 19.2833 5.22496C19.2423 5.20721 19.1981 5.19805 19.1534 5.19805C19.1087 5.19805 19.0646 5.20721 19.0236 5.22496C18.9826 5.24271 18.9457 5.26868 18.9151 5.30125C18.8516 5.36895 18.8163 5.45826 18.8163 5.55104C18.8163 5.64383 18.8516 5.73313 18.9151 5.80083L20.7062 7.67629C20.8372 7.81552 21.051 7.8147 21.1828 7.67629L22.7232 6.06312Z" fill="black"/>
<path d="M2.81897 24.5693H20.0175M3.22846 6.9613H13.8752H3.22846ZM2.81897 10.6467H13.4657H2.81897ZM2.81897 14.7416H10.1898H2.81897ZM2.81897 18.0175H20.0175H2.81897ZM2.81897 21.2934H15.9226H2.81897Z" stroke="black" stroke-linecap="square"/>
</svg>
