<svg width="24" height="24" viewBox="0 0 24 24" fill="none" xmlns="http://www.w3.org/2000/svg">
<path d="M16.056 18.0936C14.7792 19.0512 13.284 19.5288 11.7552 19.5072C11.5536 19.5048 9.8712 19.224 9.7272 19.176C9.6576 19.152 8.3352 18.5568 8.328 18.552C7.71364 18.192 7.15204 17.7408 6.65764 17.2152C6.65044 17.208 6.13684 16.5936 6.10804 16.5528C5.10244 15.2112 4.36084 13.26 4.36084 11.4096H6.12004L3.18004 6.7056L0.240036 11.412H2.00404C2.00404 13.584 2.80804 15.852 3.88564 17.5176C3.90004 17.5416 5.00404 18.9552 5.02084 18.9744C5.66644 19.6656 6.39844 20.2464 7.19284 20.7144C7.21444 20.7264 8.5512 21.3696 8.7624 21.4464C8.8632 21.4824 9.4368 21.66 9.6264 21.708C9.7536 21.7392 10.8288 21.9336 10.8936 21.9408C11.2176 21.9744 11.5392 21.9984 11.8608 21.9984C13.8264 21.9984 15.7416 21.3552 17.388 20.1264C17.9112 19.7328 18.0384 18.96 17.6712 18.3984C17.3016 17.8368 16.5792 17.7 16.056 18.0936ZM7.94404 5.90641C9.2208 4.94881 10.716 4.4712 12.2448 4.4928C12.4464 4.4952 14.1288 4.77601 14.2728 4.82401C14.3424 4.84801 15.6648 5.44321 15.6744 5.44801C16.2888 5.80801 16.8505 6.25921 17.3449 6.78481C17.3521 6.79201 17.8656 7.4064 17.8944 7.4472C18.8976 8.7888 19.6417 10.74 19.6417 12.5904H17.88L20.82 17.2944L23.76 12.5904H21.996C21.996 10.4184 21.192 8.1504 20.1144 6.48481C20.1024 6.46081 18.9984 5.04721 18.9792 5.02801C18.3336 4.33681 17.6016 3.756 16.8072 3.288C16.7856 3.276 15.4489 2.6328 15.2377 2.556C15.1369 2.52 14.5633 2.3424 14.3737 2.2944C14.2465 2.2632 13.1688 2.0688 13.1064 2.0616C12.7824 2.028 12.4608 2.004 12.1392 2.004C10.1736 2.004 8.2584 2.6472 6.61204 3.876C6.08884 4.2696 5.96164 5.04241 6.32884 5.60401C6.69844 6.16321 7.42084 6.30001 7.94404 5.90641Z" fill="black"/>
</svg>
