<svg width="30" height="30" viewBox="0 0 30 30" fill="none" xmlns="http://www.w3.org/2000/svg">
<path d="M20.07 22.617C18.474 23.814 16.605 24.411 14.694 24.384C14.442 24.381 12.339 24.03 12.159 23.97C12.072 23.94 10.419 23.196 10.41 23.19C9.64205 22.74 8.94005 22.176 8.32205 21.519C8.31305 21.51 7.67105 20.742 7.63505 20.691C6.37805 19.014 5.45105 16.575 5.45105 14.262H7.65005L3.97505 8.382L0.300049 14.265H2.50505C2.50505 16.98 3.51005 19.815 4.85705 21.897C4.87505 21.927 6.25505 23.694 6.27605 23.718C7.08305 24.582 7.99805 25.308 8.99105 25.893C9.01805 25.908 10.689 26.712 10.953 26.808C11.079 26.853 11.796 27.075 12.033 27.135C12.192 27.174 13.536 27.417 13.617 27.426C14.022 27.468 14.424 27.498 14.826 27.498C17.283 27.498 19.677 26.694 21.735 25.158C22.389 24.666 22.548 23.7 22.089 22.998C21.627 22.296 20.724 22.125 20.07 22.617ZM9.93005 7.38301C11.526 6.18601 13.395 5.589 15.306 5.616C15.558 5.619 17.661 5.97001 17.841 6.03001C17.928 6.06001 19.581 6.80401 19.593 6.81001C20.361 7.26001 21.0631 7.82401 21.6811 8.48101C21.6901 8.49001 22.332 9.258 22.368 9.309C23.622 10.986 24.5521 13.425 24.5521 15.738H22.35L26.025 21.618L29.7 15.738H27.495C27.495 13.023 26.49 10.188 25.143 8.10601C25.128 8.07601 23.748 6.30901 23.724 6.28501C22.917 5.42101 22.002 4.695 21.009 4.11C20.982 4.095 19.3111 3.291 19.0471 3.195C18.9211 3.15 18.2041 2.928 17.9671 2.868C17.8081 2.829 16.461 2.586 16.383 2.577C15.978 2.535 15.576 2.505 15.174 2.505C12.717 2.505 10.323 3.309 8.26505 4.845C7.61105 5.337 7.45205 6.30301 7.91105 7.00501C8.37305 7.70401 9.27605 7.87501 9.93005 7.38301" fill="black"/>
</svg>
