<svg width="24" height="24" viewBox="0 0 24 24" fill="none" xmlns="http://www.w3.org/2000/svg">
<path fill-rule="evenodd" clip-rule="evenodd" d="M13.7959 0.799988H9.56088C9.17448 0.799988 8.8 1.11359 8.8 1.49999V22.5C8.8 22.8864 9.17448 23.2 9.56088 23.2H13.7959C14.1823 23.2 14.4 22.8864 14.4 22.5V1.49999C14.4 1.11359 14.183 0.799988 13.7959 0.799988Z" stroke="black"/>
<path fill-rule="evenodd" clip-rule="evenodd" d="M8.8 2.20001H10.9V2.90001H8.8V2.20001ZM8.8 6.40001H10.9V7.10001H8.8V6.40001ZM8.8 4.30001H10.9V5.00001H8.8V4.30001ZM8.8 8.50001H10.9V9.20001H8.8V8.50001ZM8.8 10.6H10.9V11.3H8.8V10.6ZM8.8 12.7H10.9V13.4H8.8V12.7ZM8.8 14.8H10.9V15.5H8.8V14.8ZM8.8 16.9H10.9V17.6H8.8V16.9ZM8.8 19H10.9V19.7H8.8V19ZM8.8 21.1H10.9V21.8H8.8V21.1Z" fill="black"/>
</svg>
