<svg width="24" height="24" viewBox="0 0 24 24" fill="none" xmlns="http://www.w3.org/2000/svg">
<path fill-rule="evenodd" clip-rule="evenodd" d="M8.3 1.49999C8.3 0.785621 8.95318 0.299988 9.56088 0.299988H13.7959C14.1385 0.299988 14.4329 0.445093 14.6316 0.690353C14.8212 0.924411 14.9 1.21824 14.9 1.49999V22.5C14.9 22.7821 14.8209 23.0759 14.6313 23.3098C14.4326 23.5547 14.1384 23.7 13.7959 23.7H9.56088C8.95318 23.7 8.3 23.2144 8.3 22.5V1.49999ZM9.36853 1.37808C9.31264 1.42797 9.3 1.47427 9.3 1.49999V22.5C9.3 22.5257 9.31264 22.572 9.36853 22.6219C9.42576 22.673 9.49951 22.7 9.56088 22.7H13.7959C13.8236 22.7 13.8358 22.6947 13.8391 22.6932C13.8426 22.6915 13.8475 22.6885 13.8545 22.68C13.8703 22.6605 13.9 22.6043 13.9 22.5V1.49999C13.9 1.39534 13.8703 1.33916 13.8546 1.31982C13.8478 1.31138 13.8429 1.30847 13.8395 1.30685C13.8362 1.30529 13.8238 1.29999 13.7959 1.29999H9.56088C9.49951 1.29999 9.42576 1.32698 9.36853 1.37808Z" fill="black"/>
<path fill-rule="evenodd" clip-rule="evenodd" d="M8.8 2.20001H10.9V2.90001H8.8V2.20001ZM8.8 6.40001H10.9V7.10001H8.8V6.40001ZM8.8 4.30001H10.9V5.00001H8.8V4.30001ZM8.8 8.50001H10.9V9.20001H8.8V8.50001ZM8.8 10.6H10.9V11.3H8.8V10.6ZM8.8 12.7H10.9V13.4H8.8V12.7ZM8.8 14.8H10.9V15.5H8.8V14.8ZM8.8 16.9H10.9V17.6H8.8V16.9ZM8.8 19H10.9V19.7H8.8V19ZM8.8 21.1H10.9V21.8H8.8V21.1Z" fill="black"/>
</svg>
