<svg width="30" height="30" viewBox="0 0 30 30" fill="none" xmlns="http://www.w3.org/2000/svg">
<path fill-rule="evenodd" clip-rule="evenodd" d="M17.2449 1H11.9511C11.4681 1 11 1.392 11 1.875V28.125C11 28.608 11.4681 29 11.9511 29H17.2449C17.7279 29 18 28.608 18 28.125V1.875C18 1.392 17.7287 1 17.2449 1Z" stroke="black"/>
<path fill-rule="evenodd" clip-rule="evenodd" d="M11 2.75H13.625V3.625H11V2.75ZM11 8H13.625V8.875H11V8ZM11 5.375H13.625V6.25H11V5.375ZM11 10.625H13.625V11.5H11V10.625ZM11 13.25H13.625V14.125H11V13.25ZM11 15.875H13.625V16.75H11V15.875ZM11 18.5H13.625V19.375H11V18.5ZM11 21.125H13.625V22H11V21.125ZM11 23.75H13.625V24.625H11V23.75ZM11 26.375H13.625V27.25H11V26.375Z" fill="black"/>
</svg>
