<svg width="24" height="24" viewBox="0 0 24 24" fill="none" xmlns="http://www.w3.org/2000/svg">
<path d="M9.11608 6.39478L10.3513 7.07958L9.76672 8.13581L8.53072 7.45022L9.11608 6.39478ZM14.282 9.25806L15.5172 9.94214L14.9318 10.9992L13.6974 10.3144L14.282 9.25806ZM10.1739 10.8663L11.2294 11.4517L10.531 12.714L9.4748 12.1285L10.1739 10.8663Z" fill="black" stroke="black" stroke-width="0.1"/>
<path d="M6.76658 18.2195C6.87321 18.2192 6.97536 18.1766 7.05059 18.101C7.12583 18.0254 7.168 17.9231 7.16784 17.8165C7.16768 17.7098 7.12521 17.6077 7.04975 17.5323C6.9743 17.4569 6.87202 17.4146 6.76539 17.4146C6.65875 17.4146 6.55648 17.4569 6.48102 17.5323C6.40556 17.6077 6.36309 17.7098 6.36293 17.8165C6.36277 17.9231 6.40494 18.0254 6.48018 18.101C6.55541 18.1766 6.65755 18.2192 6.76419 18.2195L6.76579 18.2203V18.2195H6.76658ZM6.18119 19.275C5.992 19.1749 5.82466 19.0382 5.68895 18.8728C5.55323 18.7073 5.45187 18.5164 5.39079 18.3113C5.32971 18.1062 5.31013 17.891 5.33321 17.6782C5.35629 17.4655 5.42155 17.2595 5.52519 17.0722C5.62883 16.885 5.76875 16.7203 5.93679 16.5878C6.10483 16.4553 6.29759 16.3576 6.50383 16.3005C6.71007 16.2433 6.92562 16.2279 7.13789 16.255C7.35017 16.2822 7.55489 16.3514 7.74011 16.4586C8.11368 16.6653 8.38984 17.012 8.50784 17.4223C8.62584 17.8327 8.576 18.2731 8.36928 18.6466C8.16256 19.0202 7.81585 19.2964 7.40552 19.4144C6.99517 19.5324 6.55477 19.4825 6.18119 19.2757V19.275Z" fill="black"/>
<path d="M3.59626 18.8311C3.55196 18.6772 3.57064 18.5119 3.64821 18.3717C3.72577 18.2314 3.85586 18.1278 4.00984 18.0835C4.16384 18.0392 4.32912 18.0579 4.46932 18.1354C4.60954 18.213 4.7132 18.3431 4.75749 18.4971C4.84 18.7874 4.97928 19.0586 5.16727 19.2948C5.35527 19.531 5.58824 19.7275 5.85271 19.8731C6.11561 20.0194 6.40488 20.1122 6.70384 20.1462C7.0028 20.1802 7.30553 20.1547 7.59457 20.0711C7.74641 20.0337 7.90686 20.0565 8.04225 20.1348C8.17761 20.2131 8.27729 20.3409 8.32049 20.4913C8.36361 20.6416 8.34681 20.8028 8.27361 20.941C8.2004 21.0792 8.0764 21.1836 7.92782 21.2324C7.48584 21.3597 7.02304 21.3984 6.56605 21.3462C6.10906 21.2941 5.66688 21.1522 5.26493 20.9286C4.86241 20.706 4.5078 20.4062 4.22144 20.0462C3.93508 19.6863 3.72263 19.2734 3.59626 18.8311Z" fill="black"/>
<path d="M1.85679 19.329C1.8126 19.175 1.83139 19.0098 1.90903 18.8697C1.98666 18.7295 2.11679 18.626 2.27078 18.5818C2.42478 18.5376 2.59001 18.5564 2.73014 18.6341C2.87028 18.7117 2.97384 18.8418 3.01803 18.9957C3.1658 19.5144 3.41467 19.9987 3.75033 20.4207C4.08598 20.8428 4.5018 21.1943 4.97383 21.455C5.44512 21.717 5.96353 21.8833 6.49926 21.9443C7.03501 22.0053 7.57752 21.9599 8.09568 21.8106C8.24752 21.7731 8.40792 21.7959 8.54328 21.8743C8.67864 21.9526 8.7784 22.0804 8.82152 22.2307C8.86472 22.381 8.84792 22.5422 8.77464 22.6805C8.70144 22.8186 8.57752 22.9231 8.42888 22.9718C7.75825 23.1649 7.05604 23.2236 6.36263 23.1444C5.66923 23.0653 4.99831 22.8498 4.38845 22.5105C3.77759 22.1733 3.23945 21.7185 2.80497 21.1725C2.37049 20.6265 2.04826 20.0001 1.85679 19.329ZM2.50025 0.850301L9.71896 4.851C9.76528 4.87656 9.80608 4.911 9.83904 4.95237C9.872 4.99374 9.8964 5.04121 9.91096 5.09205C9.92552 5.14289 9.92992 5.19612 9.92384 5.24865C9.91784 5.30119 9.90144 5.35201 9.87568 5.3982L7.97237 8.83183C7.92043 8.92479 7.83383 8.99343 7.73146 9.02279C7.62909 9.05215 7.51926 9.03983 7.42595 8.98847L0.207205 4.9878C0.160896 4.96224 0.120102 4.92778 0.0871728 4.8864C0.0542438 4.845 0.0298299 4.79751 0.015339 4.74664C0.000848143 4.69578 -0.00343334 4.64255 0.00274076 4.59002C0.00891488 4.53749 0.0254222 4.4867 0.0513126 4.44058L1.95383 1.00778C1.97932 0.961525 2.0137 0.920741 2.05497 0.887781C2.09625 0.854821 2.14362 0.830325 2.19437 0.815701C2.24513 0.801069 2.29826 0.796597 2.35075 0.802533C2.40324 0.808469 2.45404 0.824701 2.50025 0.850301ZM2.30538 1.20264L0.402069 4.63624L7.62082 8.63695L9.52416 5.20334L2.30538 1.20264Z" fill="black"/>
<path d="M2.50025 0.850301L9.71896 4.851C9.76528 4.87656 9.80608 4.91101 9.83904 4.95238C9.872 4.99374 9.8964 5.04121 9.91096 5.09205C9.92552 5.1429 9.92992 5.19612 9.92384 5.24865C9.91784 5.30119 9.90144 5.35201 9.87568 5.3982L7.97237 8.83183C7.92043 8.92479 7.83383 8.99343 7.73146 9.02279C7.62909 9.05215 7.51926 9.03983 7.42595 8.98847L0.207205 4.9878C0.160896 4.96224 0.120102 4.92778 0.0871728 4.8864C0.0542438 4.845 0.0298299 4.79751 0.015339 4.74664C0.000848143 4.69578 -0.00343334 4.64255 0.00274076 4.59002C0.00891488 4.53749 0.0254222 4.4867 0.0513126 4.44059L1.95383 1.00778C1.97932 0.961525 2.0137 0.920741 2.05497 0.887781C2.09625 0.854821 2.14362 0.830325 2.19437 0.815701C2.24513 0.801069 2.29827 0.796597 2.35075 0.802533C2.40324 0.808469 2.45404 0.824701 2.50025 0.850301ZM2.30538 1.20264L0.40207 4.63624L7.62082 8.63695L9.52416 5.20334L2.30538 1.20264ZM16.5742 8.65127L23.7922 12.652C23.8385 12.6774 23.8793 12.7118 23.9122 12.7531C23.9452 12.7944 23.9697 12.8417 23.9843 12.8925C23.9989 12.9433 24.0034 12.9964 23.9974 13.0489C23.9915 13.1013 23.9753 13.1521 23.9497 13.1984L22.0464 16.6328C21.9945 16.726 21.9077 16.7948 21.8051 16.8241C21.7026 16.8535 21.5926 16.841 21.4992 16.7894L14.2812 12.7888C14.2349 12.7632 14.1942 12.7287 14.1612 12.6873C14.1282 12.646 14.1038 12.5985 14.0892 12.5477C14.0746 12.4969 14.0702 12.4437 14.0763 12.3911C14.0824 12.3385 14.0988 12.2877 14.1246 12.2415L16.027 8.80791C16.0527 8.76175 16.0872 8.72103 16.1286 8.68815C16.1699 8.65519 16.2174 8.63079 16.2682 8.61623C16.319 8.60167 16.3722 8.59727 16.4247 8.60335C16.4772 8.60935 16.528 8.62559 16.5742 8.65127ZM16.3794 9.00279L14.4761 12.4364L21.6948 16.4371L23.5982 13.0035L16.3794 9.00279Z" fill="black"/>
<path d="M16.5742 8.65128L23.7922 12.6519C23.8385 12.6774 23.8793 12.7118 23.9122 12.7531C23.9452 12.7944 23.9697 12.8418 23.9843 12.8925C23.999 12.9433 24.0034 12.9964 23.9974 13.0489C23.9915 13.1014 23.9753 13.1522 23.9497 13.1984L22.0464 16.6328C21.9945 16.7259 21.9077 16.7948 21.8051 16.8242C21.7026 16.8535 21.5926 16.841 21.4992 16.7894L14.2812 12.7888C14.235 12.7632 14.1942 12.7287 14.1612 12.6874C14.1282 12.646 14.1038 12.5986 14.0892 12.5477C14.0746 12.4969 14.0703 12.4437 14.0763 12.3911C14.0824 12.3386 14.0988 12.2878 14.1246 12.2415L16.027 8.80792C16.0527 8.76176 16.0872 8.72104 16.1286 8.68816C16.1699 8.6552 16.2174 8.6308 16.2682 8.61624C16.319 8.60168 16.3722 8.59728 16.4247 8.60336C16.4772 8.60936 16.5281 8.6256 16.5742 8.65128ZM16.3794 9.0028L14.4761 12.4364L21.6948 16.4371L23.5982 13.0035L16.3794 9.0028ZM14.5866 4.15108C15.0887 4.42947 15.4598 4.89589 15.618 5.44776C15.7762 5.99964 15.7088 6.59178 15.4306 7.09394L12.7302 11.9648C12.6667 12.0791 12.5605 12.1635 12.4347 12.1994C12.309 12.2354 12.1741 12.2199 12.0598 12.1565L9.1368 10.5363C9.02264 10.4726 8.93832 10.3664 8.90224 10.2407C8.86616 10.1151 8.88128 9.98032 8.94432 9.86576L11.6446 4.99497C11.7823 4.74627 11.9678 4.52715 12.1902 4.35016C12.4127 4.17316 12.6679 4.04176 12.9413 3.96345C13.2146 3.88516 13.5006 3.86149 13.7831 3.89383C14.0656 3.92616 14.3389 4.01384 14.5874 4.15188L14.5866 4.15108ZM9.93848 12.5398C11.6207 13.472 12.0081 14.7589 11.0982 16.399L6.05156 13.6008C6.96066 11.9608 8.25552 11.6069 9.93848 12.5398Z" fill="black"/>
</svg>
