<svg width="30" height="30" viewBox="0 0 30 30" fill="none" xmlns="http://www.w3.org/2000/svg">
<g clip-path="url(#clip0)">
<path d="M11.3951 7.9935L12.9391 8.84951L12.2084 10.1698L10.6634 9.31281L11.3951 7.9935ZM17.8525 11.5726L19.3965 12.4277L18.6648 13.749L17.1218 12.893L17.8525 11.5726ZM12.7174 13.5829L14.0367 14.3147L13.1638 15.8925L11.8435 15.1607L12.7174 13.5829Z" fill="black" stroke="black" stroke-width="0.1"/>
<path d="M8.45824 22.7744C8.59153 22.774 8.71922 22.7207 8.81326 22.6263C8.9073 22.5318 8.96001 22.4039 8.95981 22.2706C8.95962 22.1373 8.90653 22.0095 8.8122 21.9154C8.71788 21.8212 8.59004 21.7683 8.45675 21.7683C8.32345 21.7683 8.19561 21.8212 8.10129 21.9154C8.00696 22.0095 7.95387 22.1373 7.95368 22.2706C7.95348 22.4039 8.00619 22.5318 8.10023 22.6263C8.19428 22.7207 8.32196 22.774 8.45525 22.7744L8.45724 22.7754V22.7744H8.45824ZM7.7265 24.0937C7.49002 23.9687 7.28084 23.7978 7.1112 23.5909C6.94155 23.3841 6.81485 23.1455 6.7385 22.8891C6.66215 22.6328 6.63768 22.3637 6.66653 22.0978C6.69537 21.8319 6.77696 21.5743 6.9065 21.3403C7.03605 21.1063 7.21096 20.9004 7.421 20.7347C7.63105 20.5691 7.87201 20.447 8.1298 20.3756C8.3876 20.3041 8.65704 20.2848 8.92238 20.3188C9.18772 20.3527 9.44363 20.4392 9.67515 20.5732C10.1421 20.8316 10.4873 21.265 10.6348 21.7779C10.7823 22.2908 10.72 22.8413 10.4616 23.3083C10.2032 23.7753 9.76983 24.1205 9.25691 24.268C8.74398 24.4154 8.19348 24.3531 7.7265 24.0947V24.0937Z" fill="black"/>
<path d="M4.49532 23.5389C4.43995 23.3465 4.46331 23.1399 4.56027 22.9646C4.65722 22.7893 4.81983 22.6598 5.01231 22.6044C5.2048 22.549 5.4114 22.5724 5.58666 22.6693C5.76192 22.7663 5.89149 22.9289 5.94687 23.1214C6.05 23.4843 6.2241 23.8233 6.45909 24.1185C6.69409 24.4137 6.9853 24.6594 7.31589 24.8414C7.64452 25.0243 8.0061 25.1403 8.3798 25.1828C8.7535 25.2253 9.13191 25.1934 9.49321 25.0889C9.68301 25.0421 9.88358 25.0706 10.0528 25.1685C10.222 25.2664 10.3467 25.4261 10.4006 25.6141C10.4545 25.802 10.4335 26.0035 10.342 26.1762C10.2505 26.349 10.0955 26.4795 9.90978 26.5405C9.3573 26.6996 8.77881 26.748 8.20757 26.6828C7.63632 26.6176 7.0836 26.4402 6.58117 26.1607C6.07802 25.8825 5.63475 25.5077 5.2768 25.0578C4.91886 24.6079 4.65329 24.0917 4.49532 23.5389V23.5389Z" fill="black"/>
<path d="M2.32099 24.1613C2.26575 23.9688 2.28924 23.7623 2.38629 23.5871C2.48333 23.4119 2.64599 23.2825 2.83848 23.2273C3.03097 23.172 3.23751 23.1955 3.41268 23.2926C3.58785 23.3896 3.7173 23.5523 3.77254 23.7447C3.95725 24.393 4.26834 24.9984 4.68791 25.5259C5.10748 26.0535 5.62725 26.4929 6.21729 26.8188C6.8064 27.1463 7.45441 27.3541 8.12408 27.4304C8.79376 27.5067 9.4719 27.4499 10.1196 27.2633C10.3094 27.2164 10.5099 27.2449 10.6791 27.3429C10.8483 27.4408 10.973 27.6005 11.0269 27.7884C11.0809 27.9763 11.0599 28.1778 10.9683 28.3506C10.8768 28.5233 10.7219 28.6539 10.5361 28.7148C9.69781 28.9562 8.82005 29.0295 7.95329 28.9305C7.08654 28.8316 6.24789 28.5623 5.48556 28.1382C4.72199 27.7166 4.04931 27.1482 3.50621 26.4657C2.96311 25.7832 2.56032 25.0001 2.32099 24.1613V24.1613ZM3.12531 1.06289L12.1487 6.06375C12.2066 6.09571 12.2576 6.13877 12.2988 6.19048C12.34 6.24219 12.3705 6.30153 12.3887 6.36508C12.4069 6.42863 12.4124 6.49516 12.4048 6.56083C12.3973 6.6265 12.3768 6.69003 12.3446 6.74777L9.96546 11.0398C9.90054 11.156 9.79229 11.2418 9.66433 11.2785C9.53636 11.3152 9.39908 11.2998 9.28244 11.2356L0.259006 6.23476C0.20112 6.20282 0.150128 6.15974 0.108966 6.10801C0.0678048 6.05627 0.0372874 5.9969 0.0191738 5.93332C0.00106018 5.86974 -0.00429168 5.8032 0.00342595 5.73754C0.0111436 5.67188 0.0317777 5.60839 0.0641408 5.55074L2.44229 1.25974C2.47415 1.20192 2.51712 1.15094 2.56871 1.10974C2.62031 1.06854 2.67952 1.03792 2.74296 1.01964C2.80641 1.00135 2.87283 0.99576 2.93844 1.00318C3.00405 1.0106 3.06755 1.03089 3.12531 1.06289V1.06289ZM2.88173 1.50332L0.502586 5.79532L9.52602 10.7962L11.9052 6.50419L2.88173 1.50332V1.50332Z" fill="black"/>
<path d="M3.12531 1.06289L12.1487 6.06376C12.2066 6.09571 12.2576 6.13878 12.2988 6.19049C12.34 6.24219 12.3705 6.30153 12.3887 6.36508C12.4069 6.42864 12.4124 6.49516 12.4048 6.56083C12.3973 6.6265 12.3768 6.69003 12.3446 6.74777L9.96546 11.0398C9.90054 11.156 9.79229 11.2418 9.66433 11.2785C9.53636 11.3152 9.39908 11.2998 9.28244 11.2356L0.259006 6.23476C0.20112 6.20282 0.150128 6.15974 0.108966 6.10801C0.0678048 6.05627 0.0372874 5.9969 0.0191738 5.93332C0.00106018 5.86974 -0.00429168 5.8032 0.00342595 5.73754C0.0111436 5.67188 0.0317777 5.60839 0.0641408 5.55075L2.44229 1.25974C2.47416 1.20192 2.51712 1.15094 2.56871 1.10974C2.62031 1.06854 2.67952 1.03792 2.74296 1.01964C2.80641 1.00135 2.87284 0.99576 2.93844 1.00318C3.00405 1.0106 3.06755 1.03089 3.12531 1.06289V1.06289ZM2.88173 1.50332L0.502587 5.79532L9.52602 10.7962L11.9052 6.50419L2.88173 1.50332V1.50332ZM20.7178 10.8141L29.7403 15.815C29.7981 15.8468 29.8491 15.8898 29.8903 15.9414C29.9315 15.993 29.9621 16.0522 29.9804 16.1156C29.9986 16.1791 30.0042 16.2455 29.9968 16.3111C29.9894 16.3767 29.9691 16.4402 29.9371 16.498L27.558 20.791C27.4931 20.9075 27.3846 20.9935 27.2564 21.0302C27.1282 21.0669 26.9907 21.0513 26.874 20.9868L17.8515 15.986C17.7936 15.954 17.7427 15.9109 17.7015 15.8592C17.6603 15.8075 17.6297 15.7482 17.6115 15.6846C17.5933 15.6211 17.5878 15.5546 17.5954 15.4889C17.603 15.4232 17.6235 15.3597 17.6557 15.3019L20.0338 11.0099C20.0659 10.9522 20.109 10.9013 20.1607 10.8602C20.2124 10.819 20.2717 10.7885 20.3352 10.7703C20.3988 10.7521 20.4652 10.7466 20.5309 10.7542C20.5965 10.7617 20.66 10.782 20.7178 10.8141V10.8141ZM20.4742 11.2535L18.0951 15.5455L27.1185 20.5464L29.4977 16.2544L20.4742 11.2535V11.2535Z" fill="black"/>
<path d="M20.7178 10.8141L29.7403 15.8149C29.7981 15.8468 29.8491 15.8898 29.8903 15.9414C29.9315 15.993 29.9621 16.0522 29.9804 16.1156C29.9986 16.1791 30.0042 16.2455 29.9968 16.3111C29.9894 16.3767 29.9691 16.4402 29.9371 16.498L27.558 20.791C27.4931 20.9074 27.3846 20.9935 27.2564 21.0302C27.1282 21.0669 26.9907 21.0513 26.874 20.9868L17.8515 15.986C17.7936 15.954 17.7427 15.9109 17.7015 15.8592C17.6603 15.8075 17.6297 15.7482 17.6115 15.6846C17.5933 15.6211 17.5878 15.5546 17.5954 15.4889C17.603 15.4232 17.6235 15.3597 17.6557 15.3019L20.0338 11.0099C20.0659 10.9522 20.109 10.9013 20.1607 10.8602C20.2124 10.819 20.2717 10.7885 20.3352 10.7703C20.3988 10.7521 20.4652 10.7466 20.5309 10.7542C20.5965 10.7617 20.66 10.782 20.7178 10.8141V10.8141ZM20.4742 11.2535L18.0951 15.5455L27.1185 20.5464L29.4977 16.2544L20.4742 11.2535V11.2535ZM18.2333 5.18885C18.8609 5.53683 19.3247 6.11986 19.5225 6.8097C19.7203 7.49955 19.636 8.23972 19.2881 8.86743L15.9128 14.956C15.8334 15.0989 15.7005 15.2044 15.5434 15.2493C15.3862 15.2943 15.2176 15.2749 15.0747 15.1956L11.421 13.1704C11.2783 13.0908 11.1729 12.958 11.1278 12.8009C11.0827 12.6439 11.1016 12.4754 11.1804 12.3322L14.5557 6.24371C14.7279 5.93283 14.9597 5.65893 15.2378 5.43769C15.5159 5.21644 15.8349 5.05219 16.1766 4.95431C16.5182 4.85644 16.8758 4.82686 17.2289 4.86728C17.5819 4.90769 17.9236 5.0173 18.2343 5.18985L18.2333 5.18885ZM12.4231 15.6748C14.5259 16.84 15.0101 18.4486 13.8727 20.4987L7.56445 17.001C8.70083 14.951 10.3194 14.5086 12.4231 15.6748Z" fill="black"/>
</g>
<defs>
<clipPath id="clip0">
<rect width="30" height="30" fill="white"/>
</clipPath>
</defs>
</svg>
