<svg width="30" height="30" viewBox="0 0 30 30" fill="none" xmlns="http://www.w3.org/2000/svg">
<path d="M29.5118 27.1546L23.8666 21.5103C25.686 19.1732 26.6717 16.2948 26.6669 13.333C26.6661 5.97008 20.6968 0 13.333 0C5.97008 0 0 5.97008 0 13.333C0 20.696 5.97008 26.6669 13.333 26.6669C16.2948 26.6717 19.1732 25.686 21.5103 23.8666L27.1546 29.5118C27.3094 29.6666 27.4932 29.7894 27.6954 29.8731C27.8976 29.9569 28.1143 30 28.3332 30C28.5521 30 28.7689 29.9569 28.9711 29.8731C29.1733 29.7894 29.357 29.6666 29.5118 29.5118C29.6666 29.357 29.7894 29.1733 29.8731 28.9711C29.9569 28.7689 30 28.5521 30 28.3332C30 28.1143 29.9569 27.8976 29.8731 27.6954C29.7894 27.4932 29.6666 27.3094 29.5118 27.1546V27.1546ZM13.333 23.3334C7.81039 23.3334 3.33347 18.8565 3.33347 13.333C3.33347 7.81039 7.81039 3.33347 13.333 3.33347C18.8565 3.33347 23.3334 7.81039 23.3334 13.333C23.3334 18.8565 18.8565 23.3334 13.333 23.3334Z" fill="black"/>
<path fill-rule="evenodd" clip-rule="evenodd" d="M13.1324 10.2859L13.7145 10.6227L13.4393 11.143L12.8573 10.8053L13.1324 10.2859ZM15.7048 12.0002L16.2859 12.337L16.0099 12.8573L15.4288 12.5205L15.7048 12.0002ZM13.1993 12.8573L13.7145 13.129L13.3733 13.7145L12.8573 13.4428L13.1993 12.8573Z" stroke="black" stroke-width="0.1"/>
<path fill-rule="evenodd" clip-rule="evenodd" d="M11.659 16.5851C11.7107 16.6101 11.77 16.6144 11.8248 16.597C11.8796 16.5796 11.9256 16.5418 11.9534 16.4915C11.9811 16.4412 11.9886 16.3822 11.9742 16.3266C11.9597 16.271 11.9246 16.223 11.8758 16.1925C11.8243 16.1692 11.7659 16.1661 11.7122 16.1838C11.6585 16.2015 11.6134 16.2388 11.5859 16.2882C11.5583 16.3376 11.5504 16.3956 11.5636 16.4506C11.5769 16.5056 11.6103 16.5536 11.6573 16.5851H11.6581H11.659ZM11.3333 17.1731C11.1255 17.0574 10.9721 16.864 10.9067 16.6354C10.8413 16.4067 10.8692 16.1615 10.9844 15.9534C11.0415 15.8506 11.1182 15.76 11.2103 15.6868C11.3024 15.6137 11.408 15.5593 11.521 15.527C11.6341 15.4946 11.7524 15.4849 11.8693 15.4982C11.9861 15.5116 12.0992 15.5479 12.202 15.6049C12.3048 15.662 12.3954 15.7388 12.4685 15.8309C12.5417 15.9229 12.596 16.0285 12.6284 16.1416C12.6607 16.2546 12.6705 16.373 12.6571 16.4898C12.6437 16.6066 12.6075 16.7197 12.5504 16.8225C12.3104 17.2563 11.7661 17.414 11.3333 17.174V17.1731Z" fill="black"/>
<path fill-rule="evenodd" clip-rule="evenodd" d="M9.89584 16.9254C9.87873 16.8423 9.89359 16.7558 9.93746 16.6832C9.98134 16.6106 10.051 16.5572 10.1325 16.5337C10.214 16.5103 10.3014 16.5184 10.3772 16.5565C10.4529 16.5946 10.5116 16.6599 10.5413 16.7394C10.5867 16.901 10.6637 17.052 10.7677 17.1837C10.8718 17.3154 11.0008 17.4252 11.1475 17.5068C11.2942 17.5884 11.4556 17.6402 11.6224 17.6591C11.7892 17.678 11.9581 17.6638 12.1193 17.6171C12.1617 17.605 12.2062 17.6013 12.25 17.6063C12.2939 17.6113 12.3363 17.6249 12.3749 17.6463C12.4135 17.6677 12.4475 17.6965 12.475 17.7311C12.5025 17.7656 12.5229 17.8053 12.535 17.8477C12.5472 17.8901 12.5509 17.9345 12.5458 17.9784C12.5408 18.0223 12.5272 18.0647 12.5058 18.1033C12.4844 18.1419 12.4556 18.1759 12.4211 18.2034C12.3865 18.2309 12.3469 18.2512 12.3044 18.2634C12.0584 18.334 11.8009 18.3555 11.5466 18.3264C11.2923 18.2974 11.0463 18.2185 10.8225 18.0942C10.5988 17.9699 10.4018 17.8027 10.2427 17.6021C10.0837 17.4015 9.96584 17.1716 9.89584 16.9254V16.9254Z" fill="black"/>
<path fill-rule="evenodd" clip-rule="evenodd" d="M8.92816 17.2031C8.91394 17.1601 8.90855 17.1147 8.91231 17.0696C8.91608 17.0245 8.92891 16.9806 8.95005 16.9406C8.97119 16.9006 9.0002 16.8653 9.03533 16.8367C9.07047 16.8082 9.111 16.7871 9.15451 16.7746C9.19801 16.7621 9.24359 16.7585 9.28851 16.7641C9.33342 16.7697 9.37675 16.7843 9.41589 16.807C9.45503 16.8297 9.48918 16.8601 9.51628 16.8964C9.54337 16.9326 9.56287 16.974 9.57359 17.018C9.73988 17.6017 10.1307 18.0945 10.6622 18.3885C10.9241 18.5345 11.2123 18.6271 11.5103 18.6611C11.8082 18.6951 12.1098 18.6697 12.3979 18.5865C12.4404 18.5744 12.4849 18.5707 12.5288 18.5757C12.5727 18.5808 12.6152 18.5944 12.6538 18.6159C12.6925 18.6373 12.7265 18.6662 12.754 18.7008C12.7815 18.7354 12.8019 18.7751 12.8141 18.8175C12.8262 18.86 12.8299 18.9045 12.8249 18.9484C12.8198 18.9923 12.8062 19.0348 12.7848 19.0735C12.7633 19.1121 12.7344 19.1461 12.6998 19.1736C12.6652 19.2011 12.6256 19.2215 12.5831 19.2337C12.21 19.3414 11.8194 19.3741 11.4336 19.3299C11.0479 19.2858 10.6747 19.1657 10.3356 18.9765C9.99576 18.7882 9.69647 18.5346 9.45494 18.2302C9.2134 17.9259 9.03438 17.5768 8.92816 17.2031V17.2031ZM9.28559 6.90268L13.3005 9.13299C13.4094 9.19299 13.4479 9.33014 13.3879 9.43814L12.3293 11.3522C12.3151 11.3779 12.296 11.4006 12.273 11.4189C12.25 11.4372 12.2236 11.4508 12.1953 11.459C12.1671 11.4671 12.1375 11.4695 12.1083 11.4662C12.079 11.4629 12.0508 11.4539 12.0251 11.4396L8.011 9.20928C7.98515 9.19505 7.96237 9.17586 7.94398 9.15279C7.92558 9.12973 7.91192 9.10326 7.90379 9.0749C7.89567 9.04653 7.89323 9.01685 7.89663 8.98754C7.90002 8.95823 7.90918 8.92988 7.92357 8.90413L8.98216 6.99011C8.9963 6.9644 9.01538 6.94174 9.0383 6.92342C9.06122 6.90511 9.08753 6.8915 9.11572 6.88338C9.14391 6.87525 9.17343 6.87278 9.20258 6.87609C9.23173 6.8794 9.25994 6.88844 9.28559 6.90268V6.90268ZM9.17759 7.09982L8.119 9.01299L12.1339 11.2433L13.1925 9.32928L9.17759 7.09896V7.09982Z" fill="black"/>
<path fill-rule="evenodd" clip-rule="evenodd" d="M9.28559 6.90268L13.3005 9.13299C13.4094 9.19299 13.4479 9.33014 13.3879 9.43814L12.3293 11.3522C12.3151 11.3779 12.296 11.4006 12.273 11.4189C12.25 11.4372 12.2236 11.4508 12.1953 11.459C12.1671 11.4671 12.1375 11.4695 12.1083 11.4662C12.079 11.4629 12.0508 11.4539 12.0251 11.4396L8.011 9.20928C7.98515 9.19505 7.96237 9.17586 7.94398 9.15279C7.92558 9.12973 7.91192 9.10326 7.90379 9.0749C7.89567 9.04653 7.89323 9.01685 7.89663 8.98754C7.90002 8.95823 7.90918 8.92988 7.92357 8.90413L8.98216 6.99011C8.9963 6.9644 9.01538 6.94174 9.0383 6.92342C9.06122 6.90511 9.08753 6.8915 9.11572 6.88338C9.14391 6.87525 9.17343 6.87278 9.20258 6.87609C9.23173 6.8794 9.25994 6.88844 9.28559 6.90268V6.90268ZM9.17759 7.09982L8.119 9.01299L12.1339 11.2433L13.1925 9.32928L9.17759 7.09896V7.09982ZM17.114 11.251L21.1289 13.4813C21.2377 13.5413 21.2763 13.6785 21.2163 13.7865L20.1577 15.7005C20.1435 15.7262 20.1243 15.7489 20.1014 15.7672C20.0784 15.7856 20.052 15.7992 20.0237 15.8073C19.9955 15.8154 19.9659 15.8179 19.9366 15.8146C19.9074 15.8112 19.8792 15.8022 19.8534 15.7879L15.8385 13.5576C15.8128 13.5433 15.7901 13.5241 15.7717 13.501C15.7534 13.4779 15.7399 13.4514 15.7318 13.423C15.7238 13.3947 15.7214 13.365 15.7249 13.3357C15.7283 13.3065 15.7375 13.2782 15.752 13.2525L16.8097 11.3384C16.8238 11.3126 16.8429 11.2899 16.8659 11.2715C16.8889 11.2531 16.9153 11.2394 16.9436 11.2313C16.9719 11.2232 17.0015 11.2207 17.0308 11.2241C17.06 11.2275 17.0883 11.2366 17.114 11.251V11.251ZM17.006 11.4482L15.9474 13.3613L19.9623 15.5916L21.0209 13.6776L17.006 11.4473V11.4482Z" fill="black"/>
<path fill-rule="evenodd" clip-rule="evenodd" d="M17.114 11.251L21.1289 13.4813C21.2378 13.5413 21.2763 13.6785 21.2163 13.7865L20.1578 15.7005C20.1435 15.7262 20.1244 15.7489 20.1014 15.7672C20.0784 15.7856 20.052 15.7992 20.0237 15.8073C19.9955 15.8154 19.9659 15.8179 19.9367 15.8146C19.9075 15.8112 19.8792 15.8022 19.8535 15.7879L15.8386 13.5576C15.8128 13.5433 15.7901 13.5241 15.7718 13.501C15.7535 13.4779 15.7399 13.4514 15.7318 13.423C15.7238 13.3947 15.7214 13.365 15.7249 13.3357C15.7283 13.3065 15.7376 13.2782 15.752 13.2525L16.8097 11.3384C16.8239 11.3126 16.843 11.2899 16.866 11.2715C16.8889 11.2531 16.9153 11.2394 16.9436 11.2313C16.9719 11.2232 17.0015 11.2207 17.0308 11.2241C17.06 11.2275 17.0883 11.2366 17.114 11.251V11.251ZM17.006 11.4482L15.9474 13.3613L19.9623 15.5916L21.0209 13.6776L17.006 11.4473V11.4482ZM16.0083 8.74298C16.2875 8.89861 16.4937 9.15853 16.5817 9.46585C16.6698 9.77316 16.6325 10.1028 16.478 10.3827L14.9763 13.0982C14.9588 13.1297 14.9353 13.1575 14.9072 13.1799C14.879 13.2024 14.8466 13.219 14.812 13.229C14.7774 13.2389 14.7412 13.242 14.7054 13.2379C14.6696 13.2338 14.6349 13.2228 14.6034 13.2053L12.9774 12.3019C12.9138 12.2663 12.8669 12.2071 12.8468 12.1371C12.8268 12.0671 12.8352 11.992 12.8702 11.9282L14.372 9.21356C14.4483 9.0749 14.5513 8.95268 14.6749 8.8539C14.7986 8.75512 14.9406 8.68173 15.0927 8.63793C15.2448 8.59413 15.404 8.58079 15.5613 8.59867C15.7186 8.61655 15.8707 8.6653 16.0091 8.74212L16.0083 8.74298ZM13.4231 13.4188C14.3591 13.9382 14.5743 14.6556 14.0685 15.5702L11.2614 14.0102C11.7671 13.0965 12.4871 12.8985 13.4231 13.4188V13.4188Z" fill="black"/>
</svg>
