<svg width="24" height="24" viewBox="0 0 24 24" fill="none" xmlns="http://www.w3.org/2000/svg">
<path fill-rule="evenodd" clip-rule="evenodd" d="M6.55245 0C6.0269 0 5.59998 0.442498 5.59998 0.988158V16.5301C5.59998 17.0751 6.02625 17.5183 6.55245 17.5183H14.3799C14.9054 17.5183 15.3324 17.0757 15.3324 16.5301V0.988158C15.3324 0.443147 14.9061 0 14.3799 0H6.55245ZM14.6835 13.4515C14.6835 13.8991 14.3046 14.3079 13.8919 14.3079H6.94043C6.52777 14.3079 6.24878 13.8991 6.24878 13.4515V2.68743C6.24878 2.23975 6.52777 1.86862 6.94043 1.86862H13.8919C14.3046 1.86862 14.6835 2.2391 14.6835 2.68679V13.4515ZM11.6528 1.38069C11.8455 1.38069 11.9143 1.15035 11.9143 1.04135V0.956354C11.9143 0.848652 11.8455 0.64881 11.6535 0.64881H9.16204C8.96934 0.64881 8.84408 0.848004 8.84408 0.957002V1.04135C8.84408 1.15035 8.96998 1.38069 9.16204 1.38069H11.6528Z" fill="black"/>
<path fill-rule="evenodd" clip-rule="evenodd" d="M11.9519 15.9014C11.9519 16.4075 11.5217 16.8169 10.9916 16.8169C10.4609 16.8169 10.0308 16.4075 10.0308 15.902C10.0308 15.396 10.4609 14.9859 10.991 14.9859C11.5217 14.9859 11.9513 15.396 11.9513 15.9014" fill="white"/>
<path fill-rule="evenodd" clip-rule="evenodd" d="M11.1668 7.56529C10.9728 7.75864 10.8528 8.02591 10.8528 8.32115V14.5291C10.6997 14.4609 10.5323 14.4169 10.3571 14.4019C10.3117 14.3974 10.265 14.3954 10.2183 14.3954C9.694 14.3954 9.28068 14.8204 9.28068 15.3285C9.28068 15.37 9.28395 15.4128 9.29044 15.4563C9.33908 15.8177 9.23204 16.1842 8.99391 16.4619L8.58451 16.9401C8.26982 17.3074 8.19975 17.8238 8.40541 18.2611L9.60576 20.8162C9.78486 21.1964 10.0645 21.5208 10.4155 21.7531C10.6037 21.8777 10.8054 22.0023 10.9605 22.0755C11.1214 22.1508 11.2531 22.2696 11.3446 22.4129C11.4368 22.5564 11.4873 22.7257 11.4873 22.9035V24H18.6374C18.6374 23.6503 18.6627 23.3025 18.712 22.958C18.7613 22.6128 18.8353 22.2715 18.9339 21.9367C19.0027 21.7005 19.0546 21.4605 19.0896 21.2178C19.1247 20.9752 19.1422 20.7293 19.1422 20.484V14.424C19.1422 14.169 19.0384 13.9374 18.8704 13.77C18.699 13.5993 18.4616 13.4942 18.1995 13.4988C17.6888 13.5066 17.2859 13.9361 17.2859 14.4454V13.9426C17.2859 13.3522 16.8058 12.874 16.2134 12.874C15.9175 12.874 15.6489 12.9933 15.4556 13.1873C15.2609 13.38 15.1415 13.648 15.1415 13.9426V13.2055C15.1415 12.615 14.6614 12.1356 14.0697 12.1356C13.7732 12.1356 13.5059 12.2556 13.3112 12.449C13.1172 12.643 12.9978 12.9096 12.9978 13.2055V8.32115C12.9978 7.73072 12.5177 7.25189 11.9259 7.25189C11.6295 7.25189 11.3615 7.37189 11.1668 7.56459" fill="black"/>
</svg>
