<svg width="24" height="24" viewBox="0 0 24 24" fill="none" xmlns="http://www.w3.org/2000/svg">
<path d="M6.39996 14.3249V12.497L17.6001 18.5383L16.9226 20.0006L6.39996 14.3249ZM6.39996 11.5024V9.67447L16.9226 3.99957L17.6001 5.46189L6.39996 11.5024Z" fill="black"/>
<path d="M20.0002 0.799988C21.061 0.799988 22.0783 1.2214 22.8285 1.97152C23.5786 2.72164 24 3.73903 24 4.79986C24 5.86069 23.5786 6.87808 22.8285 7.6282C22.0783 8.37831 21.061 8.79975 20.0002 8.79975C18.9393 8.79975 17.9219 8.37831 17.1718 7.6282C16.4217 6.87808 16.0002 5.86069 16.0002 4.79986C16.0002 3.73903 16.4217 2.72164 17.1718 1.97152C17.9219 1.2214 18.9393 0.799988 20.0002 0.799988ZM20.0002 2.39978C19.3636 2.39978 18.7531 2.65264 18.303 3.10275C17.8529 3.55285 17.6001 4.16332 17.6001 4.79986C17.6001 5.4364 17.8529 6.04687 18.303 6.49697C18.7531 6.94708 19.3636 7.19994 20.0002 7.19994C20.6366 7.19994 21.2471 6.94708 21.6972 6.49697C22.1474 6.04687 22.4002 5.4364 22.4002 4.79986C22.4002 4.16332 22.1474 3.55285 21.6972 3.10275C21.2471 2.65264 20.6366 2.39978 20.0002 2.39978ZM20.0002 15.2005C20.5254 15.2005 21.0455 15.3039 21.5308 15.5049C22.0161 15.7059 22.457 16.0005 22.8285 16.372C23.1999 16.7434 23.4945 17.1843 23.6955 17.6697C23.8966 18.1549 24 18.675 24 19.2003C24 19.7256 23.8966 20.2457 23.6955 20.731C23.4945 21.2163 23.1999 21.6573 22.8285 22.0286C22.457 22.4001 22.0161 22.6947 21.5308 22.8957C21.0455 23.0967 20.5254 23.2002 20.0002 23.2002C18.9393 23.2002 17.9219 22.7788 17.1718 22.0286C16.4217 21.2785 16.0002 20.2612 16.0002 19.2003C16.0002 18.1395 16.4217 17.1221 17.1718 16.372C17.9219 15.6218 18.9393 15.2005 20.0002 15.2005ZM20.0002 16.8002C19.3636 16.8002 18.7531 17.0531 18.303 17.5032C17.8529 17.9533 17.6001 18.5637 17.6001 19.2003C17.6001 19.8369 17.8529 20.4473 18.303 20.8974C18.7531 21.3475 19.3636 21.6004 20.0002 21.6004C20.6366 21.6004 21.2471 21.3475 21.6972 20.8974C22.1474 20.4473 22.4002 19.8369 22.4002 19.2003C22.4002 18.5637 22.1474 17.9533 21.6972 17.5032C21.2471 17.0531 20.6366 16.8002 20.0002 16.8002ZM3.99987 8.00023C5.0607 8.00023 6.07809 8.42167 6.82821 9.17175C7.57833 9.92191 7.99974 10.9393 7.99974 12.0001C7.99974 13.0609 7.57833 14.0783 6.82821 14.8284C6.07809 15.5785 5.0607 16 3.99987 16C2.93904 16 1.92166 15.5785 1.17154 14.8284C0.421414 14.0783 0 13.0609 0 12.0001C0 10.9393 0.421414 9.92191 1.17154 9.17175C1.92166 8.42167 2.93904 8.00023 3.99987 8.00023ZM3.99987 9.59999C3.36333 9.59999 2.75286 9.85287 2.30276 10.3029C1.85266 10.7531 1.59979 11.3636 1.59979 12.0001C1.59979 12.6366 1.85266 13.2471 2.30276 13.6972C2.75286 14.1473 3.36333 14.4001 3.99987 14.4001C4.63641 14.4001 5.24688 14.1473 5.69698 13.6972C6.14709 13.2471 6.39995 12.6366 6.39995 12.0001C6.39995 11.3636 6.14709 10.7531 5.69698 10.3029C5.24688 9.85287 4.63641 9.59999 3.99987 9.59999Z" fill="black"/>
</svg>
