<svg width="30" height="30" viewBox="0 0 30 30" fill="none" xmlns="http://www.w3.org/2000/svg">
<g clip-path="url(#clip0)">
<path d="M7.99994 17.9061V15.6213L22.0001 23.1729L21.1533 25.0008L7.99994 17.9061V17.9061ZM7.99994 14.378V12.0931L21.1533 4.99948L22.0001 6.82738L7.99994 14.378V14.378Z" fill="black"/>
<path d="M25.0002 1C26.3262 1 27.5979 1.52677 28.5356 2.46442C29.4732 3.40207 30 4.6738 30 5.99984C30 7.32588 29.4732 8.59761 28.5356 9.53526C27.5979 10.4729 26.3262 10.9997 25.0002 10.9997C23.6741 10.9997 22.4024 10.4729 21.4647 9.53526C20.5271 8.59761 20.0003 7.32588 20.0003 5.99984C20.0003 4.6738 20.5271 3.40207 21.4647 2.46442C22.4024 1.52677 23.6741 1 25.0002 1V1ZM25.0002 2.99974C24.2045 2.99974 23.4414 3.31582 22.8788 3.87845C22.3161 4.44108 22.0001 5.20416 22.0001 5.99984C22.0001 6.79551 22.3161 7.5586 22.8788 8.12123C23.4414 8.68386 24.2045 8.99994 25.0002 8.99994C25.7958 8.99994 26.5589 8.68386 27.1215 8.12123C27.6842 7.5586 28.0003 6.79551 28.0003 5.99984C28.0003 5.20416 27.6842 4.44108 27.1215 3.87845C26.5589 3.31582 25.7958 2.99974 25.0002 2.99974ZM25.0002 19.0006C25.6567 19.0006 26.3069 19.1299 26.9135 19.3812C27.5201 19.6324 28.0713 20.0007 28.5356 20.465C28.9999 20.9293 29.3681 21.4804 29.6194 22.0871C29.8707 22.6937 30 23.3438 30 24.0004C30 24.657 29.8707 25.3072 29.6194 25.9138C29.3681 26.5204 28.9999 27.0716 28.5356 27.5358C28.0713 28.0001 27.5201 28.3684 26.9135 28.6197C26.3069 28.8709 25.6567 29.0003 25.0002 29.0003C23.6741 29.0003 22.4024 28.4735 21.4647 27.5358C20.5271 26.5982 20.0003 25.3265 20.0003 24.0004C20.0003 22.6744 20.5271 21.4026 21.4647 20.465C22.4024 19.5273 23.6741 19.0006 25.0002 19.0006V19.0006ZM25.0002 21.0003C24.2045 21.0003 23.4414 21.3164 22.8788 21.879C22.3161 22.4417 22.0001 23.2047 22.0001 24.0004C22.0001 24.7961 22.3161 25.5592 22.8788 26.1218C23.4414 26.6844 24.2045 27.0005 25.0002 27.0005C25.7958 27.0005 26.5589 26.6844 27.1215 26.1218C27.6842 25.5592 28.0003 24.7961 28.0003 24.0004C28.0003 23.2047 27.6842 22.4417 27.1215 21.879C26.5589 21.3164 25.7958 21.0003 25.0002 21.0003V21.0003ZM4.99984 10.0003C6.32588 10.0003 7.59761 10.5271 8.53526 11.4647C9.47291 12.4024 9.99968 13.6741 9.99968 15.0001C9.99968 16.3262 9.47291 17.5979 8.53526 18.5355C7.59761 19.4732 6.32588 20 4.99984 20C3.6738 20 2.40207 19.4732 1.46442 18.5355C0.526767 17.5979 0 16.3262 0 15.0001C0 13.6741 0.526767 12.4024 1.46442 11.4647C2.40207 10.5271 3.6738 10.0003 4.99984 10.0003V10.0003ZM4.99984 12C4.20417 12 3.44108 12.3161 2.87845 12.8787C2.31582 13.4414 1.99974 14.2045 1.99974 15.0001C1.99974 15.7958 2.31582 16.5589 2.87845 17.1215C3.44108 17.6841 4.20417 18.0002 4.99984 18.0002C5.79551 18.0002 6.5586 17.6841 7.12123 17.1215C7.68386 16.5589 7.99994 15.7958 7.99994 15.0001C7.99994 14.2045 7.68386 13.4414 7.12123 12.8787C6.5586 12.3161 5.79551 12 4.99984 12V12Z" fill="black"/>
</g>
<defs>
<clipPath id="clip0">
<rect width="30" height="30" fill="white"/>
</clipPath>
</defs>
</svg>
