<svg width="24" height="24" viewBox="0 0 24 24" fill="none" xmlns="http://www.w3.org/2000/svg">
<path fill-rule="evenodd" clip-rule="evenodd" d="M11.75 4H0.77C0.338 4 0 4.325 0 4.741V8.007H2.087V16.021H0V18.285C0 18.701 0.338 19.025 0.769 19.025H11.75V15.012C9.85 14.888 8.348 13.369 8.348 11.514C8.348 9.658 9.85 8.139 11.75 8.016V4ZM0 15.541H1.587V8.487H0V15.541ZM12.25 8.016V4H23.231C23.663 4 24 4.326 23.999 4.741V8.007H21.913V16.021H23.999V18.285C23.999 18.701 23.661 19.025 23.23 19.025H12.25V15.012C14.15 14.888 15.652 13.369 15.652 11.514C15.652 9.658 14.15 8.139 12.25 8.016ZM22.413 8.487H23.999V15.541H22.413V8.487ZM8.848 11.514C8.848 9.924 10.126 8.62 11.75 8.497V14.531C10.126 14.408 8.848 13.104 8.848 11.514ZM15.152 11.514C15.152 13.104 13.874 14.408 12.25 14.531V8.497C13.874 8.62 15.152 9.924 15.152 11.514Z" fill="black"/>
</svg>
