<svg width="24" height="24" viewBox="0 0 24 24" fill="none" xmlns="http://www.w3.org/2000/svg">
<path d="M23.679 6.069L12.279 0.069C12.104 -0.023 11.896 -0.023 11.721 0.069L0.321 6.069C0.123 6.172 0 6.377 0 6.599V9C0 9.21 0.11 9.405 0.29 9.514C0.47 9.622 0.693 9.629 0.879 9.531L12 3.678L23.121 9.53C23.307 9.628 23.531 9.621 23.711 9.513C23.89 9.404 24 9.21 24 9V6.6C24 6.377 23.877 6.172 23.679 6.069Z" fill="black"/>
<path d="M11.886 4.57098L21.486 9.62298V21.737C21.485 22.068 21.216 22.337 20.886 22.337H2.88601C2.55501 22.337 2.28601 22.068 2.28601 21.737V9.62298L11.886 4.57098ZM11.607 13.922L11.551 13.978C11.267 14.262 11.019 14.522 10.801 14.761C11.371 15.453 11.451 16.477 11.514 17.311C11.535 17.581 11.556 17.839 11.591 18.057C11.598 18.099 11.605 18.139 11.613 18.177C12.547 18.257 13.503 17.995 14.281 17.391L14.226 17.285C14.129 17.1 13.974 16.834 13.74 16.489C13.358 15.927 12.693 15.053 11.607 13.922ZM10.572 15.015C9.88701 15.792 9.55001 16.314 9.38501 16.642C9.32701 16.756 9.28801 16.851 9.26201 16.928C9.24501 16.979 9.23301 17.023 9.22601 17.059L9.23801 17.072C9.81101 17.645 10.52 17.997 11.261 18.131L11.242 18.007C11.215 17.806 11.197 17.58 11.178 17.337C11.118 16.569 11.046 15.628 10.572 15.015ZM12.322 13.236C12.172 13.374 12.015 13.524 11.848 13.686C13.445 15.348 14.18 16.49 14.488 17.058C14.51 17.096 14.529 17.133 14.546 17.166L14.644 17.072C15.47 16.245 15.839 15.133 15.75 14.052L15.63 14.03C15.41 13.994 15.147 13.973 14.874 13.952C14.039 13.887 13.014 13.808 12.322 13.236ZM10.338 14.77C9.88201 14.39 9.47301 14.59 9.00501 14.818C8.77401 14.931 8.53801 15.046 8.30301 15.07C8.26301 15.075 8.22301 15.076 8.18301 15.074C8.29701 15.679 8.55601 16.262 8.96301 16.766C8.97701 16.726 8.99401 16.684 9.01301 16.64C9.18701 16.244 9.56101 15.648 10.338 14.77ZM9.02201 11.9C8.33701 12.708 8.04201 13.734 8.13501 14.73C8.17301 14.737 8.21301 14.739 8.25501 14.736C8.41801 14.724 8.61001 14.636 8.85701 14.515C9.12101 14.386 9.39401 14.253 9.69501 14.225C10.012 14.197 10.297 14.294 10.564 14.52C10.784 14.28 11.032 14.02 11.313 13.74L11.373 13.68C11.259 13.565 11.142 13.447 11.02 13.327C10.065 12.384 9.46201 12.054 9.14501 11.939C9.09701 11.922 9.05601 11.909 9.02201 11.901V11.9ZM14.619 11.642C14.583 11.649 14.539 11.661 14.487 11.679C14.187 11.781 13.604 12.092 12.575 13.007C13.188 13.483 14.13 13.557 14.9 13.616C15.148 13.636 15.377 13.653 15.581 13.681C15.623 13.687 15.665 13.693 15.704 13.701C15.573 12.955 15.219 12.241 14.644 11.666L14.619 11.642ZM12.289 10.562C11.215 10.465 10.107 10.82 9.27601 11.628C9.31301 11.642 9.35301 11.658 9.39601 11.677C9.79101 11.85 10.396 12.237 11.257 13.087C11.38 13.209 11.498 13.327 11.613 13.444C11.773 13.287 11.929 13.139 12.081 13C11.856 12.734 11.76 12.449 11.788 12.133C11.815 11.831 11.948 11.559 12.078 11.295C12.201 11.043 12.29 10.848 12.299 10.682C12.301 10.64 12.299 10.601 12.289 10.562ZM12.637 10.61C12.639 10.65 12.637 10.69 12.634 10.73C12.612 10.968 12.495 11.208 12.38 11.443C12.152 11.91 11.953 12.317 12.33 12.773C13.035 12.143 13.626 11.709 14.097 11.477L14.197 11.43C14.241 11.41 14.283 11.394 14.322 11.379C13.82 10.977 13.239 10.721 12.637 10.61Z" fill="black"/>
</svg>
