<svg width="24" height="24" viewBox="0 0 24 24" fill="none" xmlns="http://www.w3.org/2000/svg">
<path d="M13.3112 1.98545e-06C15.1196 1.98545e-06 16.8547 0.718532 18.1338 1.99822C19.4121 3.27722 20.13 5.01246 20.1292 6.82154V17.6278H15.0629L20.7063 20.3749C21.1922 20.4964 21.5339 20.934 21.5339 21.4344V24H3.19995V21.4344C3.19995 20.9582 3.50918 20.5371 3.96404 20.3942L9.64667 17.6243H4.68671V6.82224C4.68602 5.01246 5.40454 3.27722 6.68354 1.99753C7.96323 0.717151 9.69843 -0.00137847 11.5083 1.98545e-06H13.3112ZM14.8566 16.4386C14.0945 16.7885 13.2656 16.97 12.4269 16.97H12.3165C11.5228 16.9721 10.7372 16.8119 10.0077 16.5006V17.5643L12.4304 21.6526L14.8566 17.5609V16.4386ZM12.1847 10.4784L12.0728 10.4915C11.3923 10.6068 9.92419 11.4268 9.41339 11.6152C9.01171 11.7629 7.53184 11.979 6.76568 12.0859H6.71737C7.15014 14.8427 9.52595 16.8747 12.3172 16.8741H12.4249C15.1962 16.8747 17.5623 14.8745 18.0227 12.1426C17.6582 12.0942 15.4592 11.8009 14.956 11.6152C14.4169 11.4158 12.8011 10.5081 12.1847 10.4784ZM12.8597 2.89138H11.9687L12.0142 3.01631C12.0425 3.10052 12.0673 3.1861 12.0888 3.2717C12.3635 4.46372 11.8209 5.83728 10.6344 6.66832C10.1078 7.04311 9.49067 7.2695 8.84675 7.3261H8.81915C8.02539 7.40618 7.23435 7.15769 6.62833 6.63933V8.25168L6.58001 8.23584C6.46336 8.20128 6.34188 8.18408 6.21971 8.18472C5.41283 8.18472 4.77022 8.90256 4.77022 9.79024C4.77022 10.6778 5.41835 11.3985 6.21971 11.3985C6.34257 11.4006 6.46543 11.3846 6.58415 11.3502L6.64903 11.9927C7.46143 11.8795 8.90195 11.6649 9.30363 11.5172C9.86275 11.3115 11.5338 10.37 12.1709 10.3397H12.1812C12.8148 10.37 14.4887 11.3115 15.0471 11.5172C15.5344 11.6959 17.5484 11.9727 18.1207 12.0494C18.158 11.8222 18.1814 11.5931 18.1911 11.3626C18.2911 11.3867 18.3947 11.3991 18.4982 11.3991C19.2948 11.3991 19.9477 10.6813 19.9477 9.7916C19.9477 8.90256 19.2968 8.18128 18.4996 8.18128C18.3981 8.18128 18.2967 8.19304 18.1973 8.2172V6.63657L18.149 6.67729C17.6831 7.0652 17.1053 7.29435 16.4993 7.33162C15.6772 7.3827 14.8621 7.14941 14.1919 6.67038C13.0054 5.84763 12.4594 4.46372 12.741 3.27238L12.7728 3.14331C12.7969 3.05772 12.8259 2.97351 12.8597 2.89138ZM10.1609 8.41664C10.4115 8.41664 10.6151 8.70936 10.6151 9.07032C10.6151 9.432 10.4115 9.72464 10.1603 9.72464C9.90899 9.72464 9.70539 9.432 9.70539 9.07032C9.70539 8.70936 9.90899 8.41664 10.1609 8.41664ZM14.5266 8.41664C14.7772 8.41664 14.9801 8.70936 14.9801 9.07032C14.9801 9.432 14.7772 9.72464 14.5266 9.72464C14.2761 9.72464 14.0731 9.432 14.0731 9.07032C14.0731 8.70936 14.2761 8.41664 14.5266 8.41664Z" fill="black"/>
<path fill-rule="evenodd" clip-rule="evenodd" d="M12.234 12.8408L11.5674 13.0299C11.3603 13.1141 11.1219 13.2093 10.8611 13.2985L10.8453 13.3037C10.3401 13.4619 9.82775 13.5948 9.31065 13.7025L9.30317 13.704L8.92972 13.7771C8.59515 13.8426 8.26843 13.6327 8.18901 13.3011C8.10959 12.9696 8.30572 12.6344 8.63366 12.5412L11.1528 11.8253L11.2387 11.7904C11.406 11.7227 11.5817 11.6528 11.7402 11.6046C11.8584 11.5686 12.0391 11.5204 12.2338 11.5301C12.4335 11.5198 12.6268 11.5723 12.7618 11.6153C12.9099 11.6624 13.0725 11.7271 13.229 11.7907L13.2304 11.7912L13.3072 11.8226L15.8418 12.5411C16.1683 12.6336 16.3646 12.9661 16.288 13.2966C16.2113 13.6272 15.8887 13.8393 15.5548 13.7787C14.9014 13.6602 14.2556 13.5007 13.6219 13.3033L13.6065 13.2983C13.3407 13.208 13.0987 13.111 12.8942 13.0277L12.234 12.8408ZM12.5489 13.8899C12.8145 13.9667 13.0698 14.1166 13.2494 14.2324C13.4905 14.3879 13.7097 14.5592 13.839 14.6646L13.8438 14.6685L13.9357 14.7451L13.9597 14.7656C14.2148 14.9765 14.266 15.3483 14.0767 15.6199C13.8874 15.8914 13.5214 15.9724 13.2353 15.806L12.2537 15.2352L11.2709 15.8061C10.9862 15.9715 10.6223 15.8923 10.4322 15.6235C10.2421 15.3547 10.2885 14.9852 10.5392 14.7718L10.5765 14.7401L10.668 14.6641C10.7972 14.559 11.0165 14.3878 11.2578 14.2323C11.4382 14.1161 11.6946 13.9657 11.9613 13.8891C12.0479 13.8521 12.1436 13.834 12.2424 13.8389L12.2551 13.8395L12.2571 13.8394C12.3597 13.8329 12.4592 13.8512 12.5489 13.8899Z" fill="black"/>
</svg>
