<svg width="24" height="24" viewBox="0 0 24 24" fill="none" xmlns="http://www.w3.org/2000/svg">
<path d="M8.33677 0.2184C8.33677 0.0872 8.21118 0 8.08638 0H3.03037C2.90397 0 2.77917 0.088 2.77917 0.2184V6.8568H8.33677V0.2184ZM12.0576 5.4856C11.9344 5.4856 11.8104 5.5736 11.8104 5.7072V6.856H16.6744V5.7072C16.6744 5.5744 16.5504 5.4856 16.4264 5.4856H12.0584H12.0576ZM21.8608 2.7432L18.0632 6.8568H19.8696L22.9264 3.5408L21.8608 2.7432Z" fill="black"/>
<path d="M10.6864 5.83842C10.6864 5.28962 11.2232 4.85842 11.8496 4.85842H16.5456C17.172 4.85842 17.7088 5.29042 17.7088 5.83842V5.99522L19.4528 4.15362C19.3632 4.11362 19.2736 4.11362 19.2736 4.11362H9.03198V6.85762H10.6864V5.83762V5.83842ZM1.59998 24H21.7472V8.22879H1.59998V24ZM13.7344 10.8008H18.3904C18.5248 10.8008 18.6592 10.8856 18.6592 11.012V12.9512C18.6592 13.0784 18.5248 13.1624 18.3904 13.1624H13.7344V10.8008ZM11.1824 10.8008H12.8384V13.1624H11.1824V10.8008ZM4.69038 11.012C4.69038 10.8856 4.82478 10.8008 4.95838 10.8008H10.2864V13.1624H4.95838C4.82478 13.1624 4.69038 13.0784 4.69038 12.9512V11.012Z" fill="black"/>
</svg>
