<svg width="24" height="24" viewBox="0 0 24 24" fill="none" xmlns="http://www.w3.org/2000/svg">
<g clip-path="url(#clip0)">
<path d="M19.7214 1.50056C20.7069 2.08106 21.2927 3.21433 21.1202 4.39859L21.1051 4.49009L20.2636 9.64865C20.4084 9.82641 20.4797 10.0611 20.4407 10.3049C20.0582 12.6546 18.4982 14.4014 16.0996 14.7884V18.3277C16.0996 21.4447 13.5174 24 10.3748 24C7.23154 24 4.65002 21.4447 4.65002 18.3277V14.9152C4.89978 14.9662 5.15553 14.9932 5.41503 14.9932C5.73003 14.9932 6.03978 14.9542 6.33904 14.8792V18.3277C6.33904 20.5282 8.15554 22.3253 10.3741 22.3253C12.5941 22.3253 14.4099 20.529 14.4099 18.3277V14.8117C11.9386 14.4817 10.3059 12.7154 9.91282 10.3042C9.87378 10.0619 9.94506 9.82641 10.0898 9.64865L9.24082 4.44359C9.04434 3.24358 9.63378 2.08782 10.6321 1.49982C10.6268 1.62731 10.6343 1.75557 10.6561 1.88457C10.7011 2.15832 10.8068 2.41257 10.9583 2.63232C10.5061 3.01482 10.2526 3.61108 10.3433 4.22984L10.3561 4.31084L11.1983 9.47089C11.3933 9.59537 11.5359 9.79785 11.5756 10.0431C11.8846 11.9384 13.2031 13.1871 15.1771 13.1871C17.1504 13.1871 18.4689 11.9384 18.7779 10.0431C18.8176 9.79785 18.9602 9.59537 19.1559 9.47089C19.4387 7.73612 19.7184 5.99986 20.0049 4.26584C20.1091 3.63358 19.8564 3.02082 19.3951 2.63232C19.5467 2.41182 19.6516 2.15832 19.6974 1.88457C19.7199 1.75631 19.7274 1.62731 19.7214 1.50056Z" fill="black"/>
<path fill-rule="evenodd" clip-rule="evenodd" d="M18.8851 1.68505C18.9654 1.17054 18.7247 0.670291 18.3114 0.442289L17.8089 0.166287C17.0109 -0.273217 16.0396 0.193287 15.8889 1.1563C15.7374 2.12006 16.5136 2.89481 17.4039 2.75381L17.9627 2.66381C18.4239 2.59106 18.8034 2.2003 18.8851 1.68505ZM5.39255 8.6504C7.04406 8.6504 8.38434 10.0716 8.38434 11.8251C8.38434 13.5779 7.04406 14.9999 5.3918 14.9999C3.74029 14.9999 2.40002 13.5779 2.40002 11.8251C2.40002 10.0716 3.74029 8.6504 5.39255 8.6504ZM11.3514 1.68505C11.2703 1.17054 11.5111 0.670291 11.9251 0.442289L12.4261 0.166287C13.2256 -0.273217 14.1961 0.193287 14.3476 1.1563C14.4983 2.12006 13.7221 2.89481 12.8326 2.75381L12.2731 2.66381C11.8126 2.59106 11.4323 2.2003 11.3514 1.68505Z" fill="black"/>
</g>
<defs>
<clipPath id="clip0">
<rect width="24" height="24" fill="white"/>
</clipPath>
</defs>
</svg>
