<svg width="30" height="30" viewBox="0 0 30 30" fill="none" xmlns="http://www.w3.org/2000/svg">
<g clip-path="url(#clip0)">
<path fill-rule="evenodd" clip-rule="evenodd" d="M14.7111 29.0256C13.4729 28.212 10.973 26.8461 8.14793 26.8461C5.13243 26.8461 1.83786 27.4137 0.501587 27.6692V1.24992C1.66403 1.04889 5.10524 0.501373 8.14793 0.501373C11.2131 0.501373 13.9566 2.16285 14.7111 2.66188V29.0267V29.0256Z" fill="black"/>
<path fill-rule="evenodd" clip-rule="evenodd" d="M14.8186 29.0255V2.66066C15.5731 2.16163 18.3189 0.500153 21.3817 0.500153C24.428 0.500153 27.868 1.04767 29.0293 1.2487V27.668C27.693 27.4113 24.3972 26.8449 21.3817 26.8449C18.559 26.8449 16.0567 28.2107 14.8186 29.0243" fill="black"/>
</g>
<defs>
<clipPath id="clip0">
<rect width="30" height="30" fill="white"/>
</clipPath>
</defs>
</svg>
