<svg width="24" height="24" viewBox="0 0 24 24" fill="none" xmlns="http://www.w3.org/2000/svg">
<path d="M23.751 16.232C23.595 16.118 23.393 16.088 23.211 16.15C21.154 16.89 18.986 17.275 16.8 17.287L6 15.55C4.14 15.515 2.282 15.71 0.47 16.134C0.195 16.195 0 16.439 0 16.72V20.32C0 20.502 0.083 20.675 0.224 20.789C0.366 20.902 0.552 20.946 0.73 20.906C5.709 19.799 8.592 20.528 11.38 21.233C13.193 21.768 15.069 22.063 16.959 22.109C19.221 22.067 21.461 21.655 23.589 20.889C23.835 20.808 24 20.579 24 20.32V16.72C24 16.528 23.907 16.346 23.751 16.233V16.232Z" fill="black"/>
<path fill-rule="evenodd" clip-rule="evenodd" d="M15.79 17.11V4.58699C15.79 4.17199 15.435 3.83499 14.998 3.83499H14.699C14.293 3.83499 13.969 4.12999 13.929 4.51899C13.947 4.67099 13.918 4.82899 13.833 4.97099C13.63 5.30999 13.191 5.42099 12.852 5.21699L12.842 5.21199C12.627 5.08199 12.495 4.84999 12.495 4.59799C12.495 3.38799 13.484 2.40399 14.699 2.40399H14.998C16.223 2.40399 17.22 3.38399 17.22 4.58699V17.11C17.22 17.505 16.9 17.825 16.505 17.825C16.11 17.825 15.79 17.505 15.79 17.11Z" fill="black"/>
<path fill-rule="evenodd" clip-rule="evenodd" d="M7.34706 17.515C6.95106 17.515 6.63106 17.192 6.63106 16.792V4.61202C6.63106 4.19202 6.27606 3.85102 5.84006 3.85102H5.54106C5.13406 3.85102 4.81106 4.14902 4.77106 4.54202C4.78906 4.69602 4.75906 4.85702 4.67406 4.99902C4.47106 5.34202 4.03206 5.45402 3.69406 5.24902L3.68306 5.24202C3.46706 5.11202 3.33606 4.87602 3.33606 4.62202C3.33606 3.39902 4.32406 2.40302 5.54006 2.40302H5.83906C7.06406 2.40302 8.06106 3.39302 8.06106 4.61102V16.791C8.06106 17.191 7.74106 17.514 7.34606 17.514" fill="black"/>
<path fill-rule="evenodd" clip-rule="evenodd" d="M16.487 9.30701H7.32904C6.93404 9.30701 6.61304 8.98701 6.61304 8.59201C6.61304 8.19701 6.93304 7.87701 7.32904 7.87701H16.487C16.882 7.87701 17.203 8.19701 17.203 8.59201C17.203 8.98701 16.883 9.30701 16.487 9.30701ZM16.487 13.775H7.32904C6.93404 13.775 6.61304 13.455 6.61304 13.059C6.61304 12.664 6.93304 12.344 7.32904 12.344H16.487C16.882 12.344 17.203 12.664 17.203 13.059C17.203 13.455 16.883 13.775 16.487 13.775Z" fill="black"/>
</svg>
