<svg width="30" height="30" viewBox="0 0 30 30" fill="none" xmlns="http://www.w3.org/2000/svg">
<g clip-path="url(#clip0)">
<path d="M25.7143 0C26.8509 0 27.941 0.463351 28.7447 1.28812C29.5485 2.11289 30 3.23152 30 4.39792V25.6021C30 26.7685 29.5485 27.8871 28.7447 28.7119C27.941 29.5366 26.8509 30 25.7143 30H4.28571C3.14907 30 2.05898 29.5366 1.25526 28.7119C0.451529 27.8871 0 26.7685 0 25.6021L0 4.39792C0 3.23152 0.451529 2.11289 1.25526 1.28812C2.05898 0.463351 3.14907 0 4.28571 0L25.7143 0ZM18.03 8.32087C16.0157 8.32087 14.5354 10.4055 14.9906 12.5701C12.3969 12.4268 10.098 11.0485 8.55857 8.95329C7.74171 10.5102 8.13514 12.5455 9.52543 13.5755C9.02565 13.5572 8.53876 13.408 8.11114 13.1419C8.07686 14.7462 9.114 16.2468 10.614 16.5811C10.1561 16.719 9.67217 16.7392 9.20486 16.64C9.60171 18.0157 10.7546 19.0149 12.12 19.0439C10.8086 20.1847 9.156 20.694 7.5 20.4776C8.88 21.4592 10.5206 22.0327 12.2829 22.0327C18.0771 22.0327 21.3497 16.6039 21.1526 11.7354C21.7708 11.2372 22.2978 10.6302 22.7091 9.94283C22.1443 10.2217 21.5394 10.4058 20.9177 10.4882C21.5826 10.0376 22.069 9.35827 22.2891 8.57243C21.6833 8.97292 21.012 9.25779 20.3074 9.41332C19.7383 8.74043 18.9274 8.31999 18.03 8.31999V8.32087Z" fill="black"/>
</g>
<defs>
<clipPath id="clip0">
<rect width="30" height="30" fill="white"/>
</clipPath>
</defs>
</svg>
