<svg width="24" height="24" viewBox="0 0 24 24" fill="none" xmlns="http://www.w3.org/2000/svg">
<path d="M20.5714 0C21.4807 0 22.3528 0.370681 22.9958 1.0305C23.6388 1.69031 24 2.58522 24 3.51834V20.4817C24 21.4148 23.6388 22.3097 22.9958 22.9695C22.3528 23.6293 21.4807 24 20.5714 24H3.42857C2.51926 24 1.64718 23.6293 1.00421 22.9695C0.361223 22.3097 0 21.4148 0 20.4817V3.51834C0 2.58522 0.361223 1.69031 1.00421 1.0305C1.64718 0.370681 2.51926 0 3.42857 0H20.5714ZM14.424 6.6567C12.8126 6.6567 11.6283 8.3244 11.9925 10.0561C9.91752 9.94144 8.0784 8.8388 6.84686 7.16263C6.19337 8.40816 6.50811 10.0364 7.62034 10.8604C7.22052 10.8458 6.83101 10.7264 6.48891 10.5135C6.46149 11.797 7.2912 12.9974 8.4912 13.2649C8.12488 13.3752 7.73774 13.3914 7.36389 13.312C7.68138 14.4126 8.60368 15.2119 9.696 15.2351C8.64688 16.1478 7.3248 16.5552 6 16.3821C7.104 17.1674 8.41648 17.6262 9.82632 17.6262C14.4617 17.6262 17.0798 13.2831 16.9221 9.38832C17.4166 8.98976 17.8382 8.50416 18.1673 7.95426C17.7154 8.17736 17.2315 8.32464 16.7342 8.39056C17.2661 8.03008 17.6552 7.48662 17.8313 6.85794C17.3466 7.17834 16.8096 7.40623 16.2459 7.53066C15.7906 6.99234 15.1419 6.65599 14.424 6.65599V6.6567Z" fill="black"/>
</svg>
