<svg width="30" height="30" viewBox="0 0 30 30" fill="none" xmlns="http://www.w3.org/2000/svg">
<path d="M25.415 28.3488H4.92779C4.85481 28.3488 4.78479 28.3199 4.7331 28.2684C4.68141 28.2169 4.65225 28.1469 4.65202 28.0739V1.92866C4.65202 1.77642 4.77555 1.65289 4.92779 1.65289H20.0944L20.1466 1.70944V6.66812C20.1466 7.29622 20.6546 7.80513 21.2819 7.80513H25.6899V28.0739C25.6894 28.1467 25.6603 28.2164 25.6088 28.2678C25.5574 28.3193 25.4877 28.3484 25.415 28.3488ZM27.1253 6.87864L21.067 0.267943C20.9896 0.183482 20.8955 0.116043 20.7907 0.069914C20.6859 0.0237852 20.5726 -2.41214e-05 20.458 1.83376e-08H4.92779C4.4165 0.000461006 3.9263 0.203835 3.56484 0.565455C3.20338 0.927074 3.00023 1.41737 3 1.92866V28.0739C3 29.1353 3.86472 30 4.92779 30H25.415C25.9257 29.9993 26.4152 29.7962 26.7764 29.4352C27.1376 29.0741 27.341 28.5846 27.3419 28.0739V7.43628C27.342 7.22942 27.2644 7.03008 27.1244 6.87777" fill="black"/>
<path d="M18.9756 18.0339C18.9509 18.2216 18.8594 18.394 18.7178 18.5196C18.5763 18.6452 18.3941 18.7156 18.2049 18.7177C18.0629 18.7159 17.9241 18.6748 17.804 18.5989C17.684 18.5231 17.5872 18.4154 17.5246 18.288C17.4643 18.1738 17.4332 18.0465 17.4341 17.9174C17.4322 17.7341 17.494 17.5559 17.6089 17.4132C17.7237 17.2704 17.8846 17.1719 18.0639 17.1344H18.1005C18.1375 17.1309 18.1748 17.1309 18.2118 17.1344C18.4206 17.1367 18.6199 17.2217 18.766 17.3708C18.9121 17.5199 18.9932 17.7208 18.9913 17.9295V17.9313C18.9866 17.9661 18.979 18.0004 18.9687 18.0339H18.9756ZM12.1196 15.6329H12.1083C12.0637 15.6364 12.0189 15.6364 11.9743 15.6329C11.7656 15.6306 11.5663 15.5456 11.4202 15.3965C11.274 15.2475 11.193 15.0465 11.1949 14.8378V14.8352C11.1926 14.8033 11.1926 14.7713 11.1949 14.7395C11.2075 14.637 11.2404 14.5381 11.2915 14.4484C11.3426 14.3587 11.411 14.2801 11.4927 14.217C11.5744 14.1539 11.6678 14.1076 11.7675 14.0808C11.8672 14.054 11.9712 14.0473 12.0735 14.0609C12.498 14.1218 12.7947 14.5263 12.7347 14.9622C12.714 15.1238 12.6437 15.275 12.5336 15.3951C12.4235 15.5152 12.2788 15.5983 12.1196 15.6329ZM7.5298 20.5881C7.51113 20.6895 7.47251 20.7862 7.41616 20.8726C7.35981 20.959 7.28687 21.0333 7.20157 21.0912C7.11626 21.1492 7.02029 21.1896 6.91923 21.2102C6.81818 21.2307 6.71404 21.231 6.61288 21.211C6.40846 21.1651 6.23027 21.0407 6.11682 20.8646C6.00337 20.6885 5.96375 20.4748 6.00653 20.2697C6.0377 20.1041 6.12136 19.9529 6.24513 19.8385C6.36891 19.7241 6.52622 19.6527 6.69378 19.6346H6.7686C6.8845 19.6365 6.99857 19.6639 7.1027 19.7149C7.20684 19.7658 7.29848 19.8391 7.37113 19.9294C7.44378 20.0197 7.49566 20.125 7.52308 20.2376C7.5505 20.3502 7.55279 20.4675 7.5298 20.5811V20.5881ZM24.1953 11.2823L21.6081 11.1823C21.5508 11.181 21.4939 11.1911 21.4405 11.2119C21.3871 11.2327 21.3384 11.2638 21.2971 11.3035C21.2558 11.3432 21.2227 11.3906 21.1998 11.4431C21.1769 11.4956 21.1646 11.5521 21.1635 11.6094C21.1615 11.6689 21.1713 11.7283 21.1923 11.784C21.2134 11.8397 21.2453 11.8906 21.2862 11.9339L22.2223 12.8952L19.1218 16.0705C18.7337 15.8653 18.2885 15.7949 17.8561 15.8703C17.4237 15.9458 17.0286 16.1628 16.7329 16.4872L13.9726 15.1257C13.984 15.0339 13.9899 14.9416 13.99 14.8491C14.0283 13.7008 13.1522 12.7395 12.0326 12.7003C10.9147 12.662 9.97782 13.5616 9.94041 14.7099C9.93905 14.7563 9.93905 14.8027 9.94041 14.8491C9.94041 15.1971 10.0248 15.5381 10.1875 15.8426L7.67334 18.5646C7.39467 18.415 7.08398 18.335 6.76773 18.3315C5.64898 18.3306 4.74163 19.2606 4.73989 20.4098C4.73902 21.5581 5.64463 22.4898 6.76425 22.4915C7.88299 22.4933 8.79122 21.5624 8.79209 20.4141V20.4098C8.79393 20.0768 8.71639 19.7481 8.5659 19.4511L11.0974 16.7125C11.4816 16.9011 11.9165 16.9605 12.3372 16.8816C12.7579 16.8027 13.1417 16.5899 13.4315 16.2749L16.1988 17.6381C16.1874 17.7308 16.1815 17.824 16.1814 17.9174C16.1431 19.0657 17.02 20.0279 18.1388 20.0661C19.2566 20.1044 20.1936 19.2049 20.231 18.0566C20.2326 18.0102 20.2326 17.9638 20.231 17.9174C20.2289 17.5937 20.1515 17.275 20.0048 16.9865L23.1096 13.8112L24.0161 14.7421C24.1823 14.9143 24.4537 14.9161 24.6216 14.7447C24.6647 14.7007 24.6983 14.6482 24.7202 14.5905C24.742 14.5329 24.7517 14.4713 24.7486 14.4098L24.6207 11.7242C24.6233 11.6099 24.5804 11.4991 24.5015 11.4163C24.4226 11.3334 24.314 11.2853 24.1997 11.2823H24.1953Z" fill="black"/>
</svg>
