<svg width="24" height="24" viewBox="0 0 24 24" fill="none" xmlns="http://www.w3.org/2000/svg">
<path d="M20.332 22.679H3.94223C3.88385 22.679 3.82783 22.6559 3.78648 22.6147C3.74513 22.5735 3.7218 22.5175 3.72162 22.4591V1.54293C3.72162 1.42114 3.82044 1.32231 3.94223 1.32231H16.0755L16.1173 1.36755V5.3345C16.1173 5.83698 16.5237 6.2441 17.0255 6.2441H20.5519V22.4591C20.5515 22.5174 20.5282 22.5731 20.487 22.6142C20.4459 22.6554 20.3902 22.6787 20.332 22.679ZM21.7002 5.50291L16.8536 0.214354C16.7917 0.146786 16.7164 0.0928344 16.6326 0.0559312C16.5487 0.0190282 16.4581 -1.92971e-05 16.3664 1.46701e-08H3.94223C3.5332 0.000368805 3.14104 0.163068 2.85187 0.452364C2.5627 0.741659 2.40018 1.1339 2.4 1.54293V22.4591C2.4 23.3082 3.09178 24 3.94223 24H20.332C20.7406 23.9994 21.1322 23.837 21.4211 23.5482C21.7101 23.2593 21.8728 22.8677 21.8735 22.4591V5.94902C21.8736 5.78354 21.8115 5.62406 21.6995 5.50222" fill="black"/>
<path d="M15.1805 14.4271C15.1607 14.5773 15.0875 14.7152 14.9742 14.8157C14.861 14.9161 14.7153 14.9725 14.5639 14.9741C14.4503 14.9727 14.3393 14.9398 14.2432 14.8791C14.1472 14.8185 14.0698 14.7323 14.0197 14.6304C13.9714 14.539 13.9466 14.4372 13.9473 14.3339C13.9458 14.1873 13.9952 14.0447 14.0871 13.9305C14.179 13.8163 14.3077 13.7375 14.4511 13.7075H14.4804C14.51 13.7047 14.5398 13.7047 14.5694 13.7075C14.7365 13.7093 14.8959 13.7773 15.0128 13.8966C15.1297 14.0159 15.1946 14.1766 15.193 14.3436V14.345C15.1893 14.3729 15.1832 14.4003 15.175 14.4271H15.1805ZM9.69568 12.5063H9.68664C9.65096 12.5091 9.61512 12.5091 9.57944 12.5063C9.41248 12.5045 9.25304 12.4365 9.13616 12.3172C9.0192 12.198 8.9544 12.0372 8.95592 11.8702V11.8681C8.95408 11.8426 8.95408 11.817 8.95592 11.7916C8.966 11.7096 8.99232 11.6305 9.0332 11.5587C9.07408 11.4869 9.1288 11.4241 9.19416 11.3736C9.25952 11.3231 9.33424 11.2861 9.414 11.2646C9.49376 11.2432 9.57696 11.2378 9.6588 11.2487C9.9984 11.2974 10.2358 11.621 10.1878 11.9697C10.1712 12.099 10.115 12.22 10.0269 12.3161C9.9388 12.4121 9.82304 12.4786 9.69568 12.5063ZM6.02384 16.4705C6.0089 16.5516 5.97801 16.6289 5.93293 16.6981C5.88785 16.7672 5.8295 16.8266 5.76126 16.8729C5.69301 16.9193 5.61623 16.9517 5.53538 16.9681C5.45454 16.9845 5.37123 16.9848 5.2903 16.9688C5.12677 16.9321 4.98422 16.8325 4.89346 16.6917C4.8027 16.5508 4.771 16.3798 4.80522 16.2157C4.83016 16.0833 4.89709 15.9623 4.9961 15.8708C5.09513 15.7793 5.22098 15.7221 5.35502 15.7077H5.41488C5.5076 15.7092 5.59886 15.7311 5.68216 15.7719C5.76547 15.8126 5.83878 15.8713 5.8969 15.9435C5.95502 16.0157 5.99653 16.1 6.01846 16.1901C6.0404 16.2801 6.04223 16.374 6.02384 16.4649V16.4705ZM19.3562 9.02583L17.2865 8.94583C17.2406 8.94479 17.1951 8.95287 17.1524 8.96951C17.1097 8.98615 17.0707 9.01103 17.0377 9.04279C17.0046 9.07455 16.9782 9.11247 16.9598 9.15447C16.9415 9.19647 16.9317 9.24167 16.9308 9.28751C16.9292 9.33511 16.937 9.38263 16.9538 9.42719C16.9707 9.47175 16.9962 9.51247 17.029 9.54711L17.7778 10.3161L15.2974 12.8564C14.987 12.6922 14.6308 12.6359 14.2849 12.6962C13.939 12.7566 13.6229 12.9302 13.3863 13.1897L11.1781 12.1005C11.1872 12.0271 11.1919 11.9533 11.192 11.8793C11.2226 10.9606 10.5218 10.1916 9.62608 10.1602C8.73176 10.1296 7.98226 10.8493 7.95233 11.7679C7.95124 11.805 7.95124 11.8421 7.95233 11.8793C7.95233 12.1577 8.01984 12.4305 8.15 12.6741L6.13867 14.8517C5.91574 14.732 5.66718 14.668 5.41418 14.6652C4.51918 14.6645 3.7933 15.4085 3.79191 16.3278C3.79122 17.2465 4.5157 17.9918 5.4114 17.9932C6.30639 17.9946 7.03298 17.2499 7.03367 16.3313V16.3278C7.03514 16.0614 6.97311 15.7985 6.85272 15.5609L8.87792 13.37C9.18528 13.5209 9.5332 13.5684 9.86976 13.5053C10.2063 13.4421 10.5134 13.2719 10.7452 13.0199L12.959 14.1105C12.9499 14.1846 12.9452 14.2592 12.9451 14.3339C12.9145 15.2525 13.616 16.0223 14.511 16.0529C15.4053 16.0835 16.1549 15.3639 16.1848 14.4453C16.1861 14.4081 16.1861 14.371 16.1848 14.3339C16.1831 14.0749 16.1212 13.82 16.0038 13.5892L18.4877 11.0489L19.2129 11.7937C19.3458 11.9314 19.563 11.9329 19.6973 11.7957C19.7318 11.7605 19.7586 11.7185 19.7762 11.6724C19.7936 11.6263 19.8014 11.577 19.7989 11.5278L19.6966 9.37935C19.6986 9.28791 19.6643 9.19927 19.6012 9.13303C19.5381 9.06671 19.4512 9.02823 19.3598 9.02583H19.3562Z" fill="black"/>
</svg>
