<svg width="30" height="30" viewBox="0 0 30 30" fill="none" xmlns="http://www.w3.org/2000/svg">
<path d="M15 30C23.283 30 30 23.283 30 15C30 6.717 23.283 0 15 0C6.717 0 0 6.717 0 15C0 23.283 6.717 30 15 30ZM16.875 16.875C16.875 17.3723 16.6775 17.8492 16.3258 18.2008C15.9742 18.5525 15.4973 18.75 15 18.75C14.5027 18.75 14.0258 18.5525 13.6742 18.2008C13.3225 17.8492 13.125 17.3723 13.125 16.875V7.5C13.125 7.00272 13.3225 6.52581 13.6742 6.17417C14.0258 5.82254 14.5027 5.625 15 5.625C15.4973 5.625 15.9742 5.82254 16.3258 6.17417C16.6775 6.52581 16.875 7.00272 16.875 7.5V16.875ZM15 20.595C15.4973 20.595 15.9742 20.7925 16.3258 21.1442C16.6775 21.4958 16.875 21.9727 16.875 22.47C16.875 22.9673 16.6775 23.4442 16.3258 23.7958C15.9742 24.1475 15.4973 24.345 15 24.345C14.5027 24.345 14.0258 24.1475 13.6742 23.7958C13.3225 23.4442 13.125 22.9673 13.125 22.47C13.125 21.9727 13.3225 21.4958 13.6742 21.1442C14.0258 20.7925 14.5027 20.595 15 20.595V20.595Z" fill="black"/>
</svg>
