<svg width="24" height="24" viewBox="0 0 24 24" fill="none" xmlns="http://www.w3.org/2000/svg">
<path d="M12 24C18.6264 24 24 18.6264 24 12C24 5.3736 18.6264 0 12 0C5.3736 0 0 5.3736 0 12C0 18.6264 5.3736 24 12 24ZM13.5 13.5C13.5 13.8978 13.342 14.2794 13.0606 14.5606C12.7794 14.842 12.3978 15 12 15C11.6022 15 11.2206 14.842 10.9394 14.5606C10.658 14.2794 10.5 13.8978 10.5 13.5V6C10.5 5.60218 10.658 5.22065 10.9394 4.93934C11.2206 4.65803 11.6022 4.5 12 4.5C12.3978 4.5 12.7794 4.65803 13.0606 4.93934C13.342 5.22065 13.5 5.60218 13.5 6V13.5ZM12 16.476C12.3978 16.476 12.7794 16.634 13.0606 16.9154C13.342 17.1966 13.5 17.5782 13.5 17.976C13.5 18.3738 13.342 18.7554 13.0606 19.0366C12.7794 19.318 12.3978 19.476 12 19.476C11.6022 19.476 11.2206 19.318 10.9394 19.0366C10.658 18.7554 10.5 18.3738 10.5 17.976C10.5 17.5782 10.658 17.1966 10.9394 16.9154C11.2206 16.634 11.6022 16.476 12 16.476Z" fill="black"/>
</svg>
